<svg width="0" height="0" class="hidden">
  <symbol aria-hidden="true" focusable="false" data-prefix="fas" data-icon="trash" class="svg-inline--fa fa-trash fa-w-14" role="img" xmlns="http://www.w3.org/2000/svg" viewBox="0 0 448 512" id="trash-bin">
    <path fill="currentColor" d="M432 32H312l-9.4-18.7A24 24 0 0 0 281.1 0H166.8a23.72 23.72 0 0 0-21.4 13.3L136 32H16A16 16 0 0 0 0 48v32a16 16 0 0 0 16 16h416a16 16 0 0 0 16-16V48a16 16 0 0 0-16-16zM53.2 467a48 48 0 0 0 47.9 45h245.8a48 48 0 0 0 47.9-45L416 128H32z"></path>
  </symbol>
  <symbol aria-hidden="true" focusable="false" data-prefix="fas" data-icon="check-circle" class="svg-inline--fa fa-check-circle fa-w-16" role="img" xmlns="http://www.w3.org/2000/svg" viewBox="0 0 512 512" id="check">
    <path fill="currentColor" d="M173.898 439.404l-166.4-166.4c-9.997-9.997-9.997-26.206 0-36.204l36.203-36.204c9.997-9.998 26.207-9.998 36.204 0L192 312.69 432.095 72.596c9.997-9.997 26.207-9.997 36.204 0l36.203 36.204c9.997 9.997 9.997 26.206 0 36.204l-294.4 294.401c-9.998 9.997-26.207 9.997-36.204-.001z"></path>
  </symbol>
  <symbol aria-hidden="true" focusable="false" data-prefix="fas" data-icon="times" class="svg-inline--fa fa-times fa-w-11" role="img" xmlns="http://www.w3.org/2000/svg" viewBox="0 0 352 512" style="fill: #fff;" id="times">
    <path fill="currentColor" d="M242.72 256l100.07-100.07c12.28-12.28 12.28-32.19 0-44.48l-22.24-22.24c-12.28-12.28-32.19-12.28-44.48 0L176 189.28 75.93 89.21c-12.28-12.28-32.19-12.28-44.48 0L9.21 111.45c-12.28 12.28-12.28 32.19 0 44.48L109.28 256 9.21 356.07c-12.28 12.28-12.28 32.19 0 44.48l22.24 22.24c12.28 12.28 32.2 12.28 44.48 0L176 322.72l100.07 100.07c12.28 12.28 32.2 12.28 44.48 0l22.24-22.24c12.28-12.28 12.28-32.19 0-44.48L242.72 256z"></path>
  </symbol>
  <symbol xmlns="http://www.w3.org/2000/svg" viewBox="0 0 20 20" id="list">
    <title>list</title>
    <path d="M14.4 9H8.6c-.552 0-.6.447-.6 1s.048 1 .6 1h5.8c.552 0 .6-.447.6-1s-.048-1-.6-1zm2 5H8.6c-.552 0-.6.447-.6 1s.048 1 .6 1h7.8c.552 0 .6-.447.6-1s-.048-1-.6-1zM8.6 6h7.8c.552 0 .6-.447.6-1s-.048-1-.6-1H8.6c-.552 0-.6.447-.6 1s.048 1 .6 1zM5.4 9H3.6c-.552 0-.6.447-.6 1s.048 1 .6 1h1.8c.552 0 .6-.447.6-1s-.048-1-.6-1zm0 5H3.6c-.552 0-.6.447-.6 1s.048 1 .6 1h1.8c.552 0 .6-.447.6-1s-.048-1-.6-1zm0-10H3.6c-.552 0-.6.447-.6 1s.048 1 .6 1h1.8c.552 0 .6-.447.6-1s-.048-1-.6-1z"></path>
  </symbol>
  <symbol xmlns="http://www.w3.org/2000/svg" viewBox="0 0 20 20" id="location-pin">
    <title>location-pin</title>
    <path d="M10 2.009c-2.762 0-5 2.229-5 4.99 0 4.774 5 11 5 11s5-6.227 5-11c0-2.76-2.238-4.99-5-4.99zm0 7.751a2.7 2.7 0 1 1 0-5.4 2.7 2.7 0 0 1 0 5.4z"></path>
  </symbol>
  <symbol xmlns="http://www.w3.org/2000/svg" viewBox="0 0 20 20" id="message">
    <title>message</title>
    <path d="M18 6v7c0 1.1-.9 2-2 2h-4v3l-4-3H4c-1.101 0-2-.9-2-2V6c0-1.1.899-2 2-2h12c1.1 0 2 .9 2 2z"></path>
  </symbol>
  <symbol xmlns="http://www.w3.org/2000/svg" viewBox="0 0 32 32" id="search">
    <title>search</title>
    <path d="M31.008 27.231l-7.58-6.447c-.784-.705-1.622-1.029-2.299-.998a11.954 11.954 0 0 0 2.87-7.787c0-6.627-5.373-12-12-12s-12 5.373-12 12 5.373 12 12 12c2.972 0 5.691-1.081 7.787-2.87-.031.677.293 1.515.998 2.299l6.447 7.58c1.104 1.226 2.907 1.33 4.007.23s.997-2.903-.23-4.007zM12 20a8 8 0 1 1 0-16 8 8 0 0 1 0 16z"></path>
  </symbol>
  <symbol xmlns="http://www.w3.org/2000/svg" viewBox="0 0 20 20" id="shopping-cart">
    <title>shopping-cart</title>
    <path d="M13 17a2 2 0 1 0 3.999.001A2 2 0 0 0 13 17zM3 17a2 2 0 1 0 4 0 2 2 0 0 0-4 0zm3.547-4.828L17.615 9.01A.564.564 0 0 0 18 8.5V3H4V1.4c0-.22-.181-.4-.399-.4H.399A.401.401 0 0 0 0 1.4V3h2l1.91 8.957.09.943v1.649c0 .219.18.4.4.4h13.2c.22 0 .4-.182.4-.4V13H6.752c-1.15 0-1.174-.551-.205-.828z"></path>
  </symbol>
  <symbol xmlns="http://www.w3.org/2000/svg" viewBox="0 0 20 20" id="star">
    <title>star</title>
    <path d="M10 1.3l2.388 6.722H18.8l-5.232 3.948 1.871 6.928L10 14.744l-5.438 4.154 1.87-6.928-5.233-3.948h6.412L10 1.3z"></path>
  </symbol>
  <symbol xmlns="http://www.w3.org/2000/svg" viewBox="0 0 20 20" id="star-outlined">
    <title>star-outlined</title>
    <path d="M18.8 8.022h-6.413L10 1.3 7.611 8.022H1.199l5.232 3.947-1.871 6.929L10 14.744l5.438 4.154-1.869-6.929L18.8 8.022zM10 12.783l-3.014 2.5 1.243-3.562-2.851-2.3 3.522.101 1.1-4.04 1.099 4.04 3.521-.101-2.851 2.3 1.243 3.562-3.012-2.5z"></path>
  </symbol>
  <symbol xmlns="http://www.w3.org/2000/svg" viewBox="0 0 512 512" id="user">
    <path d="M255.999 0c-74.443 0-135 60.557-135 135s60.557 135 135 135 135-60.557 135-135-60.557-135-135-135zM478.48 398.68C438.124 338.138 370.579 302 297.835 302h-83.672c-72.744 0-140.288 36.138-180.644 96.68l-2.52 3.779V512H481V402.459l-2.52-3.779z"></path>
  </symbol>
  <symbol xmlns="http://www.w3.org/2000/svg" viewBox="0 0 20 20" id="wallet">
    <title>wallet</title>
    <path d="M16 6H3.5v-.5l11-.88v.88H16V4c0-1.1-.891-1.872-1.979-1.717L3.98 3.717C2.891 3.873 2 4.9 2 6v10a2 2 0 0 0 2 2h12a2 2 0 0 0 2-2V8a2 2 0 0 0-2-2zm-1.5 7.006a1.5 1.5 0 1 1 .001-3.001 1.5 1.5 0 0 1-.001 3.001z"></path>
  </symbol>
  <symbol xmlns="http://www.w3.org/2000/svg" viewBox="0 0 20 20" id="bookmark">
    <title>bookmark</title>
    <path d="M14 2v17l-4-4-4 4V2c0-.553.585-1.02 1-1h6c.689-.02 1 .447 1 1z"></path>
  </symbol>
  <symbol xmlns="http://www.w3.org/2000/svg" viewBox="0 0 20 20" id="credit">
    <title>credit</title>
    <path d="M11 16.755V19H9v-2.143c-1.712-.1-3.066-.589-4.241-1.797l1.718-1.74c.859.87 2.023 1.16 3.282 1.16 1.565 0 2.405-.599 2.405-1.702 0-.483-.133-.889-.42-1.16-.267-.251-.572-.387-1.202-.483L8.9 10.903c-1.164-.174-2.022-.541-2.634-1.141-.648-.657-.973-1.546-.973-2.707 0-2.155 1.382-3.743 3.707-4.1V1h2v1.932c1.382.145 2.465.62 3.415 1.551l-1.679 1.682c-.859-.832-1.889-.947-2.787-.947-1.412 0-2.099.792-2.099 1.74 0 .348.115.716.401.986.267.252.706.464 1.26.541l1.602.232c1.241.174 2.023.522 2.596 1.063.726.696 1.05 1.702 1.05 2.92 0 2.25-1.567 3.662-3.759 4.055z"></path>
  </symbol>
  <symbol xmlns="http://www.w3.org/2000/svg" viewBox="0 0 20 20" id="home">
    <title>home</title>
    <path d="M18.672 11H17v6c0 .445-.194 1-1 1h-4v-6H8v6H4c-.806 0-1-.555-1-1v-6H1.328c-.598 0-.47-.324-.06-.748L9.292 2.22c.195-.202.451-.302.708-.312.257.01.513.109.708.312l8.023 8.031c.411.425.539.749-.059.749z"></path>
  </symbol>
  <symbol xmlns="http://www.w3.org/2000/svg" viewBox="0 0 20 20" id="hour-glass">
    <title>hour-glass</title>
    <path d="M15.6 4.576V2.228C15.6 1.439 13.092 0 10 0 6.907 0 4.4 1.439 4.4 2.228v2.348C4.4 6.717 8.277 8.484 8.277 10c0 1.514-3.877 3.281-3.877 5.422v2.35C4.4 18.56 6.907 20 10 20c3.092 0 5.6-1.44 5.6-2.229v-2.35c0-2.141-3.877-3.908-3.877-5.422 0-1.515 3.877-3.282 3.877-5.423zM5.941 2.328c.696-.439 2-1.082 4.114-1.082s4.006 1.082 4.006 1.082c.142.086.698.383.317.609-.838.497-2.478 1.02-4.378 1.02s-3.484-.576-4.324-1.074c-.381-.225.265-.555.265-.555zM10.501 10c0 1.193.996 1.961 2.051 2.986.771.748 1.826 1.773 1.826 2.435v1.328c-.97-.483-3.872-.955-3.872-2.504 0-.783-1.013-.783-1.013 0 0 1.549-2.902 2.021-3.872 2.504v-1.328c0-.662 1.056-1.688 1.826-2.435C8.502 11.961 9.498 11.193 9.498 10s-.996-1.961-2.051-2.986c-.771-.75-1.826-1.775-1.826-2.438l-.046-.998C6.601 4.131 8.227 4.656 10 4.656c1.772 0 3.406-.525 4.433-1.078l-.055.998c0 .662-1.056 1.688-1.826 2.438-1.054 1.025-2.051 1.793-2.051 2.986z"></path>
  </symbol>
   <symbol xmlns="http://www.w3.org/2000/svg" viewBox="0 0 291.764 291.764" id="visa">
    <path d="M119.259 100.23l-14.643 91.122h23.405l14.634-91.122h-23.396zm70.598 37.118c-8.179-4.039-13.193-6.765-13.193-10.896.1-3.756 4.24-7.604 13.485-7.604 7.604-.191 13.193 1.596 17.433 3.374l2.124.948 3.182-19.065c-4.623-1.787-11.953-3.756-21.007-3.756-23.113 0-39.388 12.017-39.489 29.204-.191 12.683 11.652 19.721 20.515 23.943 9.054 4.331 12.136 7.139 12.136 10.987-.1 5.908-7.321 8.634-14.059 8.634-9.336 0-14.351-1.404-21.964-4.696l-3.082-1.404-3.273 19.813c5.498 2.444 15.609 4.595 26.104 4.705 24.563 0 40.546-11.835 40.747-30.152.08-10.048-6.165-17.744-19.659-24.035zm83.034-36.836h-18.108c-5.58 0-9.82 1.605-12.236 7.331l-34.766 83.509h24.563l6.765-18.08h27.481l3.51 18.153h21.664l-18.873-90.913zm-26.97 54.514c.474.046 9.428-29.514 9.428-29.514l7.13 29.514h-16.558zM85.059 100.23l-22.931 61.909-2.498-12.209c-4.24-14.087-17.533-29.395-32.368-36.999l20.998 78.33h24.764l36.799-91.021H85.059v-.01z"
      fill="#2394bc"></path>
    <path d="M51.916 111.982c-1.787-6.948-7.486-11.634-15.226-11.734H.374L0 101.934c28.329 6.984 52.107 28.474 59.821 48.688l-7.905-38.64z" fill="#efc75e"></path>
  </symbol>
  <symbol xmlns="http://www.w3.org/2000/svg" viewBox="0 0 469.351 469.351" id="paypal">
    <path d="M356.626 85.086a37.887 37.887 0 0 0-38.763-8.277 10.668 10.668 0 0 0-7.168 8.533l-2.987 20.523c-4.529 30.998-31.052 54.019-62.379 54.144h-42.667a10.666 10.666 0 0 0-10.347 8.085l-32 128a10.667 10.667 0 0 0 10.346 13.248h53.333a10.666 10.666 0 0 0 10.347-8.085l19.307-77.248h41.6c31.934.106 59.792-21.66 67.413-52.672l7.872-31.552a56.099 56.099 0 0 0-13.907-54.699z"
      fill="#03a9f4"></path>
    <g fill="#283593">
      <path d="M10.664 437.342C4.773 437.341-.002 432.564 0 426.673c0-.869.107-1.735.317-2.578l10.667-42.453v-.448l10.667-42.432a10.666 10.666 0 0 1 10.347-8.085h27.136c14.728-.003 26.669 11.933 26.673 26.661 0 2.181-.267 4.354-.795 6.47l-2.667 10.667c-2.967 11.875-13.637 20.205-25.877 20.203H29.672l-8.64 34.581a10.667 10.667 0 0 1-10.368 8.083zm24.341-64h21.461a5.335 5.335 0 0 0 5.163-4.053l2.667-10.667a5.311 5.311 0 0 0-5.163-6.634H40.338l-5.333 21.354zm89.728 64h-15.189c-16.33.004-29.571-13.231-29.575-29.561a29.56 29.56 0 0 1 .882-7.175l1.408-5.675c3.157-12.736 14.612-21.662 27.733-21.611h15.189c16.33.028 29.545 13.289 29.517 29.619a29.561 29.561 0 0 1-.887 7.138l-1.408 5.675c-3.16 12.705-14.579 21.614-27.67 21.59zm-23.168-31.552a8.234 8.234 0 0 0 7.979 10.219h15.189a7.147 7.147 0 0 0 6.955-5.419l1.408-5.675a8.234 8.234 0 0 0-7.979-10.219h-15.189a7.147 7.147 0 0 0-6.955 5.419l-1.408 5.675z"></path>
      <path d="M138.664 437.342a10.667 10.667 0 0 1-10.347-13.248l10.667-42.667c1.426-5.72 7.218-9.202 12.939-7.776 5.72 1.426 9.202 7.218 7.776 12.939l-10.667 42.667a10.666 10.666 0 0 1-10.368 8.085z"></path>
    </g>
    <g fill="#03a9f4">
      <path d="M266.664 437.342a10.667 10.667 0 0 1-10.347-13.248l10.667-42.453v-.448l10.667-42.432a10.666 10.666 0 0 1 10.347-8.085h27.136c14.728-.003 26.669 11.933 26.673 26.661 0 2.181-.267 4.354-.795 6.47l-2.667 10.667c-2.967 11.875-13.637 20.205-25.877 20.203h-26.795l-8.64 34.581a10.669 10.669 0 0 1-10.369 8.084zm24.341-64h21.483a5.335 5.335 0 0 0 5.163-4.053l2.667-10.667a5.312 5.312 0 0 0-5.163-6.634h-18.816l-5.334 21.354zm89.728 64h-15.189c-16.33.004-29.571-13.231-29.575-29.561a29.56 29.56 0 0 1 .882-7.175l1.408-5.675c3.157-12.736 14.612-21.662 27.733-21.611h15.189c16.33-.004 29.571 13.231 29.575 29.561a29.56 29.56 0 0 1-.882 7.175l-1.408 5.675c-3.157 12.736-14.612 21.662-27.733 21.611zm-23.168-31.552a8.234 8.234 0 0 0 7.979 10.219h15.189a7.147 7.147 0 0 0 6.955-5.419l1.408-5.675a8.234 8.234 0 0 0-7.979-10.219h-15.189a7.147 7.147 0 0 0-6.955 5.419l-1.408 5.675z"></path>
      <path d="M394.664 437.342a10.667 10.667 0 0 1-10.347-13.248l10.667-42.667c1.426-5.72 7.218-9.202 12.939-7.776 5.72 1.426 9.202 7.218 7.776 12.939l-10.667 42.667a10.666 10.666 0 0 1-10.368 8.085z"></path>
    </g>
    <g fill="#283593">
      <path d="M202.664 426.676a10.668 10.668 0 0 1-8.875-4.757l-21.333-32c-3.27-4.901-1.947-11.525 2.955-14.795s11.525-1.947 14.795 2.955l21.333 32c3.275 4.897 1.961 11.521-2.935 14.797a10.681 10.681 0 0 1-5.94 1.8z"></path>
      <path d="M181.33 458.676c-5.891-.002-10.665-4.78-10.663-10.671a10.667 10.667 0 0 1 2.471-6.823l53.333-64c3.776-4.524 10.505-5.131 15.029-1.355 4.524 3.776 5.131 10.505 1.355 15.029l-53.333 64a10.663 10.663 0 0 1-8.192 3.82z"></path>
    </g>
    <path d="M437.33 437.342a10.667 10.667 0 0 1-10.347-13.248l21.333-85.333c1.426-5.72 7.218-9.202 12.939-7.776 5.72 1.426 9.202 7.218 7.776 12.939l-21.333 85.333a10.665 10.665 0 0 1-10.368 8.085z" fill="#03a9f4"></path>
    <path d="M321.405 29.129a53.908 53.908 0 0 0-40.661-18.453H159.997a10.666 10.666 0 0 0-10.496 8.768L106.834 254.11c-1.049 5.797 2.801 11.346 8.598 12.395.626.113 1.262.17 1.898.17h64a10.666 10.666 0 0 0 10.347-8.085l19.328-77.248h34.325c41.958-.165 77.478-31.012 83.52-72.533l5.333-36.459a54.332 54.332 0 0 0-12.778-43.221z"
      fill="#283593"></path>
  </symbol>
  <symbol xmlns="http://www.w3.org/2000/svg" viewBox="0 0 504 504" id="mastercard">
    <path d="M504 252c0 83.2-67.2 151.2-151.2 151.2-83.2 0-151.2-68-151.2-151.2 0-83.2 67.2-151.2 150.4-151.2 84.8 0 152 68 152 151.2z" fill="#ffb600"></path>
    <path d="M352.8 100.8c83.2 0 151.2 68 151.2 151.2 0 83.2-67.2 151.2-151.2 151.2-83.2 0-151.2-68-151.2-151.2" fill="#f7981d"></path>
    <path d="M352.8 100.8c83.2 0 151.2 68 151.2 151.2 0 83.2-67.2 151.2-151.2 151.2" fill="#ff8500"></path>
    <path d="M149.6 100.8C67.2 101.6 0 168.8 0 252s67.2 151.2 151.2 151.2c39.2 0 74.4-15.2 101.6-39.2 5.6-4.8 10.4-10.4 15.2-16h-31.2c-4-4.8-8-10.4-11.2-15.2h53.6c3.2-4.8 6.4-10.4 8.8-16h-71.2c-2.4-4.8-4.8-10.4-6.4-16h83.2c4.8-15.2 8-31.2 8-48 0-11.2-1.6-21.6-3.2-32h-92.8c.8-5.6 2.4-10.4 4-16h83.2c-1.6-5.6-4-11.2-6.4-16H216c2.4-5.6 5.6-10.4 8.8-16h53.6c-3.2-5.6-7.2-11.2-12-16h-29.6c4.8-5.6 9.6-10.4 15.2-15.2-26.4-24.8-62.4-39.2-101.6-39.2 0-1.6 0-1.6-.8-1.6z"
      fill="#ff5050"></path>
    <path d="M0 252c0 83.2 67.2 151.2 151.2 151.2 39.2 0 74.4-15.2 101.6-39.2 5.6-4.8 10.4-10.4 15.2-16h-31.2c-4-4.8-8-10.4-11.2-15.2h53.6c3.2-4.8 6.4-10.4 8.8-16h-71.2c-2.4-4.8-4.8-10.4-6.4-16h83.2c4.8-15.2 8-31.2 8-48 0-11.2-1.6-21.6-3.2-32h-92.8c.8-5.6 2.4-10.4 4-16h83.2c-1.6-5.6-4-11.2-6.4-16H216c2.4-5.6 5.6-10.4 8.8-16h53.6c-3.2-5.6-7.2-11.2-12-16h-29.6c4.8-5.6 9.6-10.4 15.2-15.2-26.4-24.8-62.4-39.2-101.6-39.2h-.8"
      fill="#e52836"></path>
    <path d="M151.2 403.2c39.2 0 74.4-15.2 101.6-39.2 5.6-4.8 10.4-10.4 15.2-16h-31.2c-4-4.8-8-10.4-11.2-15.2h53.6c3.2-4.8 6.4-10.4 8.8-16h-71.2c-2.4-4.8-4.8-10.4-6.4-16h83.2c4.8-15.2 8-31.2 8-48 0-11.2-1.6-21.6-3.2-32h-92.8c.8-5.6 2.4-10.4 4-16h83.2c-1.6-5.6-4-11.2-6.4-16H216c2.4-5.6 5.6-10.4 8.8-16h53.6c-3.2-5.6-7.2-11.2-12-16h-29.6c4.8-5.6 9.6-10.4 15.2-15.2-26.4-24.8-62.4-39.2-101.6-39.2h-.8"
      fill="#cb2026"></path>
    <path d="M204.8 290.4l2.4-13.6c-.8 0-2.4.8-4 .8-5.6 0-6.4-3.2-5.6-4.8l4.8-28h8.8l2.4-15.2h-8l1.6-9.6h-16s-9.6 52.8-9.6 59.2c0 9.6 5.6 13.6 12.8 13.6 4.8 0 8.8-1.6 10.4-2.4zm5.6-25.6c0 22.4 15.2 28 28 28 12 0 16.8-2.4 16.8-2.4l3.2-15.2s-8.8 4-16.8 4c-17.6 0-14.4-12.8-14.4-12.8H260s2.4-10.4 2.4-14.4c0-10.4-5.6-23.2-23.2-23.2-16.8-1.6-28.8 16-28.8 36zm28-23.2c8.8 0 7.2 10.4 7.2 11.2H228c0-.8 1.6-11.2 10.4-11.2zM340 290.4l3.2-17.6s-8 4-13.6 4c-11.2 0-16-8.8-16-18.4 0-19.2 9.6-29.6 20.8-29.6 8 0 14.4 4.8 14.4 4.8l2.4-16.8s-9.6-4-18.4-4c-18.4 0-36.8 16-36.8 46.4 0 20 9.6 33.6 28.8 33.6 6.4 0 15.2-2.4 15.2-2.4zm-223.2-63.2c-11.2 0-19.2 3.2-19.2 3.2L95.2 244s7.2-3.2 17.6-3.2c5.6 0 10.4.8 10.4 5.6 0 3.2-.8 4-.8 4h-7.2c-13.6 0-28.8 5.6-28.8 24 0 14.4 9.6 17.6 15.2 17.6 11.2 0 16-7.2 16.8-7.2l-.8 6.4H132l6.4-44c0-19.2-16-20-21.6-20zm3.2 36c0 2.4-1.6 15.2-11.2 15.2-4.8 0-6.4-4-6.4-6.4 0-4 2.4-9.6 14.4-9.6 2.4.8 3.2.8 3.2.8zm33.6 28.8c4 0 24 .8 24-20.8 0-20-19.2-16-19.2-24 0-4 3.2-5.6 8.8-5.6 2.4 0 11.2.8 11.2.8l2.4-14.4s-5.6-1.6-15.2-1.6c-12 0-24 4.8-24 20.8 0 18.4 20 16.8 20 24 0 4.8-5.6 5.6-9.6 5.6-7.2 0-14.4-2.4-14.4-2.4l-2.4 14.4c.8 1.6 4.8 3.2 18.4 3.2zm319.2-77.6l-3.2 21.6s-6.4-8-15.2-8c-14.4 0-27.2 17.6-27.2 38.4 0 12.8 6.4 26.4 20 26.4 9.6 0 15.2-6.4 15.2-6.4l-.8 5.6h16l12-76.8-16.8-.8zm-7.2 42.4c0 8.8-4 20-12.8 20-5.6 0-8.8-4.8-8.8-12.8 0-12.8 5.6-20.8 12.8-20.8 5.6 0 8.8 4 8.8 13.6zm-436 34.4l9.6-57.6 1.6 57.6H52l20.8-57.6-8.8 57.6h16.8l12.8-76.8H67.2l-16 47.2-.8-47.2H27.2l-12.8 76.8h15.2zm248 0c4.8-26.4 5.6-48 16.8-44 1.6-10.4 4-14.4 5.6-18.4h-3.2c-7.2 0-12.8 9.6-12.8 9.6l1.6-8.8h-15.2L260 292h17.6v-.8zm99.2-64c-11.2 0-19.2 3.2-19.2 3.2l-2.4 13.6s7.2-3.2 17.6-3.2c5.6 0 10.4.8 10.4 5.6 0 3.2-.8 4-.8 4h-7.2c-13.6 0-28.8 5.6-28.8 24 0 14.4 9.6 17.6 15.2 17.6 11.2 0 16-7.2 16.8-7.2l-.8 6.4H392l6.4-44c.8-19.2-16-20-21.6-20zm4 36c0 2.4-1.6 15.2-11.2 15.2-4.8 0-6.4-4-6.4-6.4 0-4 2.4-9.6 14.4-9.6 2.4.8 2.4.8 3.2.8zm31.2 28c4.8-26.4 5.6-48 16.8-44 1.6-10.4 4-14.4 5.6-18.4h-3.2c-7.2 0-12.8 9.6-12.8 9.6l1.6-8.8h-15.2L394.4 292H412v-.8z"
      fill="#fff"></path>
    <path d="M180 279.2c0 9.6 5.6 13.6 12.8 13.6 5.6 0 10.4-1.6 12-2.4l2.4-13.6c-.8 0-2.4.8-4 .8-5.6 0-6.4-3.2-5.6-4.8l4.8-28h8.8l2.4-15.2h-8l1.6-9.6m11.2 44.8c0 22.4 7.2 28 20 28 12 0 16.8-2.4 16.8-2.4l3.2-15.2s-8.8 4-16.8 4c-17.6 0-14.4-12.8-14.4-12.8H260s2.4-10.4 2.4-14.4c0-10.4-5.6-23.2-23.2-23.2-16.8-1.6-20.8 16-20.8 36zm20-23.2c8.8 0 10.4 10.4 10.4 11.2H228c0-.8 1.6-11.2 10.4-11.2zM340 290.4l3.2-17.6s-8 4-13.6 4c-11.2 0-16-8.8-16-18.4 0-19.2 9.6-29.6 20.8-29.6 8 0 14.4 4.8 14.4 4.8l2.4-16.8s-9.6-4-18.4-4c-18.4 0-28.8 16-28.8 46.4 0 20 1.6 33.6 20.8 33.6 6.4 0 15.2-2.4 15.2-2.4zM95.2 244.8s7.2-3.2 17.6-3.2c5.6 0 10.4.8 10.4 5.6 0 3.2-.8 4-.8 4h-7.2c-13.6 0-28.8 5.6-28.8 24 0 14.4 9.6 17.6 15.2 17.6 11.2 0 16-7.2 16.8-7.2l-.8 6.4H132l6.4-44c0-18.4-16-19.2-22.4-19.2m12 34.4c0 2.4-9.6 15.2-19.2 15.2-4.8 0-6.4-4-6.4-6.4 0-4 2.4-9.6 14.4-9.6 2.4.8 11.2.8 11.2.8zm8 27.2s4.8 1.6 18.4 1.6c4 0 24 .8 24-20.8 0-20-19.2-16-19.2-24 0-4 3.2-5.6 8.8-5.6 2.4 0 11.2.8 11.2.8l2.4-14.4s-5.6-1.6-15.2-1.6c-12 0-16 4.8-16 20.8 0 18.4 12 16.8 12 24 0 4.8-5.6 5.6-9.6 5.6M469.6 236s-6.4-8-15.2-8c-14.4 0-19.2 17.6-19.2 38.4 0 12.8-1.6 26.4 12 26.4 9.6 0 15.2-6.4 15.2-6.4l-.8 5.6h16l12-76.8m-20.8 41.6c0 8.8-7.2 20-16 20-5.6 0-8.8-4.8-8.8-12.8 0-12.8 5.6-20.8 12.8-20.8 5.6 0 12 4 12 13.6zM29.6 291.2l9.6-57.6 1.6 57.6H52l20.8-57.6-8.8 57.6h16.8l12.8-76.8h-20l-22.4 47.2-.8-47.2h-8.8l-27.2 76.8h15.2zm231.2 0h16.8c4.8-26.4 5.6-48 16.8-44 1.6-10.4 4-14.4 5.6-18.4h-3.2c-7.2 0-12.8 9.6-12.8 9.6l1.6-8.8m69.6 15.2s7.2-3.2 17.6-3.2c5.6 0 10.4.8 10.4 5.6 0 3.2-.8 4-.8 4h-7.2c-13.6 0-28.8 5.6-28.8 24 0 14.4 9.6 17.6 15.2 17.6 11.2 0 16-7.2 16.8-7.2l-.8 6.4H392l6.4-44c0-18.4-16-19.2-22.4-19.2m12 34.4c0 2.4-9.6 15.2-19.2 15.2-4.8 0-6.4-4-6.4-6.4 0-4 2.4-9.6 14.4-9.6 3.2.8 11.2.8 11.2.8zm7.2 28H412c4.8-26.4 5.6-48 16.8-44 1.6-10.4 4-14.4 5.6-18.4h-3.2c-7.2 0-12.8 9.6-12.8 9.6l1.6-8.8"
      fill="#dce5e5"></path>
  </symbol>
  <symbol viewBox="0 -24 494 494" xmlns="http://www.w3.org/2000/svg" id="contract">
    <path d="M441.906 0H122.47C94.746 0 72.19 22.344 72.19 49.719L70.133 331H7.793C3.375 331 0 334.906 0 339.324v38.711c0 36.238 29 65.875 64 67.5V446h269v-.523c2 .082 3.21.523 4.586.523h.191c37.328-.219 67.418-30.645 67.223-67.973V132h81.207c4.418 0 7.793-4 7.793-8.414V52.559C494.05 23.69 470.773.207 441.906 0zM67.5 430h-.055C38.988 430 16 406.48 16 378.027V347h254v30.895a67.709 67.709 0 0 0 19.766 48.046c1.351 1.36 2.765 2.059 4.21 4.059zM389 378.02c0 28.46-22.766 51.98-51.234 51.98h-.164c-28.61-.207-51.668-23.492-51.602-52.102v-38.574a8.287 8.287 0 0 0-8-8.324H86.133L88.19 49.773C88.191 31.168 103.566 16 122.47 16h281.668C395.02 26 389 38.652 389 52.773zM478 52.7V116h-73V52.758C405 32.734 421.656 16 441.672 16h.223c20.066.2 36.199 16.57 36.105 36.64zm0 0"></path>
    <path d="M187.855 196.914l41.247 28.2a7.877 7.877 0 0 0 8.941 0l41.121-28.192C293.45 187.176 304 166.8 304 149.523V92.47a7.82 7.82 0 0 0-4.266-7.184l-62.8-30.89a7.86 7.86 0 0 0-6.993 0L167.258 85.2A7.807 7.807 0 0 0 163 92.383v57.14c0 17.278 10.574 37.653 24.855 47.391zM179 97.375l54.5-26.89L288 97.448v52.074c0 12.051-7.898 27.38-17.863 34.172l-36.73 25.121L196.82 183.7c-9.965-6.8-17.82-22.125-17.82-34.176zm0 0"></path>
    <path d="M219.969 161.602a7.989 7.989 0 0 0 5.664 2.398h.02a8.01 8.01 0 0 0 5.656-2.367l31.824-31.836a8.003 8.003 0 0 0 .004-11.32c-3.121-3.13-8.192-3.13-11.317-.004l-26.14 26.136-10.45-10.55a8.003 8.003 0 0 0-11.32-.051 8.007 8.007 0 0 0-.05 11.32zM333 248H141a8 8 0 0 0 0 16h192a8 8 0 0 0 0-16zm0 37H141a8 8 0 0 0 0 16h192a8 8 0 0 0 0-16zm0 0"></path>
  </symbol>
  <symbol xmlns="http://www.w3.org/2000/svg" viewBox="0 0 512 512" id="gift">
    <path d="M480 143.686H378.752c7.264-4.96 13.504-9.888 17.856-14.304 25.792-25.952 25.792-68.192 0-94.144-25.056-25.216-68.768-25.248-93.856 0-13.856 13.92-50.688 70.592-45.6 108.448h-2.304c5.056-37.856-31.744-94.528-45.6-108.448-25.088-25.248-68.8-25.216-93.856 0C89.6 61.19 89.6 103.43 115.36 129.382c4.384 4.416 10.624 9.344 17.888 14.304H32c-17.632 0-32 14.368-32 32v80c0 8.832 7.168 16 16 16h16v192c0 17.632 14.368 32 32 32h384c17.632 0 32-14.368 32-32v-192h16c8.832 0 16-7.168 16-16v-80c0-17.632-14.368-32-32-32zM138.08 57.798c6.496-6.528 15.104-10.112 24.256-10.112 9.12 0 17.728 3.584 24.224 10.112 21.568 21.696 43.008 77.12 35.552 84.832 0 0-1.344 1.056-5.92 1.056-22.112 0-64.32-22.976-78.112-36.864-13.408-13.504-13.408-35.52 0-49.024zM240 463.686H64v-192h176v192zm0-224H32v-64h208v64zm85.44-181.888c12.992-13.024 35.52-12.992 48.48 0 13.408 13.504 13.408 35.52 0 49.024-13.792 13.888-56 36.864-78.112 36.864-4.576 0-5.92-1.024-5.952-1.056-7.424-7.712 14.016-63.136 35.584-84.832zM448 463.686H272v-192h176v192zm32-224H272v-64h208v64z"></path>
  </symbol>
  <symbol viewBox="0 0 512 512" xmlns="http://www.w3.org/2000/svg" id="review">
    <path d="M489.456 0h-99.735c-4.151 0-7.515 3.364-7.515 7.515s3.364 7.515 7.515 7.515h99.735c4.144 0 7.515 3.371 7.515 7.515v151.253c0 4.144-3.371 7.515-7.515 7.515H282.687V177.7c0-14.66-11.926-26.585-26.585-26.585s-26.585 11.926-26.585 26.585v3.613h-76.549a7.515 7.515 0 1 0 0 15.03h76.549v132.432l-17.849-20.004a58.192 58.192 0 0 0-43.376-19.43c-6.167 0-11.73 3.165-14.881 8.467s-3.271 11.702-.323 17.119l29.928 54.979a148.633 148.633 0 0 0 28.126 36.665l31.894 30.347v16.098c-7.801 1.621-13.68 8.546-13.68 16.821v24.983c0 9.474 7.707 17.181 17.181 17.181h118.487c9.474 0 17.182-7.707 17.182-17.181v-24.983c0-8.096-5.635-14.884-13.184-16.693v-16.705c6.849-8.64 28.086-40.348 28.086-101.259v-45.9c0-14.659-11.926-26.584-26.585-26.584a26.427 26.427 0 0 0-13.439 3.653c-3.917-9.807-13.513-16.755-24.702-16.755a26.423 26.423 0 0 0-13.438 3.653c-3.917-9.807-13.513-16.755-24.702-16.755-4.139 0-8.06.95-11.556 2.645v-42.792h206.769c12.431 0 22.544-10.114 22.544-22.544V22.544C512 10.113 501.887 0 489.456 0zM294.243 251.518c6.372 0 11.556 5.184 11.556 11.556v13.103c0 4.151 3.364 7.515 7.515 7.515s7.515-3.364 7.515-7.515c0-6.372 5.184-11.556 11.556-11.556 6.371 0 11.555 5.184 11.555 11.556v13.102c0 4.151 3.364 7.515 7.515 7.515s7.515-3.364 7.515-7.515c0-6.372 5.184-11.555 11.556-11.555s11.556 5.183 11.556 11.555v45.9c0 64.562-25.791 93.094-26.025 93.346a7.51 7.51 0 0 0-2.062 5.17v18.959H335.84c-4.151 0-7.515 3.364-7.515 7.515s3.364 7.515 7.515 7.515h29.185c1.187 0 2.153.966 2.153 2.153v24.983a2.155 2.155 0 0 1-2.153 2.152H246.537a2.154 2.154 0 0 1-2.152-2.152v-24.983c0-1.187.965-2.153 2.152-2.153h59.244c4.151 0 7.515-3.364 7.515-7.515s-3.364-7.515-7.515-7.515h-47.715v-18.959a7.515 7.515 0 0 0-2.335-5.444l-34.229-32.569a133.605 133.605 0 0 1-25.286-32.963l-29.928-54.979c-.707-1.896-.001-3.085 2.003-3.371 12.27 0 23.992 5.25 32.161 14.406l30.685 34.39c4.354 5.122 13.617 1.855 13.407-5.003V177.7c0-6.372 5.184-11.556 11.556-11.556 6.371 0 11.555 5.184 11.555 11.556v85.374c0 4.151 3.364 7.515 7.515 7.515s7.515-3.364 7.515-7.515c.002-6.372 5.186-11.556 11.558-11.556zm-171.334-70.206H22.544c-4.144 0-7.515-3.371-7.515-7.515V22.544c0-4.144 3.371-7.515 7.515-7.515h337.118a7.514 7.514 0 1 0 0-15.029H22.544C10.113 0 0 10.113 0 22.544v151.253c0 12.43 10.113 22.544 22.544 22.544h100.365a7.515 7.515 0 1 0 0-15.029z"></path>
    <path d="M305.453 92.526c4.415-4.303 5.975-10.619 4.069-16.483-1.905-5.864-6.88-10.058-12.982-10.945l-17.497-2.542a1.056 1.056 0 0 1-.794-.576l-7.826-15.856c-2.728-5.529-8.253-8.964-14.42-8.964-6.166 0-11.692 3.434-14.421 8.964l-7.826 15.857c-.154.31-.45.526-.791.575l-17.501 2.542c-6.102.887-11.076 5.081-12.981 10.945s-.346 12.18 4.069 16.483l12.663 12.344c.248.242.361.589.302.931l-2.989 17.428c-1.042 6.076 1.409 12.103 6.397 15.727 4.988 3.625 11.478 4.094 16.936 1.225l15.652-8.229c.306-.162.672-.162.978 0l15.653 8.229a16.1 16.1 0 0 0 7.498 1.864c3.32 0 6.619-1.041 9.438-3.089 4.987-3.624 7.438-9.651 6.395-15.727l-2.988-17.428a1.05 1.05 0 0 1 .302-.931zm-23.154 1.583a16.073 16.073 0 0 0-4.624 14.233l2.989 17.43c.029.176.11.644-.419 1.027-.527.384-.951.162-1.108.08l-15.651-8.228a16.081 16.081 0 0 0-14.967-.001l-15.651 8.229c-.158.082-.579.306-1.109-.08-.529-.384-.449-.852-.418-1.028l2.989-17.429a16.075 16.075 0 0 0-4.625-14.233l-12.662-12.343c-.128-.125-.468-.457-.267-1.078.202-.622.673-.691.849-.716l17.501-2.542a16.08 16.08 0 0 0 12.106-8.797l7.826-15.856c.079-.161.289-.586.943-.586s.863.426.943.586l7.826 15.855a16.08 16.08 0 0 0 12.109 8.799l17.498 2.542c.177.026.648.094.849.716.202.621-.138.953-.266 1.078zM145.641 123.23l-2.989-17.428a1.048 1.048 0 0 1 .303-.931l12.662-12.344c4.415-4.303 5.974-10.619 4.069-16.483s-6.879-10.058-12.982-10.945l-17.498-2.542a1.054 1.054 0 0 1-.793-.576l-7.826-15.856c-2.729-5.529-8.254-8.964-14.42-8.964s-11.692 3.434-14.421 8.964l-7.825 15.856a1.056 1.056 0 0 1-.792.576l-17.5 2.542c-6.102.887-11.076 5.081-12.981 10.945s-.346 12.18 4.069 16.483l12.663 12.344c.248.242.361.589.302.931l-2.989 17.428c-1.042 6.077 1.409 12.104 6.397 15.727 4.989 3.626 11.478 4.093 16.936 1.225l15.652-8.229c.306-.161.672-.161.979 0l15.653 8.229a16.1 16.1 0 0 0 7.498 1.864c3.32 0 6.619-1.041 9.438-3.089 4.986-3.624 7.437-9.651 6.395-15.727zm-13.176-29.122a16.075 16.075 0 0 0-4.626 14.234l2.989 17.429c.03.176.111.644-.418 1.028-.528.386-.95.162-1.108.08l-15.652-8.229a16.078 16.078 0 0 0-14.966 0l-15.651 8.229c-.158.082-.579.305-1.108-.08-.529-.383-.449-.852-.418-1.028l2.989-17.429a16.075 16.075 0 0 0-4.625-14.233L67.209 81.765c-.128-.125-.468-.457-.267-1.078.202-.622.673-.691.849-.716l17.501-2.542a16.083 16.083 0 0 0 12.107-8.797l7.826-15.856c.079-.161.289-.586.943-.586s.864.426.943.586l7.826 15.855a16.08 16.08 0 0 0 12.108 8.799l17.499 2.542c.177.026.647.094.849.716.202.621-.138.953-.266 1.078zm322.824-1.582c4.415-4.303 5.975-10.619 4.069-16.483-1.905-5.864-6.88-10.058-12.982-10.945l-17.497-2.542a1.054 1.054 0 0 1-.794-.576l-7.826-15.856c-2.729-5.529-8.254-8.964-14.42-8.964s-11.692 3.434-14.421 8.964l-7.825 15.855a1.059 1.059 0 0 1-.793.577l-17.5 2.542c-6.103.887-11.076 5.081-12.981 10.946-1.905 5.864-.345 12.18 4.069 16.482l12.663 12.344c.247.242.361.589.301.931l-2.987 17.428c-1.043 6.077 1.408 12.104 6.396 15.728 4.986 3.625 11.476 4.094 16.935 1.225l15.652-8.229a1.05 1.05 0 0 1 .978 0l15.653 8.229a16.1 16.1 0 0 0 7.498 1.864c3.32 0 6.619-1.041 9.438-3.089 4.987-3.624 7.438-9.651 6.395-15.727l-2.988-17.428a1.05 1.05 0 0 1 .302-.931zm-23.154 1.583a16.073 16.073 0 0 0-4.624 14.233l2.989 17.43c.029.176.11.644-.419 1.027-.527.384-.951.162-1.108.08l-15.651-8.228a16.085 16.085 0 0 0-14.967-.001l-15.652 8.229c-.156.082-.578.305-1.107-.08-.528-.383-.448-.851-.418-1.028l2.987-17.426a16.078 16.078 0 0 0-4.623-14.236L366.88 81.764c-.127-.124-.468-.456-.266-1.077.203-.622.673-.691.849-.716l17.501-2.542a16.088 16.088 0 0 0 12.107-8.797l7.826-15.856c.079-.161.29-.586.943-.586s.863.426.942.586l7.826 15.855a16.08 16.08 0 0 0 12.109 8.799l17.498 2.542c.177.026.648.094.849.716.203.621-.138.953-.266 1.078z"></path>
  </symbol>
  <symbol xmlns="http://www.w3.org/2000/svg" viewBox="0 0 512 512" id="truck">
    <path d="M386.689 304.403c-35.587 0-64.538 28.951-64.538 64.538s28.951 64.538 64.538 64.538c35.593 0 64.538-28.951 64.538-64.538s-28.951-64.538-64.538-64.538zm0 96.807c-17.796 0-32.269-14.473-32.269-32.269s14.473-32.269 32.269-32.269 32.269 14.473 32.269 32.269c0 17.797-14.473 32.269-32.269 32.269zm-220.504-96.807c-35.587 0-64.538 28.951-64.538 64.538s28.951 64.538 64.538 64.538 64.538-28.951 64.538-64.538-28.951-64.538-64.538-64.538zm0 96.807c-17.796 0-32.269-14.473-32.269-32.269s14.473-32.269 32.269-32.269c17.791 0 32.269 14.473 32.269 32.269 0 17.797-14.473 32.269-32.269 32.269zM430.15 119.675a16.143 16.143 0 0 0-14.419-8.885h-84.975v32.269h75.025l43.934 87.384 28.838-14.5-48.403-96.268z"></path>
    <path d="M216.202 353.345h122.084v32.269H216.202zm-98.421 0H61.849c-8.912 0-16.134 7.223-16.134 16.134 0 8.912 7.223 16.134 16.134 16.134h55.933c8.912 0 16.134-7.223 16.134-16.134 0-8.912-7.223-16.134-16.135-16.134zm390.831-98.636l-31.736-40.874a16.112 16.112 0 0 0-12.741-6.239H346.891V94.655c0-8.912-7.223-16.134-16.134-16.134H61.849c-8.912 0-16.134 7.223-16.134 16.134s7.223 16.134 16.134 16.134h252.773V223.73c0 8.912 7.223 16.134 16.134 16.134h125.478l23.497 30.268v83.211h-44.639c-8.912 0-16.134 7.223-16.134 16.134 0 8.912 7.223 16.134 16.134 16.134h60.773c8.912 0 16.134-7.223 16.135-16.134V264.605c0-3.582-1.194-7.067-3.388-9.896zm-391.906 16.888H42.487c-8.912 0-16.134 7.223-16.134 16.134 0 8.912 7.223 16.134 16.134 16.134h74.218c8.912 0 16.134-7.223 16.134-16.134.001-8.911-7.222-16.134-16.133-16.134zm37.109-63.463H16.134C7.223 208.134 0 215.357 0 224.269s7.223 16.134 16.134 16.134h137.681c8.912 0 16.134-7.223 16.134-16.134s-7.222-16.135-16.134-16.135z"></path>
    <path d="M180.168 144.672H42.487c-8.912 0-16.134 7.223-16.134 16.134 0 8.912 7.223 16.134 16.134 16.134h137.681c8.912 0 16.134-7.223 16.134-16.134.001-8.911-7.222-16.134-16.134-16.134z"></path>
  </symbol>
  <symbol viewBox="0 0 512 512" xmlns="http://www.w3.org/2000/svg" id="warranty">
    <path d="M484.574 181.429c-6.756-20.92-3.876-52.323-21.436-76.57-17.698-24.438-48.479-31.384-65.86-44.096-17.198-12.578-33.198-39.949-62.127-49.389C307.038 2.2 278.29 14.649 256 14.649c-22.287 0-51.033-12.452-79.151-3.276-28.924 9.438-44.937 36.815-62.124 49.387-17.362 12.697-48.166 19.662-65.861 44.096-17.545 24.227-14.694 55.702-21.438 76.572C21.008 201.291 0 225.13 0 256.002c0 30.891 20.984 54.638 27.426 74.573 6.756 20.92 3.876 52.323 21.436 76.57 17.697 24.439 48.477 31.384 65.86 44.097 17.195 12.576 33.198 39.949 62.127 49.388 28.094 9.168 56.887-3.275 79.151-3.275 22.233 0 51.093 12.43 79.151 3.276 28.925-9.438 44.928-36.809 62.124-49.387 17.362-12.697 48.166-19.662 65.861-44.096 17.546-24.228 14.693-55.7 21.438-76.572C490.992 310.712 512 286.873 512 256.002c0-30.889-20.979-54.629-27.426-74.573zm-38.061 136.847c-7.875 24.375-5.812 51.654-15.772 65.408-10.094 13.937-36.613 20.303-57.076 35.271-20.239 14.801-34.424 38.264-50.922 43.647-15.608 5.094-41.044-5.249-66.742-5.249-25.886 0-51.06 10.365-66.743 5.249-16.496-5.383-30.661-28.83-50.922-43.648-20.342-14.877-47.012-21.374-57.077-35.272-9.928-13.708-7.943-41.176-15.77-65.405C57.817 294.538 40 273.983 40 256.002c0-17.999 17.801-38.483 25.487-62.274 7.875-24.374 5.812-51.655 15.772-65.408 10.088-13.928 36.627-20.315 57.077-35.271 20.303-14.849 34.399-38.256 50.92-43.647 15.595-5.088 41.114 5.249 66.743 5.249 25.933 0 51.044-10.372 66.743-5.249 16.494 5.382 30.671 28.838 50.923 43.648 20.339 14.877 47.011 21.374 57.076 35.271 9.93 13.711 7.934 41.151 15.77 65.405v.001C454.183 217.466 472 238.021 472 256.002c0 17.999-17.801 38.483-25.487 62.274zm-98.37-126.469c7.811 7.811 7.811 20.474 0 28.284L248.037 320.197c-7.811 7.811-20.475 7.81-28.285 0l-55.894-55.894c-7.811-7.811-7.812-20.474-.001-28.284s20.476-7.811 28.284 0l41.753 41.752 85.963-85.963c7.811-7.811 20.475-7.811 28.286-.001z"></path>
  </symbol>
  <symbol id="triangle-down" xmlns="http://www.w3.org/2000/svg" viewBox="0 0 20 20">
    <path d="M5 6h10l-5 9-5-9z"></path>
  </symbol>
  <symbol id="i-navigate_next" xmlns="http://www.w3.org/2000/svg" viewBox="0 0 24 24">
	  <path d="M9.984 6l6 6-6 6-1.406-1.406 4.594-4.594-4.594-4.594z"></path>
  </symbol>
  <symbol id="i-navigate_before" xmlns="http://www.w3.org/2000/svg" viewBox="0 0 24 24">
	  <path d="M15.422 7.406l-4.594 4.594 4.594 4.594-1.406 1.406-6-6 6-6z"></path>
  </symbol>
</svg>