<svg xmlns="http://www.w3.org/2000/svg" xmlns:xlink="http://www.w3.org/1999/xlink" viewBox="0 0 584.93 585.46"><defs><style>.cls-1{fill:url(#linear-gradient);}.cls-2{fill:url(#linear-gradient-2);}.cls-3{fill:url(#linear-gradient-3);}.cls-4{fill:url(#linear-gradient-4);}.cls-5{fill:url(#linear-gradient-5);}.cls-6{fill:url(#linear-gradient-6);}.cls-7{fill:url(#linear-gradient-7);}.cls-8{fill:url(#linear-gradient-8);}.cls-9{fill:url(#linear-gradient-9);}.cls-10{fill:url(#linear-gradient-10);}.cls-11{fill:url(#linear-gradient-11);}.cls-12{fill:url(#linear-gradient-12);}.cls-13{fill:url(#linear-gradient-13);}.cls-14{fill:url(#linear-gradient-14);}.cls-15{fill:url(#linear-gradient-15);}.cls-16{fill:url(#linear-gradient-16);}.cls-17{fill:url(#linear-gradient-17);}.cls-18{fill:url(#linear-gradient-18);}.cls-19{fill:url(#linear-gradient-19);}.cls-20{fill:url(#linear-gradient-20);}.cls-21{fill:url(#linear-gradient-21);}.cls-22{fill:url(#linear-gradient-22);}.cls-23{fill:url(#linear-gradient-23);}.cls-24{fill:url(#linear-gradient-24);}.cls-25{fill:url(#linear-gradient-25);}.cls-26{fill:url(#linear-gradient-26);}.cls-27{fill:url(#linear-gradient-27);}.cls-28{fill:url(#linear-gradient-28);}.cls-29{fill:url(#linear-gradient-29);}.cls-30{fill:url(#linear-gradient-30);}.cls-31{fill:url(#linear-gradient-31);}.cls-32{fill:url(#linear-gradient-32);}.cls-33{fill:url(#linear-gradient-33);}.cls-34{fill:url(#linear-gradient-34);}.cls-35{fill:url(#linear-gradient-35);}.cls-36{fill:url(#linear-gradient-36);}.cls-37{fill:url(#linear-gradient-37);}.cls-38{fill:url(#linear-gradient-38);}.cls-39{fill:url(#linear-gradient-39);}.cls-40{fill:url(#linear-gradient-40);}.cls-41{fill:url(#linear-gradient-41);}.cls-42{fill:url(#linear-gradient-42);}.cls-43{fill:url(#linear-gradient-43);}</style><linearGradient id="linear-gradient" x1="95.83" y1="106.26" x2="119.25" y2="129.68" gradientUnits="userSpaceOnUse"><stop offset="0" stop-color="#c67c44"/><stop offset="0.4" stop-color="#d3864b"/><stop offset="1" stop-color="#ed9c5a"/></linearGradient><linearGradient id="linear-gradient-2" x1="44.95" y1="180.55" x2="70.07" y2="205.67" xlink:href="#linear-gradient"/><linearGradient id="linear-gradient-3" x1="34.88" y1="223.39" x2="57.95" y2="246.47" xlink:href="#linear-gradient"/><linearGradient id="linear-gradient-4" x1="126.34" y1="73.98" x2="149.79" y2="97.44" xlink:href="#linear-gradient"/><linearGradient id="linear-gradient-5" x1="165.74" y1="50.66" x2="189.39" y2="74.31" xlink:href="#linear-gradient"/><linearGradient id="linear-gradient-6" x1="67.78" y1="141.51" x2="92.2" y2="165.93" xlink:href="#linear-gradient"/><linearGradient id="linear-gradient-7" x1="56.28" y1="397.88" x2="81.05" y2="422.64" xlink:href="#linear-gradient"/><linearGradient id="linear-gradient-8" x1="29.37" y1="266.09" x2="52.66" y2="289.38" xlink:href="#linear-gradient"/><linearGradient id="linear-gradient-9" x1="81.98" y1="437.05" x2="108.02" y2="463.09" xlink:href="#linear-gradient"/><linearGradient id="linear-gradient-10" x1="117.51" y1="471.42" x2="142.24" y2="496.15" xlink:href="#linear-gradient"/><linearGradient id="linear-gradient-11" x1="30.03" y1="310.36" x2="54.11" y2="334.43" xlink:href="#linear-gradient"/><linearGradient id="linear-gradient-12" x1="39.59" y1="355.5" x2="63.24" y2="379.16" xlink:href="#linear-gradient"/><linearGradient id="linear-gradient-13" x1="525.14" y1="212.42" x2="549.48" y2="236.76" xlink:href="#linear-gradient"/><linearGradient id="linear-gradient-14" x1="510.55" y1="170.92" x2="533.94" y2="194.31" xlink:href="#linear-gradient"/><linearGradient id="linear-gradient-15" x1="487.35" y1="130.86" x2="511.4" y2="154.91" xlink:href="#linear-gradient"/><linearGradient id="linear-gradient-16" x1="457.45" y1="96.76" x2="480.93" y2="120.24" xlink:href="#linear-gradient"/><linearGradient id="linear-gradient-17" x1="207.89" y1="35.8" x2="231.9" y2="59.81" xlink:href="#linear-gradient"/><linearGradient id="linear-gradient-18" x1="296.74" y1="28.29" x2="319.27" y2="50.82" xlink:href="#linear-gradient"/><linearGradient id="linear-gradient-19" x1="252.44" y1="29.3" x2="275.19" y2="52.05" xlink:href="#linear-gradient"/><linearGradient id="linear-gradient-20" x1="338.64" y1="33.52" x2="362.3" y2="57.18" xlink:href="#linear-gradient"/><linearGradient id="linear-gradient-21" x1="381.88" y1="48.85" x2="405.22" y2="72.19" xlink:href="#linear-gradient"/><linearGradient id="linear-gradient-22" x1="421.77" y1="70.31" x2="445.54" y2="94.07" xlink:href="#linear-gradient"/><linearGradient id="linear-gradient-23" x1="159.28" y1="290.81" x2="203.48" y2="335.01" xlink:href="#linear-gradient"/><linearGradient id="linear-gradient-24" x1="156.33" y1="496.39" x2="180.31" y2="520.38" xlink:href="#linear-gradient"/><linearGradient id="linear-gradient-25" x1="490.01" y1="426.15" x2="515.46" y2="451.6" xlink:href="#linear-gradient"/><linearGradient id="linear-gradient-26" x1="511.32" y1="386.19" x2="537.16" y2="412.04" xlink:href="#linear-gradient"/><linearGradient id="linear-gradient-27" x1="273.78" y1="281.61" x2="284.57" y2="292.4" xlink:href="#linear-gradient"/><linearGradient id="linear-gradient-28" x1="256.45" y1="257.42" x2="399.54" y2="400.51" xlink:href="#linear-gradient"/><linearGradient id="linear-gradient-29" x1="531.96" y1="256.71" x2="556.49" y2="281.23" xlink:href="#linear-gradient"/><linearGradient id="linear-gradient-30" x1="527.14" y1="343.66" x2="551.69" y2="368.21" xlink:href="#linear-gradient"/><linearGradient id="linear-gradient-31" x1="87.29" y1="88.16" x2="499.91" y2="500.79" xlink:href="#linear-gradient"/><linearGradient id="linear-gradient-32" x1="296.6" y1="185.99" x2="303.08" y2="192.47" xlink:href="#linear-gradient"/><linearGradient id="linear-gradient-33" x1="533.15" y1="301.17" x2="557.1" y2="325.12" xlink:href="#linear-gradient"/><linearGradient id="linear-gradient-34" x1="143.24" y1="140.05" x2="444.52" y2="441.33" xlink:href="#linear-gradient"/><linearGradient id="linear-gradient-35" x1="286.65" y1="525.9" x2="309.46" y2="548.7" xlink:href="#linear-gradient"/><linearGradient id="linear-gradient-36" x1="330.25" y1="521.44" x2="353.1" y2="544.29" xlink:href="#linear-gradient"/><linearGradient id="linear-gradient-37" x1="372.48" y1="509.3" x2="396.45" y2="533.26" xlink:href="#linear-gradient"/><linearGradient id="linear-gradient-38" x1="241.39" y1="523.22" x2="265.09" y2="546.92" xlink:href="#linear-gradient"/><linearGradient id="linear-gradient-39" x1="272.77" y1="190.11" x2="305.22" y2="222.56" xlink:href="#linear-gradient"/><linearGradient id="linear-gradient-40" x1="413.82" y1="489.2" x2="437.19" y2="512.57" xlink:href="#linear-gradient"/><linearGradient id="linear-gradient-41" x1="199.13" y1="514.71" x2="222.04" y2="537.61" xlink:href="#linear-gradient"/><linearGradient id="linear-gradient-42" x1="450.5" y1="461.72" x2="473.45" y2="484.67" xlink:href="#linear-gradient"/><linearGradient id="linear-gradient-43" x1="310.17" y1="196.32" x2="333.81" y2="219.96" xlink:href="#linear-gradient"/></defs><g id="Layer_2" data-name="Layer 2"><g id="b_g_svg" data-name="b&amp;g_svg"><g id="Golds"><path class="cls-1" d="M100.07,127.78c5.61-1.41,6.1-1.13,9.35,3.66a22.3,22.3,0,0,0,3.41,3.31c.71-1.34,1.5-2.65,2.08-4a7.14,7.14,0,0,0,.6-2.9c-.09-2.72,1.23-3.86,3.82-4.17,2.35-.27,4.67-.85,7.32-1.36-1.47-3.31-3.89-4.1-6.1-5.09-4.21-1.9-4.33-2.14-3.51-6.79.38-2.17,1.41-4.46-.52-6.5a5.81,5.81,0,0,0-1.54.54c-.91.71-1.76,1.51-2.61,2.31-4.67,4.44-4.76,4.43-10.87,1.74-1.68-.74-3.48-1.2-5.88-2a23.76,23.76,0,0,0,.71,3.32,39,39,0,0,0,2,4c2.5,4.47,2.5,4.44-.53,8.31-1.31,1.68-2.53,3.44-3.86,5.25C96.05,129.46,98.06,128.29,100.07,127.78Z"/><path class="cls-2" d="M47.8,198.33a55.59,55.59,0,0,0-1.07,7.09c3.17,1.21,5-1.35,6.9-2.84,2.58-2,4.66-2,7.17-.1,2.05,1.53,4.32,2.77,7.62,4.85-.39-3.11-.37-5-.9-6.81-1.42-4.86-1.35-5.28,2.93-8l5.8-3.73c-3-2.44-3-2.44-7.54-2.81s-5.14-.92-6.36-5.4c-.63-2.31-1.65-4.51-2.49-6.75A12.93,12.93,0,0,0,56.27,179c-1.48,3.86-3.93,5.79-8.31,5.44-2.51-.21-5.09.48-7.63.77-.13.38-.25.76-.37,1.14,2,1.82,3.9,3.78,6,5.43C48.38,193.57,48.56,195.65,47.8,198.33Z"/><path class="cls-3" d="M33.16,234.92a3.78,3.78,0,0,0,.43.26c4.44,2.55,4.58,3,3.73,7.91-.37,2.16-.39,4.38-.61,7.14a14.86,14.86,0,0,0,8.31-5.7c1.51-1.89,3.12-2.3,5.22-1.2a20.16,20.16,0,0,0,3.15,1.5c1.63.55,3.88,1.82,4.89,1.19,2.19-1.34-.22-3.13-.6-4.75a6,6,0,0,0-.72-1.84c-1.79-2.84-.8-5,1.56-6.9A25.9,25.9,0,0,0,62,229.72a9.89,9.89,0,0,0,1.23-3,10.91,10.91,0,0,0-2.6-1,21.47,21.47,0,0,0-3.48.17c-6.88.44-6.83.42-9.36-5.81A40.7,40.7,0,0,0,45,215.38a14.15,14.15,0,0,0-1.68,2.2,21.88,21.88,0,0,0-1,3.31c-1.54,6.75-2.15,6.22-8,7.72-2.1.53-5.41-1-5.88,1.93C28.22,231.71,31.47,233.45,33.16,234.92Z"/><path class="cls-4" d="M128.8,93.6c5.45.05,5.44,0,7.57,5.19.72,1.74,1.53,3.43,2.29,5.15a19,19,0,0,0,3.22-6.37c1-2.84,2.7-4.39,6-4a48.59,48.59,0,0,0,5.79,0l.72-1.52c-1.51-1.67-2.79-3.66-4.59-4.93-3.19-2.26-3.62-4.78-2-8.15a38.31,38.31,0,0,0,1.69-5.49c-3.15-1.52-4.86.34-6.76,1.57-4.13,2.69-4.89,2.68-8.87-.26a22.39,22.39,0,0,0-3.17-2.4,3.58,3.58,0,0,0-2.71,0c-.37.16-.46,1.49-.31,2.21.43,2.11.69,4.38,1.69,6.23,1.57,2.92.58,4.51-1.85,6.18a62.21,62.21,0,0,0-5.77,5l.46,1.21C124.35,93.41,126.57,93.58,128.8,93.6Z"/><path class="cls-5" d="M163.12,68.16c7,.57,7.66,1.14,8.87,8.1.09.48-.06,1.08.17,1.47.63,1.06,1.41,2,2.13,3,.89-.88,1.84-1.71,2.63-2.66a10,10,0,0,0,.79-1.82c2.51-5,2.79-5.13,8.43-4.05,1,.19,1.94.43,3.45.77.27-.08,1.48-.14,1.67-.61a3.86,3.86,0,0,0-.21-2.66,11.37,11.37,0,0,0-1.75-2.41c-4.09-5.17-4.05-5.63-.9-11.46.69-1.27.62-2.95.9-4.45-1.42.13-2.84.25-4.25.41a2.15,2.15,0,0,0-.92.35c-4.3,3.07-7.61,1.56-10.43-2.23a3,3,0,0,0-.71-.7c-1.2-.75-2.42-1.48-3.64-2.21a45.11,45.11,0,0,0-.89,4.55,20.14,20.14,0,0,0,.32,2.95c.19,3.23-.67,5.85-3.94,7.3a22.57,22.57,0,0,0-4.23,2.62,11.29,11.29,0,0,0-1.75,2.11c.92.5,1.82,1.05,2.78,1.46A4.76,4.76,0,0,0,163.12,68.16Z"/><path class="cls-6" d="M69.08,150c3.29,4,3.2,3.9.85,8.36-1.08,2.05-3,4.07-1.66,6.84a5.41,5.41,0,0,0,1.61-.18c5.84-3,11.23-3.8,15.82,2.32.66.89,2.57.85,3.9,1.24-.09-1.23-.17-2.45-.28-3.68a7,7,0,0,0-.3-1c-1-3.49-.56-6.58,4-7.49,2.19-.44,4.22-1.72,6.32-2.61.07-.48.15-.95.22-1.42a46.84,46.84,0,0,0-6.18-2.34c-4.11-.93-5.58-3.58-5.8-7.46a42.64,42.64,0,0,0-1-5.45l-1.19-.26a51.27,51.27,0,0,0-4,4.7c-2.08,3-4.63,4-8.14,2.69-2.61-1-5.31-1.56-8-.21.06.61,0,1,.13,1.24C66.57,146.87,67.81,148.43,69.08,150Z"/><path class="cls-7" d="M85,414a24.64,24.64,0,0,0,2.59-2.71A10.7,10.7,0,0,0,85,409.39c-7.75-2.55-5.95-2.39-6.12-9.1,0-1,.17-2,.15-3s-.17-1.78-.26-2.68a10,10,0,0,0-3.13.67,27.71,27.71,0,0,0-3.92,3.05c-3.9,3.32-3.89,3.33-8.27,1.16a23.55,23.55,0,0,0-3.58-1.73,13.85,13.85,0,0,0-3.3-.16,11.5,11.5,0,0,0,0,3.21,15.35,15.35,0,0,0,1.89,4c1.89,2.91,1.72,5.32-.7,8-1.88,2.09-3,4.82-4.52,7.27l.68,1c2.19-.42,4.42-.73,6.58-1.27,5.4-1.36,6.13-1,8.65,3.77a51.91,51.91,0,0,0,4.12,5.77l1.55-.52c.33-1.92.8-3.82,1-5.75.48-6.1,1.53-7.46,7.31-8.87C83.69,414.13,84.54,414.34,85,414Z"/><path class="cls-8" d="M22.77,279.48c1.08.69,2.52.79,3.75,1.28,3.87,1.55,6.33,4.09,6.32,8.59,0,2-.92,4.94,1.73,5.53,1.08.24,3.06-2.13,4.15-3.65,2.39-3.34,5-5.29,9.24-3.29a10.42,10.42,0,0,0,3.44.49c2.89.25,4.08-1.13,3-3.7A10.49,10.49,0,0,0,52.34,282c-3.34-3.75-3.33-4.52.1-8.25,1.27-1.37,2.46-2.81,4.09-4.67a13.33,13.33,0,0,0-9.06.12c-4.07,1.35-4.53,1.13-7-2.39a44.75,44.75,0,0,0-3.71-5.26c-1.41-1.51-2.67-1-3.06,1.09a18.75,18.75,0,0,0-.05,2c-.37,6.17-2.6,8.86-8.36,10-.63.13-1.49-.28-1.94,0-.85.57-2,1.4-2.08,2.25A3.39,3.39,0,0,0,22.77,279.48Z"/><path class="cls-9" d="M102.24,439.35c.31-2.5-.19-5.11-.33-7.72-.82.15-1.27.1-1.43.28-1.27,1.52-2.5,3.08-3.73,4.64-2.9,3.67-5.89,4.5-10.45,3.15a52.25,52.25,0,0,0-5.89-1.09l-.69,1.15c1.49,2.09,2.94,4.2,4.48,6.25,2.74,3.64,2.7,4.66.11,8.36A25.85,25.85,0,0,0,81.25,460c-.61,1.6.5,2.69,2.14,2.29a29.64,29.64,0,0,0,5-2.09c3-1.39,5.62-1.34,8.08,1.36,1.8,2,4.08,3.55,7,6,0-4,.43-6.77-.12-9.37-.61-2.94.13-4.69,2.54-6.28s4.47-3.46,7.35-5.73l-8.55-2.76C102.75,442.8,102,441.7,102.24,439.35Z"/><path class="cls-10" d="M141.83,475.42c-5.34-.18-5.75-.53-7.08-5.67-.53-2-1.15-4-2-6.81a37,37,0,0,0-2.37,3.37c-1,1.91-1.88,3.88-2.78,5.83-1.11,2.41-2.72,3.35-5.55,2.92-2.49-.38-5.12.12-8.48.26.83,1.63.94,2.19,1.28,2.46,5.2,4.11,6.13,9.08,3.11,14.89a4.3,4.3,0,0,0-.3.94c-.68,2.74.52,4.28,3.26,3.58a17.41,17.41,0,0,0,5.61-3c2.48-1.8,4.69-2.1,7.23-.14a19.87,19.87,0,0,0,5.15,3,3.61,3.61,0,0,0,3.1-.7c.4-.37,0-2.05-.46-2.87-3.49-5.93-3.15-7.58,2.68-11.76a3.71,3.71,0,0,0,1.14-1c.73-1.36,1.36-2.78,2-4.18-1.37-.39-2.73-.81-4.11-1.15A8.2,8.2,0,0,0,141.83,475.42Z"/><path class="cls-11" d="M36,333.77c.46,3,1.08,6.12,3.21,8.68.6-.39,1.18-.56,1.38-.93,1-1.9,2-3.83,2.83-5.81,1.93-4.43,2.05-4.33,7-4.11,2.65.12,6.43,1.61,7.61-1.45.58-1.49-2-4.55-3.62-6.44-2-2.25-2.22-4.29-.77-6.74A22.39,22.39,0,0,0,56,312.64a3.41,3.41,0,0,0-.66-3c-.53-.47-2-.17-3,.19-1.2.48-2.18,1.47-3.34,2-5.65,2.76-6.37,2.61-10.88-1.71-1.24-1.19-2.56-2.3-4.18-3.74-1.83,3.34-1.44,6.24-.82,8.83.74,3-.22,4.76-2.74,6.07-2.06,1.07-4.14,2.1-6.14,3.27A28.83,28.83,0,0,0,21,327.34c3.89.64,6.76,1.21,9.64,1.56S35.44,330.5,36,333.77Z"/><path class="cls-12" d="M55.86,381c1.89-6.42,1.92-6.38,8.42-6.9a31.64,31.64,0,0,0,5.32-1.34l.43-1.4a36.23,36.23,0,0,0-5-4c-3.5-1.91-3.89-4.48-2.68-7.93a39.6,39.6,0,0,0,1.18-6.08l-1.28-.9a79.24,79.24,0,0,0-7.14,4.06c-1.67,1.18-2.9,1.89-4.75.32a27.25,27.25,0,0,0-5.05-3.15c-.94-.5-2.32-1.15-3-.79s-1.33,1.82-1.45,2.85a7.49,7.49,0,0,0,.63,3.39c2,5.29,0,8.87-4.56,11.63A29.29,29.29,0,0,0,33,374.13l.39,1.25c2.55.33,5.2,1.27,7.62.86,4.77-.82,6.55,1.73,8,5.44.78,2,1.95,3.82,3.22,6.27a21.49,21.49,0,0,0,2-2.75A32.64,32.64,0,0,0,55.86,381Z"/><path class="cls-13" d="M535.25,208.65a5.85,5.85,0,0,0-.52,1.89c-1.63,5.58-2.61,6.22-8.3,6.44-2.34.09-5-.95-7,1.15.07.45,0,.87.2,1.07a11,11,0,0,0,2.46,2.41c5.33,2.88,7.31,6.68,4,12.39-.47.82,0,2.17,0,3.28a20.81,20.81,0,0,0,3.16-.51,10.34,10.34,0,0,0,2.62-1.4c3.14-2.16,6-2.15,9,.47a47,47,0,0,0,5.47,3.67l1-.66c-.23-1.73-.37-3.48-.72-5.19-1.23-6.08-1.2-6.11,4-9.74,1.77-1.23,3.37-2.7,5.05-4.07-.16-.39-.31-.78-.46-1.17-3.25-.42-6.48-1-9.73-1.2-2.17-.13-3.34-.92-3.93-3a43.56,43.56,0,0,0-2.23-6.06,9.1,9.1,0,0,0-1.85-2.1A21.69,21.69,0,0,0,535.25,208.65Z"/><path class="cls-14" d="M506.51,177.5a10.35,10.35,0,0,0-2.57,2,19.3,19.3,0,0,0,2.17,2.42,11.83,11.83,0,0,0,2.24,1.05c4.92,2.52,5.12,2.92,4.09,8.38-.18,1-.44,1.93-.79,3.45.17.4.31,1.68,1,2a3.41,3.41,0,0,0,2.69-.48,33,33,0,0,0,3.51-2.79c2.75-2.2,5.58-2.77,8.64-.55a15.26,15.26,0,0,0,3.46,2c2.12.83,3.34-.12,2.83-2.33a25.33,25.33,0,0,0-2.23-6c-1.14-2.15-.87-3.65,1-5.2a37.4,37.4,0,0,0,4.54-4.62c1.59-1.88,1.12-3.1-1.27-3.25a45.77,45.77,0,0,0-6,.24c-2.93.22-5.17-.72-6.57-3.44a58.58,58.58,0,0,0-3.29-5.57c-.39-.59-1.33-1.36-1.8-1.23a2.52,2.52,0,0,0-1.35,1.79,38.16,38.16,0,0,0-.45,5.45c-.06,3.06-1.3,5.06-4.5,5.58A31.59,31.59,0,0,0,506.51,177.5Z"/><path class="cls-15" d="M480.77,145c2.12.76,4.23,1.56,6.37,2.27,2.88,1,4.45,2.67,4,5.9a17.66,17.66,0,0,0,0,4c.22,2.47,1.28,3,3.13,1.44a35.31,35.31,0,0,0,4.55-4.6,4.19,4.19,0,0,1,5.68-1.26,24.8,24.8,0,0,0,5.17,1.75c2.51.56,3.51-.65,2.48-3a18.38,18.38,0,0,0-2.57-4.25c-2.24-2.67-1.83-5.13.18-7.62a20.76,20.76,0,0,0,2.47-3.12,17.32,17.32,0,0,0,1-3.57,15.45,15.45,0,0,0-3.67-.4,34.29,34.29,0,0,0-4.78,1.32c-4.69,1.34-4.61,1.27-7.66-2.45-1.45-1.77-2.43-4.38-6.07-4.28a72.09,72.09,0,0,0,.05,7.52c.38,3.36-.88,5.28-4.1,6.32a60.19,60.19,0,0,0-6.41,2.89Z"/><path class="cls-16" d="M464.35,124.65c-.06,2.11,2.07,2.48,3.49.81a5.45,5.45,0,0,0,1.25-2.13c1.22-5.19,4.85-6,9.45-5.56,1.8.17,3.68-.42,5.51-.66a31.57,31.57,0,0,0-3.17-4.58c-3.26-3.34-3.54-4.41-1.73-8.78.86-2.06,1.59-4.17,2.38-6.26l-.82-.77-6,2.8c-3.25,1.5-6.14,1.8-9-1.21-1.55-1.63-3.36-3.8-6.81-3a61.48,61.48,0,0,0,.58,6.29c.95,5,1,4.92-3.35,7.75-1.84,1.2-4.29,1.91-4.63,4.72.58.35,1,.79,1.39.81C459.17,115.24,464.59,116.35,464.35,124.65Z"/><path class="cls-17" d="M205,49.87c6.32,1.88,6.7,2.37,6.83,8.9,0,2,.34,4,.52,6.07l1.14.38c1.1-1.12,2.56-2.06,3.23-3.39,2.62-5.18,6.24-6.28,11.34-3.58,1.08.57,2.62.26,4.94.44-1.62-2.88-2.69-4.69-3.67-6.56-1.39-2.64-1.85-5.15.52-7.68,1.52-1.63,2.58-3.68,4.59-6.64-3,.36-4.9.45-6.7.8-4.64.9-6.16.29-8.81-3.57-1.24-1.8-2.62-3.5-3.94-5.25l-1.45.34a62.74,62.74,0,0,0-1.08,8.57c0,2.91-1.31,4.15-3.83,4.93s-5.12,1.87-7.67,2.82c.05.54.09,1.07.14,1.61A28.6,28.6,0,0,0,205,49.87Z"/><path class="cls-18" d="M296.58,50c-.34.54-.27,2,0,2.14a3.79,3.79,0,0,0,2.68.16,42.39,42.39,0,0,0,4.16-2.72c3.53-2.23,4.33-2.13,7.4.51,1.55,1.34,3.18,2.59,4.77,3.87l1.06-.52c0-2.41.53-5-.11-7.19-1.15-4,.71-5.9,3.8-7.53,2.13-1.12,4.17-2.41,6.91-4-1.63-.87-2.39-1.51-3.25-1.68-1.78-.35-3.62-.41-5.42-.67-4.43-.67-4.83-1-5.81-5.39a41.19,41.19,0,0,0-1.14-4.82c-.71-2-2.53-2.32-3.78-.62a15.29,15.29,0,0,0-1.67,3.59c-2.09,5.41-2.6,5.81-8.29,5.94-2.13.05-4.29-.08-5.71,1.89.22.48.26.91.49,1C299.43,38,300.88,43.28,296.58,50Z"/><path class="cls-19" d="M247.48,37.13q2,1.45,4.07,2.85c3.48,2.34,3.95,3.39,3.15,7.45a54.34,54.34,0,0,0-1.2,5.83c-.18,2.18,1.33,3,3.15,1.73a44.81,44.81,0,0,0,4.5-3.89c2.05-1.88,4.12-2.48,6.68-.84a63.19,63.19,0,0,0,6.14,3c-.49-4.68-2-8.66-1-11.89s4.47-5.82,7-8.84c-2.31-2-4.6-.63-6.8-.67-1.66,0-3.75-.24-4.86-1.23-1.52-1.36-2.23-3.59-3.4-5.37-1-1.55-2.2-3-3.31-4.5-.87,1.64-1.76,3.26-2.57,4.92a8.12,8.12,0,0,0-.54,1.9,7.55,7.55,0,0,1-6.6,6.37c-1.71.3-3.38.85-5.54,1.4C247.12,36.59,247.23,37,247.48,37.13Z"/><path class="cls-20" d="M341.53,49.3A15,15,0,0,0,340,52.4c-.59,1.88-3.54,3.8-1.14,5.58,1,.75,3.9-.57,5.72-1.4,3.93-1.8,4.43-1.76,7.51.85,1.89,1.6,3.08,5.61,6,4,1.47-.84,1.66-4.78,1.57-7.29-.11-3.1,1.1-4.51,3.84-5.44,2.58-.87,5-2.15,7.67-3.33-.65-1.1-.8-1.64-1.15-1.88a5.41,5.41,0,0,0-2.21-1.1c-6.87-.77-9.67-4.39-8.94-11.35.3-2.88-2.46-3.84-4.79-1.87a11.1,11.1,0,0,0-3.18,3.77c-1.51,3.49-3.88,4-7.29,3.26-2-.43-4.1-.08-7.47-.08,2.08,2.93,3.38,4.94,4.87,6.8C342.6,44.94,342.89,47,341.53,49.3Z"/><path class="cls-21" d="M382.07,71.06c7.44-1.94,7.53-1.94,11.61,4.42a9.45,9.45,0,0,0,.86,1.21c1.73,1.9,2.86,1.62,3.76-.93A19.06,19.06,0,0,0,399.43,72c.45-3.76,2.73-5.33,6.24-6,2.5-.46,4.92-1.41,8.12-2.36a17.87,17.87,0,0,0-1.9-2c-5.26-3-10.36-6.16-7.37-13.64a1.34,1.34,0,0,0,0-.49c-.09-3.05-1.87-4.12-4.38-2.46a45.39,45.39,0,0,0-5.81,4.54c-1.5,1.39-2.93,2.08-4.91,1.23-1.22-.52-2.5-.92-3.75-1.34-4.33-1.45-5.51-.44-4.62,4a4.89,4.89,0,0,0,1,2.19c2,2.31,1.62,4.48-.05,6.77a27.37,27.37,0,0,0-2.83,4.65,18.64,18.64,0,0,0-.87,4A15.89,15.89,0,0,0,382.07,71.06Z"/><path class="cls-22" d="M420.06,91.71a26.51,26.51,0,0,0,4,0c4.19,0,4.76.36,6.08,4.32.72,2.16,1.32,4.36,2,6.55l1.44.16a74.25,74.25,0,0,0,3.06-7.56c1-3.46,3-4.78,6.58-4.52,2.66.19,5.6.59,7.78-2a28.26,28.26,0,0,0-3.43-3.1c-4-2.54-4.11-6.08-2.92-10.07a30.67,30.67,0,0,0,1-3.84c.43-2.62-.83-3.87-3.33-3.1A11.65,11.65,0,0,0,438,70.9c-3.07,2.78-6.13,3.83-9.7.95a11.27,11.27,0,0,0-1.77-.89c-1.8-1-3.89-2-5.32-.07-.46.65.85,2.83,1.66,4.11,2.5,3.92,2.21,6.56-1.31,9.55a26,26,0,0,0-3.37,2.87c-.66.82-1.31,2.23-1,3S419,91.57,420.06,91.71Z"/><path class="cls-23" d="M220,271c1-1.31,1.45-3.08,2.16-4.63l-1.16-.87c-7.08,3.6-11.34,10.7-17.66,15.28s-11.49,10.36-18.52,13.92a37.88,37.88,0,0,1,2.49-5.52,41.28,41.28,0,0,0,3.15-8.33c.61-3.05.52-6.58-2.13-8.7-2.46-2-5.72-1.78-8.53-.35a16.7,16.7,0,0,0-5.18,3.77c-4.83,5.67-9.46,11.51-14.07,17.36a16.39,16.39,0,0,0-1.61,3.61l1.29.68c.86-1.27,1.68-2.59,2.61-3.81,3.62-4.73,7.08-9.6,11-14.06,1.93-2.18,4.72-3.63,7.22-5.24a2.66,2.66,0,0,1,2.2.32c.28.16.32,1.29.06,1.76-.79,1.45-1.78,2.8-2.67,4.2-2.75,4.34-4.34,9-3.2,14.16.84,3.79,3,5.06,6.64,3.73a61.53,61.53,0,0,0,8.84-4.46c1.84-1,3.53-2.3,5.41-3.55,1.62,2.82-.17,4.48-1,6.35-3,6.81-6,13.6-8.94,20.46-4.57,10.86-8.59,22-13.64,32.58-5.38,11.35-18.5,14.85-29.13,8.35-1.52-.94-3.46-3-3.34-4.33.12-1.51,2.23-3.07,3.78-4.17s3.38-1.4,5-2.27a9,9,0,0,0,4-10.71c-1.18-3.93-3.17-5-8-5.2-4-.13-6.36,1.67-7.63,5.13a38.89,38.89,0,0,0-2.15,7.63c-1.79,12.05,3.36,18.49,14.3,21.41,10,2.68,19.12.08,27.1-6.25,9.52-7.53,16-17.44,20-28.7s6.88-22.77,10.27-34.18C211.57,287.45,214.08,278.51,220,271Z"/><path class="cls-24" d="M178.79,499.23c-4.86.71-6.16,0-8.45-4.7a6.63,6.63,0,0,0-1-1.74,31.27,31.27,0,0,0-2.58-2.12,17.53,17.53,0,0,0-1.85,2.59,20,20,0,0,0-1.48,4.22c-.62,2.87-2.33,4-5.21,4.4a98.82,98.82,0,0,0-9.67,2.24c2.91,2.58,4.86,5,7.36,6.36s2.37,2.87,2,4.91c-.25,1.47-.47,3-.86,4.39-.62,2.3.09,3.87,2.51,4.9,2.12-1.33,4.77-2.35,6.5-4.22,2.7-2.92,5.3-2.89,8.41-1.17a18.47,18.47,0,0,0,2.28,1c3.14,1.21,4.28.47,4.09-2.9a7.79,7.79,0,0,0-1.17-3.69c-1.43-2.21-.77-4.1.47-6,.64-1,1.67-1.74,2.07-2.77.8-2,4.33-3.39,2.42-5.8C184,498.19,180.8,498.94,178.79,499.23Z"/><path class="cls-25" d="M515.21,444.88c-4.9-4.27-4.3-8.68-.78-13.42,1.15-1.55,1.54-3.55,0-5-1.88-1.75-2.85.4-4.08,1.33-4.1,3.1-7.08,2.79-10.25-1.24-1.62-2.07-2.91-4.48-6.08-4.33a55.57,55.57,0,0,0-.9,7.1c0,4.24-.43,5-4.68,6.35-2.14.68-4.28,1.34-6.42,2,0,.53-.05,1.05-.08,1.58,2.41,1,4.75,2.15,7.23,2.88,3.8,1.1,5.41,3.27,5,7.3-.22,2.3-.83,5.05,2.05,6.81a7.68,7.68,0,0,0,1.89-1.52c3.41-5.4,8.17-5.55,13.52-3.6a8.76,8.76,0,0,0,1.44.4c2.79.5,4.19-.78,3.59-3.49A6,6,0,0,0,515.21,444.88Z"/><path class="cls-26" d="M535.61,400.08c-1.82-1.77-2.36-3.48-1.31-5.76a10.47,10.47,0,0,0,1-2.81c.22-1.55.85-3.93.14-4.49-1-.83-3.13-.55-4.74-.39-.9.09-1.7,1.2-2.61,1.29a15.48,15.48,0,0,1-5.13-.19c-1.22-.3-2.17-1.64-3.39-2-2-.62-3.52-4.32-5.85-1.94-.9.93.09,3.91.53,5.89,1,4.63.27,6.27-4,8.88-1.6,1-2.91,2.4-5.19,4.33,2.81.76,4.48,1.38,6.2,1.65,4.46.69,7.08,3,7.7,7.64a46.44,46.44,0,0,0,2,6.89l1.35-.08c.6-.94,1.19-1.89,1.78-2.84,2.74-4.41,5.41-8.92,11.89-6a3.09,3.09,0,0,0,1.49.06c3-.27,4-2,2.35-4.6A27.5,27.5,0,0,0,535.61,400.08Z"/><path class="cls-27" d="M285.71,283.84c-.4-3.94-1.36-4.86-5.22-5.12-5.62-.37-9.54,4.74-8.49,11.09.94,5.77,5.84,7.78,10.62,4.38,2.76-2,3.31-4.77,3.11-7.87A22.78,22.78,0,0,0,285.71,283.84Z"/><path class="cls-28" d="M442.53,312.54a29.87,29.87,0,0,0-20.89,6.71c-11.12,8.93-19,20.79-27,32.42-2.82,4.1-5.63,8-11,10.78.13-2.41-.08-4.23.38-5.86a93.11,93.11,0,0,1,3.34-9.32c4.27-10.46,8.49-20.93,13-31.3,2.83-6.54,6.14-12.86,9.09-19.36,1.14-2.53,3-3.35,5.55-3.26a29.44,29.44,0,0,0,5.48-.22c.79-.13,1.44-1.08,2.15-1.65-.66-.59-1.25-1.5-2-1.7a26,26,0,0,0-4-.24c-3.17-.3-3.3-.67-2-3.68,2.06-4.7,4.14-9.39,5.94-14.18,1-2.6-.07-3.75-2.84-3.61a49.63,49.63,0,0,0-7.43.76,5,5,0,0,0-3.05,2.15c-4.92,9-9.65,18.15-14.48,27.22-4.14,7.77-8.2,15.57-12.56,23.21-3.6,6.31-7.44,12.51-11.47,18.56s-8.39,11.95-12.79,17.77c-.71.93-2.43,1.11-3.68,1.63-.49-1.33-1.35-2.67-1.36-4a10.61,10.61,0,0,1,1.26-4.26c2.16-4.66,4.44-9.27,6.66-13.9,2.95-6.13,6-12.22,8.81-18.42,2.33-5.17,1.57-6.22-3.91-6.16-2.16,0-4.51-.38-6.44.33s-3.55,2.56-5.41,4a8.69,8.69,0,0,1-1.54-1.29c-2.55-3.44-5.83-4.24-10.08-3.83-6.57.64-11.59,3.79-16,8.22-9.6,9.54-16.85,20.9-24.39,32a25.91,25.91,0,0,1-8.92,8.25c-.57.32-1.72.44-2.08.09a2.59,2.59,0,0,1-.41-2.14,30.41,30.41,0,0,1,1.55-4.73c2.64-6.26,5.14-12.58,8-18.72,7.67-16.2,15.56-32.3,23.3-48.48,3.22-6.74,6.4-13.5,9.3-20.38,1.37-3.23.52-4.21-2.94-4.35-2.16-.09-4.33,0-6.49.08a5.6,5.6,0,0,0-5.11,3.38c-3.2,6.57-6.44,13.12-9.8,19.61-4.81,9.29-9.47,18.67-14.68,27.73-4.13,7.18-9.74,13.57-13.37,21-5.1,10.41-13.38,18.11-20.57,26.76-.57.68-2,.69-3,1a15,15,0,0,1-.28-2.72,7.37,7.37,0,0,1,.78-2.36q7.5-16,15.05-32c1.28-2.7,2.88-5.26,4-8,1.37-3.24.57-4.37-2.89-4.23-2.81.11-5.61.77-8.42.76a7.06,7.06,0,0,0-6.54,3.73c-4.71,7.63-9.26,15.37-14.35,22.75-4,5.86-8.7,11.28-13.22,16.8-.61.73-2.42,1.47-2.88,1.13a4.65,4.65,0,0,1-1.87-3.22c.12-4.81-.07-9.77,1.08-14.37,2.05-8.2.7-15.75-2.7-23.11-1.26-2.74-.67-4.14,1.74-5.7a35.19,35.19,0,0,0,12.09-12.37c3.78-6.8,7.49-13.65,10.88-20.65,3.74-7.71,8.35-14.34,17.07-17,.69-.22,1.24-.91,2.77-2.09-2.16-.36-3.47-1-4.5-.66a29.26,29.26,0,0,0-7.33,3c-11.5,7.22-19.39,17.25-24.29,30-2.27,5.92-6.41,11.12-9.69,16.65-1.45,2.44-3.56,2.52-6.06,2a8.7,8.7,0,0,0-4.77,0,4.32,4.32,0,0,0-2.26,3.27c0,1.77,1.5,2.71,3.52,2.65,4.94-.14,5.14.07,4.86,4.9a16.4,16.4,0,0,1-.91,4.87q-2.28,6-4.94,11.92c-2.52,5.56-2.49,11.59-3.58,17.42-1.27,6.8,4.23,12.77,11.06,11.59a21.42,21.42,0,0,0,11.06-5.39,68.34,68.34,0,0,0,13.21-16.76c1.42-2.5,3.21-4.79,4.83-7.18l.91.5a14.31,14.31,0,0,1-.26,1.74c-1.27,5-2.82,9.86-3.77,14.87a13,13,0,0,0,2.38,9.93c1.59,2.27,3.7,3.63,6.4,2.44,3-1.31,6.3-2.54,8.56-4.74,5.46-5.33,10.5-11.09,14.1-17.94,1.58-3,3.45-5.83,5.19-8.74l1.36.52c-.39,1.94-.79,3.88-1.17,5.83-1,5-2.38,10-2.8,15.08-.34,4.1,1.22,8.08,5.33,9.95,4.44,2,8.64.88,11.8-2.69,3.51-4,6.68-8.24,9.91-12.44,1.35-1.75,2.49-3.65,3.72-5.48l1.23.47a30.93,30.93,0,0,0,0,4.72,51.79,51.79,0,0,0,2,9.65c1.55,4.25,4.64,6.53,9.59,6.39s8-2.87,11.2-5.79c1.65-1.51,3.14-3.18,5.14-5.22a24.24,24.24,0,0,1,1.08,3c1.55,8,7.29,10.67,14.33,6.8,5.18-2.85,8.12-7.79,11.33-12.36s5.81-9.64,8.74-14.45c.28-.47,1-.69,2.49-1.7-.9,3.16-1.24,5.41-2.16,7.4-2.09,4.48-2,9-.82,13.61,1.06,4,2.57,7.92,6.75,9.25,4.68,1.49,8.25-1.51,11.61-4.33a8.72,8.72,0,0,0,1.2-1.59c3-4.17,6-8.35,9.1-12.48a7.47,7.47,0,0,1,1.91-1.33,19.6,19.6,0,0,1,1.41,2.36c.17.4-.12,1-.06,1.47.77,5.88,2.33,11.25,8.18,14.33,5.3,2.79,10.8,2.87,15.78.14A128.5,128.5,0,0,0,445,355a9.83,9.83,0,0,0,2.93-11c-1.38,1.49-2.67,2.69-3.73,4.06a55.28,55.28,0,0,1-19.29,15.42c-3.27,1.65-5.66.16-5.71-3.44,0-2,.4-4,.55-5.94.28-3.44,2.1-5,5.47-6.06,5.66-1.77,11.24-3.82,16.23-7.39,6.12-4.36,8.67-10.4,9.28-17.39C451.2,317.46,447.48,312.85,442.53,312.54Zm-93.37,10.51A45.57,45.57,0,0,1,341,342.69c-3.92,5.54-8.77,10.41-13.24,15.55a8.32,8.32,0,0,1-1.85,1.66c-1.54,1-2.92.85-3.49-1.12-.45-1.59-.7-3.24-1-4.85a31.64,31.64,0,0,1,1-5.43c4.09-10.76,9.22-21,16.8-29.78,1.68-1.94,3.5-3.76,6.3-2.73C348,316.9,349.62,320,349.16,323.05Zm88.29,10.38c-3.26,3.47-7.2,6.33-10.93,9.34a25.32,25.32,0,0,1-3.86,2.15l-1.05-1c1.85-4.15,3.15-8.68,5.68-12.35C430.67,326.7,435,322.44,439,318c.65-.71,2.31-1.33,2.95-1s1.2,1.92,1.22,3C443.28,325.31,440.88,329.78,437.45,333.43Z"/><path class="cls-29" d="M550.55,254.86c0-1-.82-2-1.65-3.89-1.59,2.13-2.8,3.6-3.85,5.18-3,4.46-3.13,4.55-8.56,3.56a35.65,35.65,0,0,0-5.37-.91c-2-.06-2.75,1.21-1.65,2.94a27.32,27.32,0,0,0,3.23,3.76c2.49,2.67,3.61,5.39,1.11,8.77-1,1.32-1.41,3-2.36,5.17,4.67-.45,8.65-1.86,11.87-.86s5.84,4.44,8.87,6.94c2.08-2.11,1.15-4.36,1-6.59-.12-1.67-.21-4,.75-4.95,1.64-1.68,4.12-2.57,6.23-3.8,1.48-.85,2.94-1.73,5.36-3.15-2.4-1.22-3.73-2.37-5.18-2.56C554.53,263.74,550.9,261.1,550.55,254.86Z"/><path class="cls-30" d="M552.43,356.64c-4-1.74-4.71-4.55-3.68-8.47.43-1.64.07-3.49.07-6.38a47.43,47.43,0,0,0-5.63,3.57c-2.85,2.46-5.68,3.35-9,.85a5.71,5.71,0,0,0-1.8-.84c-1.92-.6-3.8-3.34-5.76-1.24-1.81,1.93.46,4,1.36,5.77,2,4,1.91,4.56-1,7.86-1.54,1.76-5.26,3.09-3.71,5.61,1,1.54,4.81,2.07,7.2,1.77,3.67-.46,4.63,1.41,5.64,4.12.95,2.54,1.31,5.51,4.34,7.29.65-1.1,1.59-2,1.72-3,.9-6.95,4.44-10,11.69-9.19,2.83.33,3.79-2.52,1.84-4.81A10.35,10.35,0,0,0,552.43,356.64Z"/><path class="cls-31" d="M582.9,263.14c-.42-10.67-2.4-21.08-4.7-31.43a282.67,282.67,0,0,0-14.85-47c-5.42-13.05-11.33-25.81-18.7-37.87-6.41-10.48-12.56-21.11-20.67-30.47-5.43-6.27-10.21-13.11-15.73-19.3-7.18-8.06-14.63-15.9-23.48-22.26-6.87-4.94-13.67-10-20.48-15-7.35-5.42-14.28-11.56-22.1-16.18C427.92,35.19,413.62,26.79,398,20.87a328.85,328.85,0,0,0-37-11.75C338.26,3.51,315.4-.37,292,.16c-5.33,0-10.71-.41-16,.08A390.71,390.71,0,0,0,226.29,8a241.46,241.46,0,0,0-52.55,18.52C156.85,34.78,140.49,44,125.35,55.3c-10.81,8-21.57,16.18-31,25.82-9.88,10.09-19.3,20.63-29,30.93-6,6.44-10.94,13.67-15.75,21a306.58,306.58,0,0,0-22.09,40.14c-4.34,9.5-8.41,19.14-12,28.93-2.71,7.28-4.57,14.88-6.75,22.35A99.62,99.62,0,0,0,5.9,235c-1.73,9.79-4.22,19.45-4.33,29.53C1.5,272,.14,279.31,0,286.7c-.13,7.77.54,15.56.83,23.34.26,6.77-.07,13.62.83,20.3a295.19,295.19,0,0,0,18.8,70.14,274.86,274.86,0,0,0,33.46,61c9,12.21,18.08,24.14,28.79,34.87,9.4,9.41,18.7,18.89,29.71,26.5,9.81,6.78,19.25,14.14,29.42,20.32,11.06,6.72,22.29,13.28,34.54,17.8,5.74,2.11,11.31,4.71,17.09,6.72,8.15,2.85,16.28,6,24.69,7.85,13.27,2.88,26.73,4.93,40.17,7,7.55,1.16,15.21,1.78,22.84,2.38,15.63,1.23,31.25.36,46.8-1.3A171.59,171.59,0,0,0,349.12,580c12.13-2.86,24.22-6,36.16-9.49,9.35-2.76,18.56-6.09,27.65-9.62,5.54-2.16,10.7-5.27,16.11-7.8a203.63,203.63,0,0,0,45.31-29.56c3-2.58,6.39-4.78,9.35-7.43,8-7.2,15.93-14.51,22.88-22.85,8.72-10.46,18-20.48,26.75-30.89,2.54-3,4.21-6.73,6.33-10.08,3.91-6.17,8.4-12,11.67-18.52C558,420.45,564.51,407,569,392.66c4.29-13.79,8.56-27.55,11.24-41.79a262.72,262.72,0,0,0,4.4-37c.4-8.93.4-17.91.09-26.85C584.43,279,583.2,271.1,582.9,263.14ZM570.49,364.57c-2.31,8.8-5.59,17.37-8.78,25.91-2.89,7.74-6,15.41-9.48,22.91-3.19,6.93-7.05,13.54-10.44,20.38-2.62,5.28-6.9,9.57-8.57,15.48-.71,2.53-3.13,4.6-4.89,6.79-3.38,4.23-6.86,8.38-10.24,12.61-1.24,1.56-2.18,3.35-3.47,4.85-3.78,4.36-7.56,8.74-11.55,12.91C499.66,490,495.94,493,493,497.15c-3.81,5.22-9,9.51-14,13.78-4,3.43-8.56,6.2-12.81,9.34a73.21,73.21,0,0,1-13.35,8.38c-6.85,3.11-13.07,7.62-19.57,11.49-3.95,2.35-7.85,4.78-11.91,6.91-6.64,3.48-13.3,7-20.16,10-3.55,1.57-7.53,2.18-11.32,3.18-2.54.66-5.17,1.06-7.65,1.91-5.29,1.83-10.38,4.84-15.8,5.55-5.08.66-9.45,2.74-14.16,4.09-3,.86-6.2.77-9.21,1.51-6.26,1.53-12.72,1.64-19,2.64-9.88,1.58-19.68,2.64-29.62,2.16-17.91-.86-35.92-.89-53.53-5-5.16-1.2-10.18-3-15.33-4.24-2.53-.63-5.26-.48-7.8-1.1a95,95,0,0,1-11.47-3.4c-9.15-3.49-18.34-7-27.29-10.93a263.21,263.21,0,0,1-23.57-11.82c-7.91-4.53-15.51-9.62-23.05-14.75-6.83-4.65-13.54-9.51-20-14.63-3.72-2.94-6.83-6.64-10.34-9.87-2.66-2.47-5.58-4.66-8.25-7.12-1.69-1.56-3.14-3.38-4.69-5.1-.22-.24-.29-.69-.55-.82-5.12-2.7-7.52-8.07-11.59-11.82-1.91-1.75-3.16-4.21-4.8-6.28-5.66-7.13-11.87-13.88-16.91-21.43S46.27,434,41.92,426c-2-3.63-3.45-7.58-5.77-11-5-7.36-8.08-15.62-11.17-23.84-2.91-7.74-5.52-15.61-7.86-23.54A251.16,251.16,0,0,1,8,322.81c-1.46-13.94-1.08-27.87,0-41.81.74-9.75,1.22-19.52,2.23-29.24a128,128,0,0,1,3.17-18.14,307.61,307.61,0,0,1,29.16-74.4c7.82-14.1,16.19-27.8,26.43-40.37,9.56-11.74,19.15-23.49,30.25-33.75,11.34-10.47,22.76-20.95,36.26-28.82,8-4.68,15.72-10,23.72-14.69,17.13-10.15,35.59-17.24,54.6-22.9,15.31-4.56,30.75-8.6,46.79-9.8,8.12-.61,16.22-1.5,26.93-2.51,8.74.58,20,1.1,31.28,2.13a257.2,257.2,0,0,1,49.44,9.58,311.5,311.5,0,0,1,36.07,13,312.84,312.84,0,0,1,32.59,17c8.74,5.1,16.9,11.19,25.27,16.9a242,242,0,0,1,38.46,33.18c7.19,7.54,13.45,16,19.91,24.23,17.22,21.89,29.93,46.35,39.67,72.27,5.66,15,9.54,30.68,12.63,46.53,3.26,16.68,4.19,33.55,5.4,50.41C580,316.38,576.77,340.68,570.49,364.57Z"/><path class="cls-32" d="M302.15,181.64c-6.3,2.92-8.68,9.39-5.85,13.89.43.7,1.46,1,2.22,1.5.26-.85,1-1.85.72-2.54-1.11-3.35-.15-6.14,1.69-8.9C301.49,184.74,301.57,183.57,302.15,181.64Z"/><path class="cls-33" d="M562.88,312.62a17.82,17.82,0,0,0-3.67-1.52c-4.7-1.8-5.32-2.7-5.48-7.68-.07-2.24.5-4.73-1.93-6.22-.4.12-.87.11-1,.31-4,6.66-9.14,8.6-16.07,4.31-.56-.35-2-.35-2.19-.05a3.57,3.57,0,0,0-.33,2.69,31.45,31.45,0,0,0,2.62,4.22c2.48,3.91,2.44,4.25-.57,7.75-1.25,1.45-2.45,2.94-3.67,4.41l.7,1.27c2.61,0,5.29.35,7.82-.08,3.24-.56,5.06.67,6.39,3.39a27.6,27.6,0,0,0,2.53,4.29,13.7,13.7,0,0,0,2.4,2.06,10.84,10.84,0,0,0,1.63-2.83,21.09,21.09,0,0,0,.58-5.42c-.08-2.88,1.4-4.28,4-4.89,1.94-.47,4-.73,5.82-1.38.95-.34,2.29-1.31,2.33-2.05S563.75,313.21,562.88,312.62Z"/><path class="cls-34" d="M496.66,357.63c3.88-11.18,6.12-22.77,8.1-34.42a158.55,158.55,0,0,0,1.71-39.27,263.18,263.18,0,0,0-7.65-45.61c-4.37-16.64-10.23-32.61-18.56-47.65A183.64,183.64,0,0,0,470.69,175c-5-7.23-9.85-14.69-15.76-21.14a358.63,358.63,0,0,0-26.07-25.36,165.44,165.44,0,0,0-21.34-16.34A234.93,234.93,0,0,0,370.31,93a217.71,217.71,0,0,0-58.37-14.63c-20.5-2.24-41-.61-61.15,3.3-16.21,3.14-31.64,8.89-46.73,15.56-13.78,6.08-25.74,15.09-37.95,23.63-16.61,11.61-30.57,26-42.89,42.09-16.26,21.2-28.4,44.49-35.6,70.25a198,198,0,0,0-7.57,57.2,168.38,168.38,0,0,0,3.21,34.05C86.82,343,91.68,361,100.53,377.8c3.17,6,6.38,12,9.87,17.88,5.53,9.25,10.77,18.75,18,26.84,6.31,7,12.8,14,19.59,20.54a191.56,191.56,0,0,0,18,15.65c11.42,8.6,23.41,16.37,36.74,21.87,7.07,2.91,14,6.08,21,9.16,14,6.17,29.14,7.73,44,10.19a124.22,124.22,0,0,0,17.89,1.26c14.45.28,28.94,1,43.28-1.82,9-1.75,18-3.09,26.93-5.14A85.59,85.59,0,0,0,371,489c7.59-3.36,15-7.11,22.46-10.82a184.11,184.11,0,0,0,26.94-16.05c13.18-9.67,24.82-21,35.92-32.93a107.58,107.58,0,0,0,10-12.33,263.08,263.08,0,0,0,23.46-42.15C492.28,369.08,494.65,363.41,496.66,357.63Zm-44.11,64.75c-6.74,8.55-14.42,16.5-23.88,22.39a32.49,32.49,0,0,0-6.87,5.77c-5.95,6.64-13.52,10.85-21.2,15-2.71,1.48-4.87,4-7.63,5.35-9.28,4.4-18.72,8.48-28.1,12.67a12.66,12.66,0,0,1-1.88.65c-4.11,1.11-8.23,2.22-12.35,3.3-6.55,1.7-13.11,3.37-19.67,5.06a8.23,8.23,0,0,1-1.46.3c-14.32.82-28.54,2.84-43,1.93-11.63-.74-23.34-.51-34.57-3.94-6-1.82-12.23-2.54-18-4.66a306.34,306.34,0,0,1-29.21-12.1,288.44,288.44,0,0,1-27.75-15.74c-5.58-3.54-10.31-8.38-15.6-12.41a163,163,0,0,1-34-34.71c-9.6-13.38-18.23-27.36-24-42.82-4.53-12.08-8.7-24.33-12.32-36.71-1.94-6.62-2.73-13.65-3.46-20.56-.78-7.42-.88-14.91-1.28-22.38a195.35,195.35,0,0,1,11.73-68,200.5,200.5,0,0,1,39.83-66.2,241.69,241.69,0,0,1,32.61-29.93A168.42,168.42,0,0,1,209.64,102c9.55-3.84,19.22-7.49,29.05-10.52,16.47-5.07,33.53-7.06,50.69-7.27a188.17,188.17,0,0,1,48.86,5.66c11.16,2.83,22.28,5.69,32.75,10.38,9,4,18.36,7.5,26.24,13.9,4.18,3.41,9.45,5.45,13.91,8.57,9,6.27,17.67,13,25.05,21.2,8.55,9.5,17.24,18.89,25.3,28.8,10.68,13.13,17.85,28.31,24.44,43.8a165,165,0,0,1,11.76,44.65c2,16.58,4,33.35,1.46,50.14-1.64,10.66-2.83,21.43-5.22,31.92-2.28,10-6.06,19.54-10.24,29C475.64,390.49,464.76,406.87,452.55,422.38Z"/><path class="cls-35" d="M306.43,531.24a21.28,21.28,0,0,0,1.21-3.78,45.74,45.74,0,0,0,.05-5.45c-1.68.75-2.63.88-3.12,1.43-4.38,4.87-8.94,6.28-14.5,1.6-1.7-1.43-3.11-.27-2.83,2a10.59,10.59,0,0,0,.74,2.36c1.83,4.84-.05,8.28-4,11-1.3.91-2.42,2.08-4.11,3.55a12,12,0,0,0,2.27,1.12,22.78,22.78,0,0,0,3,.12c6.43-.06,7.2.47,9.44,6.3.78,2,.33,5.42,3.41,5.24,2.83-.16,2.55-3.41,3.25-5.54,1.19-3.64,2.9-6.61,7.47-6.61,1.69,0,3.38-.73,6.24-1.39-2.68-2.22-4.35-3.75-6.18-5.07A5.6,5.6,0,0,1,306.43,531.24Z"/><path class="cls-36" d="M350.21,523.86a38.59,38.59,0,0,0,.29-5.46c-.17-2.29-1.59-2.79-3.32-1.22a35.48,35.48,0,0,0-3.37,3.66c-3.09,3.71-3.52,3.79-7.9,1.87-1.87-.81-3.7-2.43-6.35-.57.75,1.79,1.4,3.63,2.28,5.35,1.59,3.1,1.94,5.81-1.11,8.42-1.63,1.4-2.71,3.44-4.56,5.89,2.87,0,4.67.17,6.42,0,5.3-.62,6.48,0,9.21,4.69,1,1.75,1.47,4.09,4.56,4.57a82.43,82.43,0,0,0,2.19-9.2c.3-2.49,1.52-3.33,3.71-3.87,2.65-.65,5.21-1.68,7.81-2.54.06-.46.12-.92.17-1.37a51.69,51.69,0,0,0-4.9-2.41C351.2,530.11,349.91,528.25,350.21,523.86Z"/><path class="cls-37" d="M397.73,516.26c-4.38-.7-5.3-1.41-6.17-5.74a30.66,30.66,0,0,0-.59-3.91,23.86,23.86,0,0,0-2-3.64,25.71,25.71,0,0,0-2.72,2.59,38.26,38.26,0,0,0-2.74,4.12c-1.23,2.05-2.75,2.57-5,1.48a16.59,16.59,0,0,0-4.75-1.36,3.51,3.51,0,0,0-2.56.77c-.35.31-.16,1.58.18,2.21a43.61,43.61,0,0,0,2.5,3.7c2.7,4,2.7,5.49,0,9.45a27.09,27.09,0,0,0-2.23,3.28c-.78,1.68.23,3.09,2.06,2.76a23,23,0,0,0,5.7-1.75c2.66-1.27,4.53-1.12,6.29,1.58,1.41,2.15,3.47,3.89,5.23,5.81l1.46-.32a28.25,28.25,0,0,0,.54-5.6c-.5-4.93,1.22-8.17,6-10.14,1.69-.69,5.06-.73,4.43-3.54C403.13,517,399.73,516.58,397.73,516.26Z"/><path class="cls-38" d="M262.32,531.65a47.15,47.15,0,0,0,2.35-5.47,14.85,14.85,0,0,0,.44-3.09,16.77,16.77,0,0,0-3.57.31A12.24,12.24,0,0,0,259,525c-4.52,2.64-4.89,2.57-8.52-1-1.34-1.33-2.82-2.53-5.2-4.65-.26,3.52-.75,5.78-.51,8,.5,4.35-1.28,6.88-5.3,8.3a45.47,45.47,0,0,0-5.53,2.79c0,.39,0,.79,0,1.19a21.14,21.14,0,0,0,4.21,1.54c9.24,1.33,8.33,1.8,9.5,9.2a29.75,29.75,0,0,0,1.47,4.57c3-2.08,3-2.08,5-5.93,2.38-4.78,2.84-4.93,8.08-4.56a35.37,35.37,0,0,0,6-.58l.87-2.15c-1.83-1.41-3.7-2.78-5.5-4.25A4.22,4.22,0,0,1,262.32,531.65Z"/><path class="cls-39" d="M285.52,238.4c9.71-1.8,14.73-12.17,14.06-20.26-.35-4.21-2.84-7.22-6.18-7.41-4.73-.26-7.64,1.1-9.55,4.79a20,20,0,0,0-2,11.49,12.47,12.47,0,0,0,1.36,3.28,17,17,0,0,0,2.34-2.71c.37-.66,0-1.71.28-2.44a43.93,43.93,0,0,1,3.69-8,5.85,5.85,0,0,1,4.49-2.28c2.22.19,2.62,2.5,3,4.58,1.36,7.55-7.73,17.16-16.35,16.18a7.23,7.23,0,0,1-6.56-6.49,27.45,27.45,0,0,1,8.7-24.29c1.58-1.52,3.2-2,5.38-.85a13.56,13.56,0,0,0,5.66,1.7,4.22,4.22,0,0,0,3.35-2.09c.4-1-.29-2.79-1.1-3.74a5.74,5.74,0,0,0-3.52-1.66c-3.45-.37-4.09-2.68-3.69-5.32.84-5.51,2.44-10.62,7.95-13.55,4.08-2.17,6.94-1.27,8.5,3.13,2.3,6.49,1.67,8.82-3.6,13.41-.22.18-.25.56-.65,1.55,3.36.64,5.2-1.09,6.26-3.35,2.41-5.16,3.13-10.54-.22-15.59-1-1.55-2.79-3.42-4.41-3.63-5.57-.74-11.27-1.36-16.39,2.12a15.05,15.05,0,0,0-6,17c1.5,4.65,1.54,5-3.13,7.19-8.81,4.21-12.55,11-12.46,20.74A17.48,17.48,0,0,0,285.52,238.4Z"/><path class="cls-40" d="M428.13,487.93c-.59-1.89-1.33-3.74-2-5.61l-1.14.11c-.9,2.09-1.84,4.16-2.69,6.27-1.07,2.63-2.79,3.68-5.79,3.56-2.09-.09-5.24-1.87-6.16.77-.45,1.27,2.23,3.64,3.52,5.5a3.4,3.4,0,0,0,.74.67c2.05,1.7,2.68,3.59,1.34,6.13-1.06,2-1.75,4.26-2.71,6.67,3,2,4.86,0,6.83-1,4.65-2.41,5.28-2.37,9.25,1.06a27.21,27.21,0,0,0,3,2.59c1.92,1.18,3.4.31,3.15-1.88a22.43,22.43,0,0,0-1.31-6.3c-1.35-3.11-.46-4.91,2.29-6.56,2.15-1.28,4.71-2.4,5.57-5.88-2.54-.29-4.79-.63-7-.77C429.77,492.93,429.68,492.87,428.13,487.93Z"/><path class="cls-41" d="M222.9,518.38c.7-.91.34-2.63.47-4-1.24.06-2.49.06-3.72.2a5.3,5.3,0,0,0-1.35.63c-5.07,2.3-5.55,2.19-9.18-2.12-.53-.64-1-1.37-1.52-2-2.44-2.59-3.76-2.33-4.66,1a18.93,18.93,0,0,0-.87,5.34c.11,2.91-1.25,4.11-3.88,4.8s-5.18,1.83-7.76,2.77l-.12,1.24a38.66,38.66,0,0,0,4.38,2.55c6.71,2.84,6.73,2.8,6.89,9.76,0,.17-.08.35,0,.49.39,1.3.65,3.61,1.22,3.7a8.55,8.55,0,0,0,4.39-1.12,4.75,4.75,0,0,0,2.1-2.06c2-4,5.34-3.86,8.93-3.21a19.79,19.79,0,0,0,2.91.6c2.44.08,3.68-1.8,2-3.42C217.71,528.42,218.9,523.58,222.9,518.38Z"/><path class="cls-42" d="M468.5,464.39c-2.79.66-4.46-.2-5.61-2.67a33.79,33.79,0,0,0-2.55-4.84,3.74,3.74,0,0,0-2.35-1.32c-.32-.05-1,1.11-1.23,1.81a18,18,0,0,0-1.12,4.83c-.07,3.25-1.86,4.25-4.73,4.54-2.19.22-4.33.81-6.72,1.29.5,1.13.58,1.74.92,2a44.11,44.11,0,0,0,4.55,3c2.33,1.27,3.38,3,2.91,5.72a42.35,42.35,0,0,0-.67,5.94,8.16,8.16,0,0,0,.86,2.61,27.49,27.49,0,0,0,2.61-1,5.41,5.41,0,0,0,1.11-1c4.62-4.2,5-4.23,10.92-1.37,1.55.76,3.18,1.35,4.77,2l.77-.83c-.84-2.25-1.63-4.53-2.51-6.76-1.16-2.9-1-5.25,1.54-7.62,1.76-1.66,4.32-3.27,3.85-7A49.3,49.3,0,0,0,468.5,464.39Z"/><path class="cls-43" d="M305,225.47c.55.3.75,1.59.79,2.43.07,1.63-.24,3.27-.15,4.9.36,5.79,4.47,8.06,9.6,5.23a13.24,13.24,0,0,0,3.67-3.26,39.68,39.68,0,0,0,3.27-5c.87-1.47,2.94-3.36,1-4.67-2.11-1.45-2.79,1.52-4,2.69-1.39,1.41-2.6,3-3.89,4.48l-1.15-.78a212.23,212.23,0,0,1,10-24c4.06-8,7.9-16,11.65-24.12.69-1.5,1.15-4.63.61-4.91a12.57,12.57,0,0,0-6-1.07c-2.65.08-3.11,2.57-4.05,4.49-3.07,6.22-5.93,12.57-9.38,18.58-3.88,6.74-8.29,13.18-12.51,19.73C303.19,222.1,302,223.86,305,225.47Z"/></g></g></g></svg>