<svg xmlns="http://www.w3.org/2000/svg" viewBox="0 0 600 600"><defs><style>.cls-1{fill:#172820;}.cls-2{fill:#e1b458;}</style></defs><g id="Layer_2" data-name="Layer 2"><g id="full_svg"><path class="cls-1" d="M600,314a18.6,18.6,0,0,0-1,3.71c-.46,9.29-1.24,18.52-2.44,27.77-2,15.52-4.77,30.85-9.73,45.67-3.42,10.2-7.67,20.12-11.72,30.1-2,4.88-4.25,9.66-6.6,14.39-2,4-4.2,7.87-6.42,11.73-5.79,10-11.12,20.28-18.24,29.56-9.39,12.25-19.42,23.9-29.78,35.3-2.53,2.78-5.81,4.87-8.67,7.37-5.36,4.66-10.62,9.42-16,14.07-4.1,3.55-8,7.35-12.5,10.38-4.67,3.19-9.89,5.59-14.85,8.36-1.3.72-2.9,1.28-3.76,2.39-4,5.14-9.7,7.19-15.46,9.5-3.76,1.5-6.82,4.85-10.6,6.23-10.05,3.68-19,9.94-29.74,12-5.63,1.1-11,3.64-16.46,5.54-6.71,2.32-13.35,4.66-20.53,5.54-8,1-15.95,3-23.92,4.42-3.87.72-7.76,1.3-11.64,1.94H273c-2.19-.59-4.35-1.56-6.57-1.7-11.64-.7-23-3-34.21-6-5.62-1.46-11.21-3-16.82-4.5A201,201,0,0,1,168.91,569c-8-4.45-16.29-8.25-24.29-12.63-3.76-2-7.08-4.9-10.73-7.17a161.43,161.43,0,0,1-24.8-19C99.5,521.35,90,512.36,80.71,503.08c-6.76-6.79-12.45-14.56-18.6-21.89-11.33-13.51-19.73-28.76-28.13-44C26.72,424,20.06,410.43,16,395.77c-2.77-10-5.92-20-8.46-30C5.42,357.25,3.68,348.65,2.2,340c-.83-4.86-.71-9.89-1.15-14.83A46.94,46.94,0,0,0,0,320v-8a22.89,22.89,0,0,0,0-15v-8a10.76,10.76,0,0,0,1.06-3.1C1.38,271.28,4,257,6.63,242.64a239.41,239.41,0,0,1,11-40.62c4.68-12.44,9.73-24.77,16.5-36.26s13.5-23.36,21.28-34.31c8.16-11.47,17.65-22,26.36-33.07C89.64,88.36,99,79.82,108.89,72c12.59-10,25.25-20,39-28.6,12.08-7.62,25.33-12.35,37.92-18.64A188.83,188.83,0,0,1,223.1,11c12.82-3.32,25.75-6.08,38.88-8.2,11.64-1.88,23.22-1,34.79-2A24.55,24.55,0,0,0,300,0h4a38.11,38.11,0,0,0,6.19,1,167.1,167.1,0,0,1,35.12,3.84c11.64,2.56,23.42,4.67,34.83,8,14.79,4.37,29.68,8.65,43.37,16.06,11.21,6.08,22.45,12.09,33.54,18.39a170.76,170.76,0,0,1,16.34,10.52c6.57,4.79,13,9.75,19.12,15.14,8.95,7.93,17.76,16.06,26.17,24.56,10.18,10.29,18.88,21.87,26.94,33.89,4.54,6.76,9.48,13.32,13.33,20.45,10.36,19.17,19.79,38.82,26,59.76,3.64,12.2,6.89,24.57,9.38,37.05,1.85,9.25,2.23,18.8,3.17,28.23.49,5,.71,9.95,1.2,14.92A21.77,21.77,0,0,0,600,296ZM299.25,7.13c-5.5,0-11-.43-16.49.08a387.18,387.18,0,0,0-49.68,7.86,241,241,0,0,0-52.52,18.62c-16.44,8-32.37,17-47.15,28-10.84,8-21.47,16.29-31.16,25.69-10.51,10.21-20.87,20.58-30,32.11-5.21,6.63-10.39,13.31-15.13,20.28a268.22,268.22,0,0,0-22.45,40.57c-4,8.93-8,17.91-11.4,27.09-2.93,7.92-5,16.15-7.45,24.26A89.21,89.21,0,0,0,13,242.18c-1.66,9.82-4.24,19.48-4.34,29.58C8.61,280,7.29,288.2,7.11,296.43c-.15,6.95.58,13.92.83,20.88.23,6.46-.27,13,.64,19.36a306.57,306.57,0,0,0,14.81,60c6.06,17,13.13,33.47,22.44,48.91,5,8.24,10.44,16.18,15.84,24.15,3.17,4.68,6.79,9,9.94,13.74,5.13,7.65,11.69,14,18.17,20.42,7.8,7.72,15.63,15.44,23.93,22.6,5.51,4.75,11.83,8.57,17.84,12.73,3.94,2.73,7.89,5.46,12,7.93,9.82,5.9,19.48,12.13,29.68,17.3,8,4,16.62,6.65,25,9.93,11.61,4.57,23.26,8.89,35.74,10.66,10.82,1.54,21.52,3.89,32.32,5.52,7.24,1.08,14.56,1.67,21.86,2.24,15.63,1.22,31.25.35,46.8-1.28A169.82,169.82,0,0,0,356.05,588q17.71-4.15,35.2-9.23c8.74-2.52,17.61-5,25.86-8.68,12.08-5.45,23.66-12,35.45-18.1,14.17-7.31,25.75-18.19,38.05-28a158.44,158.44,0,0,0,22.95-22.79c8.82-10.61,18.19-20.77,27.08-31.32,2.53-3,4.21-6.74,6.32-10.1,3.89-6.19,8.38-12.08,11.62-18.59,6.59-13.22,13-26.56,17.43-40.75,4.27-13.81,8.57-27.58,11.27-41.84a268.12,268.12,0,0,0,4.43-37.09c.42-9,.41-17.94.1-26.9-.27-8-1.51-15.91-1.81-23.89-.41-10.86-2.46-21.43-4.79-32a283.74,283.74,0,0,0-14.7-46.59,270.88,270.88,0,0,0-18.67-37.95c-6.47-10.66-12.76-21.42-21-30.94-5.32-6.16-10-12.86-15.42-18.94C508.29,96.23,500.83,88.39,492,82q-14.11-10.24-28.13-20.63c-4.81-3.55-9.26-7.73-14.41-10.68-14.41-8.23-28.6-16.84-44.26-22.78a325.7,325.7,0,0,0-37-11.78C345.54,10.49,322.68,6.59,299.25,7.13Z"/><path class="cls-1" d="M292.2,13.19c11.11.72,22.24,1.18,33.31,2.22a262,262,0,0,1,49.93,9.67A282.3,282.3,0,0,1,445,55.71c10.1,6.06,19.6,13.15,29.22,20a214.87,214.87,0,0,1,34.65,30.76,291.62,291.62,0,0,1,33.84,45c10.7,17.72,20.17,36.08,26.31,55.85,4.76,15.36,8.63,31,12,46.76,1.94,9,2.13,18.46,3,27.71.75,7.78,1.84,15.56,2,23.36a184.6,184.6,0,0,1-1.22,26.4c-1.64,12.68-3.76,25.34-6.56,37.8-2,8.87-5.2,17.51-8.34,26.08a265.79,265.79,0,0,1-10.61,25.72c-5,10.25-9.59,20.82-16.75,29.9-.1.13-.25.26-.28.4-1.47,7.61-7.21,12.41-11.69,18.08-5.21,6.6-10,13.55-15.33,20-2.72,3.3-6.39,5.79-9.41,8.85-3.44,3.48-6.59,7.25-9.95,10.8-2.93,3.09-5.7,6.42-9,9-6.64,5.21-13.51,10.15-20.49,14.88-3.9,2.65-8.23,4.63-12.34,7-4.46,2.53-8.89,5.12-13.33,7.7-4.25,2.46-8.43,5.08-12.77,7.37-6.5,3.43-13,6.88-19.71,9.84-3.55,1.57-7.53,2.15-11.33,3.12-2.39.62-4.87.95-7.19,1.76-5.28,1.84-10.38,4.33-15.76,5.79-8,2.18-16.31,3.47-24.36,5.58-6.12,1.6-12.42,1.53-18.49,2.58A132.09,132.09,0,0,1,301.89,586c-18.08-.84-36.25-.89-54-5-5-1.15-9.91-2.75-14.85-4.16a8.7,8.7,0,0,0-1.88-.64c-9.84-.35-18.66-4.3-27.71-7.58-14.26-5.18-28.2-11.06-41-19.21-9.35-5.94-19.44-10.8-27.53-18.73-2.91-2.84-6.83-4.65-10.28-6.94a82,82,0,0,1-15.3-13.27c-2.54-2.79-5.76-5-8.54-7.54-1.69-1.57-3.13-3.41-4.66-5.14-.22-.25-.28-.71-.54-.83-5.32-2.49-7.41-8.19-11.64-11.8-2-1.67-3.13-4.24-4.77-6.31-5.66-7.14-11.81-14-16.92-21.46-4.84-7.12-8.64-14.95-12.81-22.52C46.72,430,44,425,41.61,419.93,38.31,413,35,406.15,32.22,399c-3-7.87-5.67-15.93-8-24a253.21,253.21,0,0,1-9.1-44.39c-1.49-14.13-1.12-28.25,0-42.37.75-9.77,1.2-19.56,2.21-29.3a130,130,0,0,1,3.21-18.16,310.29,310.29,0,0,1,29.19-74.51,292.35,292.35,0,0,1,30.91-45.8c8.11-9.75,16.34-19.38,25.49-28,11.22-10.61,22.71-21,36.18-29,8.31-4.88,16.3-10.31,24.58-15.23A213.4,213.4,0,0,1,213.4,28.05a381.93,381.93,0,0,1,38.1-10c10.88-2.15,22.1-2.6,33.18-3.74,2.48-.26,5-.25,7.48-.36Zm10.91,71.43c-19.28,0-36.64,1.67-53.61,6.36-7,2-14.08,3.9-20.92,6.38-15.52,5.63-30.67,12.07-43.5,22.86a11.61,11.61,0,0,1-2.89,2c-6.7,2.85-12.08,7.63-17.48,12.27A230.26,230.26,0,0,0,134,165.68a235.94,235.94,0,0,0-25.65,39.74c-12.59,24.68-19.24,51-21,78.48a188.68,188.68,0,0,0,3.18,49.21c3.66,18.16,8.44,35.94,17.16,52.43,3.18,6,6.36,12.06,9.87,17.9,5.56,9.25,10.77,18.79,18,26.87,6.22,6.92,12.58,13.73,19.27,20.2a205.83,205.83,0,0,0,18.4,16c11.39,8.68,23.48,16.3,36.76,21.88,7.05,3,14.05,6.06,21,9.16,14,6.22,29.12,8.06,44,10a258.57,258.57,0,0,0,37.34,1.86c16.67-.23,33.06-3.44,49.27-7.18a94.21,94.21,0,0,0,16.05-5.44c7.92-3.44,15.8-7.09,23.36-11.24a291.54,291.54,0,0,0,26-15.73C439.87,461,451,450.23,461.43,438.8a146.31,146.31,0,0,0,12.07-14.52,251.14,251.14,0,0,0,23.25-41.77c2.56-5.75,5-11.59,7.05-17.54,3.9-11.19,6.12-22.81,8.09-34.48a173.39,173.39,0,0,0,.29-53.23c-1.5-10.67-4.07-21.21-6.44-31.75a180.12,180.12,0,0,0-18.46-47.75,176.77,176.77,0,0,0-9.35-15.31c-5.22-7.49-10.29-15.2-16.39-21.94-7.68-8.49-16.21-16.23-24.59-24.07-12.73-11.91-27.34-21.19-42.87-28.89A212.58,212.58,0,0,0,348.31,90.7C332.83,87.06,317.31,84.46,303.11,84.62ZM528,426.7l1.33-.06c.6-.94,1.21-1.87,1.79-2.82,2.72-4.44,5.37-9,11.87-6.08a3.22,3.22,0,0,0,1.49.07c3-.25,3.91-1.94,2.43-4.59-.8-1.45-1.43-3.3-2.69-4.15-4.16-2.81-3.54-6.12-1.89-10,.59-1.35.93-3.88.22-4.47-1-.84-3.12-.57-4.72-.43-.9.09-1.71,1.19-2.62,1.29a15.48,15.48,0,0,1-5.13-.16c-1.22-.29-2.16-1.64-3.38-2-2.06-.61-3.53-4.29-5.86-2-.9.9,0,3.9.49,5.87,1,4.67.29,6.33-4,8.92a49.56,49.56,0,0,0-5.13,4.25c3.33,1,5.6,2,8,2.38,3.32.55,4.78,2.35,5.35,5.57A76,76,0,0,0,528,426.7ZM155.63,511.77c2.7,2.48,4.5,4.15,6.31,5.8a3.57,3.57,0,0,0,1.19.89c2.39.71,2.34,2.47,2,4.38a54.17,54.17,0,0,0-1,5.89c-.21,3,1.68,4.14,4.3,2.66a23.11,23.11,0,0,0,5.33-3.57c2.26-2.32,4.47-2.54,7.14-1.05a21.67,21.67,0,0,0,2.75,1.18c3.54,1.41,4.9.41,4.41-3.42a7.58,7.58,0,0,0-1.24-3.19c-1.37-2-.71-3.82.33-5.58.67-1.13,1.73-2,2.37-3.18,1-1.79,3-4.32,2.45-5.42-1.39-2.69-4.09-.33-6.19-.1-4.62.52-6.14-.17-8.18-4.45a13.68,13.68,0,0,0-1.76-3c-1.56-1.87-2.65-1.69-3.55.56a38.61,38.61,0,0,0-1.72,5.2c-.63,2.61-2.1,3.85-4.81,4.2C162.66,510,159.67,510.87,155.63,511.77ZM70.87,359.7c-3.17,1.38-5.72,1.78-7.15,3.27-3,3.15-5.65,2.43-8.55.16a9.59,9.59,0,0,0-2.06-1.37c-1.28-.54-2.62-.92-3.93-1.37-.37,1.5-.82,3-1.06,4.52a4,4,0,0,0,.42,1.93c2,5.05.07,8.57-4.25,11.32a35.3,35.3,0,0,0-4.15,3.61l.44,1.25c2.9.3,5.84,1,8.69.78,3.28-.3,4.93.94,6.08,3.76,1,2.52,2.32,4.94,3.63,7.68,3.2-2.36,3.57-5.4,4.43-8.19,1.33-4.31,2.15-4.89,6.61-5.28,2.18-.19,4.33-.66,6.5-1l.35-1.3a44.63,44.63,0,0,0-5.28-4.85c-2.65-1.77-3.37-3.74-2.34-6.76C70,365.62,70.21,363.19,70.87,359.7ZM420.15,70.88l.7-1.5a22.15,22.15,0,0,1-2.29-1c-5.22-2.94-9.83-6.23-6.94-13.39a1.32,1.32,0,0,0,0-.49c-.1-3-1.87-4.11-4.39-2.44a46.38,46.38,0,0,0-5.81,4.55c-1.5,1.4-2.93,2.06-4.91,1.21-1.22-.52-2.5-.91-3.76-1.34-4.31-1.44-5.5-.41-4.6,4.05a5,5,0,0,0,1,2.2c2,2.32,1.61,4.49-.05,6.78a26.51,26.51,0,0,0-2.84,4.66,19.24,19.24,0,0,0-.85,4,15.36,15.36,0,0,0,3.72-.08c7.41-1.94,7.51-1.94,11.6,4.44a2.9,2.9,0,0,0,.56.82c.77.57,1.61,1.48,2.38,1.44.6,0,1.3-1.21,1.65-2a13.57,13.57,0,0,0,1.16-3.8c.45-3.77,2.75-5.32,6.25-6A71.9,71.9,0,0,0,420.15,70.88ZM501.9,463.66l1.36.24a9.69,9.69,0,0,0,2.21-1.81c3.25-4.88,7.59-5.39,12.65-3.42a10.37,10.37,0,0,0,1.94.47c3,.58,4.61-.93,3.52-3.83a24.34,24.34,0,0,0-3.69-5.84c-1.58-2.07-2.24-3.93-.46-6.29a12.92,12.92,0,0,0,2.42-4.88c.29-1.39-.41-3-.67-4.49a13.27,13.27,0,0,0-3.3,1.25c-4.76,3.55-7.36,3.32-10.95-1.24-1.53-1.93-3.06-4.76-5.66-3.75-1.06.41-1.16,4.09-1.13,6.28.07,5-.22,5.53-5,7-2.08.64-4.11,1.46-6.16,2.19l.05,1.25,6.68,2.75c5.43,2.22,5.37,2.22,5.52,7.91C501.24,459.55,501.65,461.61,501.9,463.66Zm-473-130,.38,1.45c2.74.44,5.46,1,8.21,1.29,3.23.33,5,1.66,5.6,5.13.48,2.92.85,6.13,3.87,8.94,1.41-2.92,2.74-5.35,3.77-7.9,1.13-2.82,2.56-4.43,6-3.55a19.83,19.83,0,0,0,6.44.12c2.09-.18,3.06-1.41,1.79-3.42a21,21,0,0,0-3.29-4.34c-2.38-2.21-2.46-4.51-.89-7.12A15.52,15.52,0,0,0,63,320.34a4.92,4.92,0,0,0-.75-3.43c-.2-.32-2,.16-2.9.55s-1.91,1.28-2.93,1.78c-5.89,2.92-6.52,2.78-11.3-1.79-1.22-1.16-2.58-2.18-3.88-3.27l-1.21.58c0,2.24-.58,4.69.12,6.69,1.65,4.75-1,6.71-4.5,8.5C33.34,331.12,31.14,332.39,28.92,333.62ZM197.23,533c.72,1.21.87,1.76,1.23,2a7.42,7.42,0,0,0,2.62,1.37c6.58,1.11,8.36,5.22,7.53,11.31a3.69,3.69,0,0,0,1.49,3.1c1,.4,2.58-.09,3.6-.71a8.57,8.57,0,0,0,3.12-3.15c1.62-3.23,4.29-3.07,7.21-2.9,2.16.13,4.83,2.36,6.41-.2s-1.53-4.1-2.69-5.84c-1.84-2.77-2.14-5-.08-7.66a25.69,25.69,0,0,0,3-5.13,3.11,3.11,0,0,0-.12-2.74A3.06,3.06,0,0,0,228,522a19.68,19.68,0,0,0-4.08,1.79c-2.42,1.31-4.42.91-6.12-1.24-1-1.3-2.06-2.61-3.2-3.8-2.28-2.37-3.6-2.11-4.46.93a16.78,16.78,0,0,0-.91,5.34c.2,3.15-1.29,4.43-4.11,5.16C202.57,530.83,200.17,531.92,197.23,533ZM95.71,419a27.29,27.29,0,0,0-2.94-1.78c-7.46-3-7.47-3-6.82-11.07a8.67,8.67,0,0,0,.21-1.47c-.11-.86-.16-2.27-.6-2.43a3.58,3.58,0,0,0-2.68.48,27.23,27.23,0,0,0-3.53,2.75c-4.49,3.83-4.48,3.84-9.51,1.3a12,12,0,0,0-2.68-1.29,20.83,20.83,0,0,0-3.71-.08,13.42,13.42,0,0,0,.29,3.26,25.26,25.26,0,0,0,2.11,4.5c1.43,2.44,1.38,4.46-.58,6.77s-3.36,5.11-5,7.69l.58,1.07c2.16-.36,4.36-.59,6.48-1.12,5.7-1.43,6.45-1.19,8.91,4,1.09,2.3,2.36,4.27,5.48,5.44.42-2.06.92-3.76,1.09-5.48.69-7.4,1.12-7.87,8.07-9.77C92.39,421.35,93.7,420.17,95.71,419Zm25.72,64.1-.77,1.4c6.94,4.57,7.4,10.42,4.06,17a3.71,3.71,0,0,0-.19.46c-.56,2,.66,2.94,2.23,3.1,1.23.12,3-.09,3.74-.88,4.91-5.16,9.49-3.69,14.39,0,.94.71,3,0,4.46-.07a14.72,14.72,0,0,0-1.06-3.41c-3-5-2.44-7.64,2.31-10.92a12,12,0,0,0,2.67-2.14,14.11,14.11,0,0,0,1.41-3,24,24,0,0,0-3.42-1.42,16.36,16.36,0,0,0-3-.07c-4.66-.23-5.16-.68-6.38-5.32-.57-2.14-1.2-4.26-1.8-6.39l-1.07-.11c-1.38,2.75-2.82,5.47-4.13,8.25-1.2,2.56-2.79,3.72-5.88,3.21C126.57,482.37,124,483,121.43,483.1ZM457.86,96.91c-7-7.82-7-7.82-5.23-17.79,0-.16.12-.32.14-.48.34-2.63-.85-3.81-3.39-3.1a7.6,7.6,0,0,0-3.47,1.8c-3.73,4-7.57,4-11.86,1A7.59,7.59,0,0,0,430.37,77c-2.27-.18-3,1.16-1.9,3.1.33.57.85,1,1.23,1.57,3,4.33,2.68,7.1-1.42,10.22-2,1.53-4.75,3-3.83,5.62.35,1,4,1.12,6.21,1.17,4.78.11,5.2.29,6.69,4.88.68,2.08,1.41,4.15,2.12,6.22h1.22c1.08-2.68,2.31-5.31,3.19-8.06,1-3,2.77-4.13,5.92-4A59.57,59.57,0,0,0,457.86,96.91Zm98,252.36c-2.25,1.33-3.67,1.84-4.65,2.8-3.43,3.37-6.86,4-11.08,1.19-1.74-1.18-5.28-2.45-6.11-1.67-2.28,2.13.31,4.46,1.5,6.44,1.56,2.61,1.12,4.68-.92,6.67a45.59,45.59,0,0,0-3.87,3.87c-1.45,1.81-1,3.08,1.22,3.6a29.19,29.19,0,0,0,4.94.66c5,.26,4.94.24,6.63,4.67.91,2.36,1.24,5.12,3.89,6.37.48-.36.83-.5,1-.76a6.94,6.94,0,0,0,1-2.23c.86-6.71,4.31-9.95,11.32-8.93.88.13,2.57-.77,2.74-1.46a5,5,0,0,0-.86-3.56,8.7,8.7,0,0,0-3.35-2.91c-3.76-1.68-4.59-4.27-3.5-8.08C556.3,354.28,555.91,352.38,555.91,349.27ZM344.56,43,344,44.24c1.21,1.71,2.31,3.51,3.67,5.09,2.15,2.47,2.47,4.87.61,7.68a30,30,0,0,0-2.93,5.76c-.76,2,.55,3.33,2.6,2.67a23,23,0,0,0,4.45-2.2c2.34-1.39,4.39-1.21,6.26.79,1.13,1.21,2.21,2.49,3.43,3.6,2.34,2.13,3.88,1.67,4.41-1.35a15.72,15.72,0,0,0,.32-5c-.52-3.38,1.17-4.77,4-5.78,2.54-.89,5.53-1.23,7.27-4.42-1.28-.69-2.35-1.72-3.51-1.83-6.89-.67-9.3-4.57-8.62-11.11.1-.9-.78-2.57-1.47-2.73a5.07,5.07,0,0,0-3.55.89,8.47,8.47,0,0,0-2.9,3.37c-1.55,3.69-4.1,4.24-7.67,3.4C348.52,42.68,346.5,43,344.56,43ZM63.26,277.14l-.78-1.7c-2.69.4-5.54.35-8,1.31-3.19,1.23-5.07.26-6.7-2.29a54.2,54.2,0,0,0-3.3-5A3.09,3.09,0,0,0,42,268.31c-.6.16-1,1.49-1.28,2.35-.16.43,0,1,0,1.48-.38,6.2-2.88,9-9,9.95-.48.07-1.18-.26-1.45,0-.78.7-1.86,1.54-1.93,2.41A3.39,3.39,0,0,0,30,286.91a30.37,30.37,0,0,0,4.2,1.53C38,290,40,292.72,39.9,296.92a8.28,8.28,0,0,0,.07,2.49,22.84,22.84,0,0,0,1.33,3.06c1-.5,2.44-.74,2.83-1.53,3.08-6.27,7.9-7.26,14-5.19.92.31,3-.08,3.06-.41a9.22,9.22,0,0,0-.3-4.2c-.27-.86-1.28-1.49-1.94-2.24-2.75-3-2.78-4,0-7.15C60.36,280.17,61.83,278.68,63.26,277.14Zm495.12,27.29c-1,1.21-2.11,2.44-3.16,3.68-3.74,4.42-3.88,4.47-9.29,2.6-1.42-.48-2.79-1.13-4.22-1.53-.71-.19-1.83-.25-2.21.16a2.55,2.55,0,0,0-.31,2.26,20.51,20.51,0,0,0,2.07,3.39c3.38,5.12,3.33,5.2-.69,9.75a48.78,48.78,0,0,0-3.32,4.95c3,0,4.94.35,6.64-.06,5.19-1.28,8.07,1,10.17,5.51.72,1.54,1,4.73,3.55,3.82,1.15-.41,1.79-3.31,2-5.15.73-6.72.63-6.73,7.22-8.36a6.87,6.87,0,0,0,1.9-.56c1.16-.72,2.22-1.58,3.32-2.39a27.51,27.51,0,0,0-2.64-2.75,8.82,8.82,0,0,0-2.32-.9c-5.65-2.12-6.08-2.71-6.25-8.66C560.77,308.08,561.16,305.78,558.38,304.43Zm-1.71-45.26-1.17-.23c-1.3,1.81-2.76,3.54-3.88,5.45-1.55,2.64-3.51,3.79-6.6,2.94a42.64,42.64,0,0,0-6.34-1.18c-.72-.09-2,.27-2.16.72a3.44,3.44,0,0,0,.35,2.68,33,33,0,0,0,3.28,3.74c2.18,2.42,3.09,4.91,1,7.95-1,1.43-1.54,3.18-2.8,5.87,2.89-.48,4.84-.46,6.51-1.14,4.24-1.71,7.34-.24,10.1,2.91,1.27,1.44,2.65,2.77,4.06,4.23,2.56-2.31,1.48-4.59,1.28-6.82-.14-1.58-.44-3.74.41-4.68,1.46-1.63,3.79-2.46,5.7-3.71,1.69-1.12,4.72-2.4,4.68-3.51-.09-2.5-3-2.51-5.11-2.83-.64-.1-1.24-.5-1.89-.6-3.9-.61-5.45-3.24-6.08-6.8C557.66,262.47,557.1,260.83,556.67,259.17ZM87,446a11.18,11.18,0,0,0,.51,2.54c.9,1.39,1.84,2.76,2.86,4.06,3.93,5,3.86,5,.3,10.28-1.32,1.95-3.62,4.21-1.73,6.52.58.71,3.77-.7,5.77-1.15a2,2,0,0,0,.45-.21c3.13-1.58,5.89-1.65,8.5,1.27a56.28,56.28,0,0,0,6.15,5.22L111,474c-.14-2.74.1-5.57-.5-8.21-.68-3,.26-4.67,2.66-6.23s4.35-3.32,7.21-5.56c-3.29-1.12-5.7-2-8.16-2.77-2.19-.68-3.24-1.69-2.85-4.34.36-2.46-.2-5.06-.36-7.6l-1.06-.31c-1.3,1.63-2.62,3.24-3.89,4.9-3.15,4.08-5.9,4.92-10.76,3.44C91.47,446.78,89.56,446.55,87,446ZM43.9,257.34c1.37-.21,1.94-.13,2.3-.37a40.12,40.12,0,0,0,4-3c5-4.41,5-4.43,10.8-1.48a5.3,5.3,0,0,0,1.34.64c1.07.18,2.16.22,3.25.32a13.41,13.41,0,0,0,0-3.17A12.51,12.51,0,0,0,64,246.67c-1.84-2.95-.59-5,1.71-6.88a33.76,33.76,0,0,0,3.84-3.18,3.41,3.41,0,0,0,.62-2.63c-.07-.42-1.32-.86-2-.88a49,49,0,0,0-5,.25c-5.66.38-6,.21-8-5.06-.74-2-1-4.16-3.54-5A11.07,11.07,0,0,0,50.4,225a14,14,0,0,0-.92,2.83c-1.1,5.57-.87,7.19-9.7,8.2a37.23,37.23,0,0,0-4.8,1.16l-.14,1.24c2,1.38,3.89,2.88,6,4.13,4.27,2.56,4.45,3,3.59,8C44,252.68,44.06,254.89,43.9,257.34ZM562.74,227.5c-.11-.42-.22-.84-.32-1.25-1.42-.34-2.88-1.07-4.24-.93-6.57.66-10.16-2.19-11.3-8.63-.2-1.11-1.42-2.05-2.17-3.06-.9,1-1.85,2.05-2.67,3.16-.27.35-.13,1-.27,1.45-1.51,5-2.73,5.89-8.16,6-2.37,0-4.74.28-8,.48a19.11,19.11,0,0,0,7.1,6.85c2.27,1.38,2.83,3.06,2,5.42a18.48,18.48,0,0,0-1,2.82c-.28,1.56-.36,3.15-.52,4.73,1.49-.36,3-.71,4.46-1.08a1.26,1.26,0,0,0,.45-.22c3.68-2.69,7.17-3,10.68.47,1.31,1.29,3.12,2.07,4.71,3.08l1-.59c-.26-1.87-.43-3.76-.81-5.61-1.13-5.44-1-5.75,3.66-9C559.17,230.28,560.94,228.86,562.74,227.5ZM545.17,182c-.46-.37-.89-1-1.41-1.07a9.39,9.39,0,0,0-3.46-.1c-5.52,1.22-9.27-.74-11.69-5.84-.77-1.62-2.3-2.89-3.48-4.32a29.3,29.3,0,0,0-1.56,5.43c-.59,6.24-1.17,7.06-7.11,8.2-2,.39-4.93-.12-5.16,2.55-.08,1,2.63,2.46,4.25,3.35,4.62,2.55,4.69,2.93,4.19,7.51-.23,2.11-2.62,5,.11,6.26,1.19.56,3.93-1.64,5.71-2.93,3.72-2.68,5.16-2.9,9-.71a27.11,27.11,0,0,0,3.47,2c2.1.78,3.11-.17,2.78-2.46a4.79,4.79,0,0,0-.52-1.92c-3.72-5.33-2-9.41,2.83-12.86a6.05,6.05,0,0,0,1.37-1.44A8.49,8.49,0,0,0,545.17,182ZM83.36,196c-2.26-3-5-2.6-7.59-2.8-4.62-.37-5.09-.9-6.33-5.45-.63-2.29-1.66-4.48-3-7.89-1.46,2.93-2.46,4.6-3.13,6.39-1.48,3.92-4,5.74-8.34,5.41-2.51-.19-5.08.5-7.62.79l-.34,1.15c2,1.83,3.93,3.79,6.07,5.44,2.39,1.84,2.51,3.92,1.76,6.61a52,52,0,0,0-1,7.09c3.16,1.12,5-1.39,6.92-2.9,2.58-2,4.67-1.9,7.16-.06,2.06,1.53,4.32,2.76,7.62,4.84-.41-3.16-.42-5.09-.94-6.86-1.42-4.82-1.34-5.25,3-8Zm314.87,349.5,1.45-.49a73.53,73.53,0,0,0,.42-7.69,6.56,6.56,0,0,1,4.38-7,42.29,42.29,0,0,0,5.32-2.72c1.65-1,1.3-2.18-.25-3a8,8,0,0,0-2.44-.4c-7.82-1-7.83-1.09-9-9.07a28.38,28.38,0,0,0-1.52-4.71l-1.21,0c-.94,1.46-1.92,2.91-2.82,4.4-2.92,4.81-3.3,5-8.55,3.56a15.8,15.8,0,0,0-2.88-.73c-.9-.06-2.19-.08-2.65.46s-.26,1.86.1,2.64a23.08,23.08,0,0,0,2.21,3.29c2.9,4.2,2.91,5.72.08,9.86a23.56,23.56,0,0,0-2,2.86c-1,2,0,3.31,2.12,3a27.43,27.43,0,0,0,4.31-1.23c5-1.64,4.94-1.64,8.56,2.4C395.3,542.48,396.79,544,398.23,545.49Zm-122.89,6.12.36-1.21c-1.67-1.73-3.29-3.52-5-5.17s-2.41-3.46-1.23-5.77c1-2.07,2-4.18,2.85-6.34a2.47,2.47,0,0,0-.16-2.16,2.39,2.39,0,0,0-2.17-.45,35,35,0,0,0-3.84,2.29c-4.5,2.64-4.87,2.56-8.51-1-1.34-1.33-2.82-2.52-5.2-4.63-.25,3.52-.74,5.78-.49,8,.49,4.37-1.39,6.72-5.29,8.37-1.86.78-5.39.56-4.88,3.69.15.92,3.58,1.55,5.57,1.89,5.51,1,6.12,1.52,7.09,7.16.38,2.15,1.08,4.24,1.71,6.64,3.19-2.22,3.19-2.22,5.11-6.09,2.38-4.77,2.83-4.91,8.1-4.55A34.39,34.39,0,0,0,275.34,551.61Zm39.78-21-1.53-.62c-1.95,1.46-3.95,2.86-5.83,4.4-2.34,1.93-4.61,2.35-7.16.35a11.58,11.58,0,0,0-3.89-2.16c-.63-.18-1.75.72-2.36,1.39-.27.29,0,1.29.29,1.87,2.76,6,.28,10.12-4.83,13.36-.95.6-1.53,1.8-2.42,2.89a9,9,0,0,0,1.89.86,24.73,24.73,0,0,0,3,.1c6.35-.06,7.13.53,9.43,6.36.75,1.89,1.89,5.09,2.95,5.14,3.28.12,2.95-3.3,3.67-5.55,1.19-3.71,3-6.53,7.52-6.57,1.69,0,3.37-.75,5.05-1.16l.41-1.2c-1.16-.89-2.27-1.87-3.5-2.65-5.84-3.7-5.16-5.69-3.41-11.34A31.74,31.74,0,0,0,315.12,530.65ZM287.26,39.83c-2.51-2.38-4.82-1.08-7-.87-2.4.23-4.57.41-5.68-2.56a36.45,36.45,0,0,0-3.46-6.49c-.55-.89-1.71-2.11-2.41-2-.85.13-1.72,1.4-2.2,2.37s-.22,2-.45,2.92c-1,4.11-2.78,7.35-7.57,7.87A40.36,40.36,0,0,0,253,42.6c1.9,1.55,2.92,2.53,4.08,3.31,5.7,3.87,5.62,3.83,4.35,10.53-.37,2-2.2,4.63.29,5.8,1,.49,3.56-1.59,5.08-2.9,4.35-3.73,4.44-3.83,9.55-1.35,1.31.64,2.64,1.24,4.92,2.3-.42-2.64-.36-4.61-1.06-6.27-1.82-4.28-.23-7.33,2.91-10.1C284.5,42.66,285.81,41.26,287.26,39.83Zm12-.75-.12,1.45,5.62,4.85c1.68,1.45,2.33,3.08,1.32,5.28a58.22,58.22,0,0,0-2.47,6.52c-.22.65-.2,1.8.21,2.14a2.51,2.51,0,0,0,2.24.2,26.51,26.51,0,0,0,3.29-2.24c4.76-3.16,5.24-3.09,9.39.67,1.25,1.14,2.73,2,5,3.66,0-3.65.5-6.23-.12-8.5-1-3.74.62-5.61,3.54-7.2,2.23-1.22,4.37-2.61,6.8-4.08-2.49-2.56-5.09-2-7.47-2.27-5.12-.62-5.29-1.09-6.85-6.22-.6-2,.37-5.52-2.77-5.73-2.91-.19-3,3.07-3.8,5.14-1.86,4.62-2.65,5.11-7.75,5.36A49.94,49.94,0,0,0,299.26,39.08ZM74.43,172a12.55,12.55,0,0,0,1.58.42,2.77,2.77,0,0,0,1-.17c5.82-3,11.22-3.85,15.81,2.31.67.89,2.57.86,3.9,1.25-.08-1.22-.15-2.45-.26-3.67a5.74,5.74,0,0,0-.29-1c-1-3.85-.28-6.66,3.94-7.53,2.28-.47,4.37-1.87,6.55-2.85l0-1.17a46.5,46.5,0,0,0-6.19-2.35c-4.08-.94-5.59-3.56-5.81-7.46a62.7,62.7,0,0,0-1.17-6.67c-2.18,2.39-3.68,3.66-4.7,5.24-2.25,3.46-5.09,4.48-9,3-2.47-1-5-1.34-7.49-.11,0,.61,0,1,.12,1.24q1.8,2.37,3.71,4.67c3.3,4,3.23,3.93.86,8.37C76,167.46,75.36,169.62,74.43,172ZM487.64,151c.56.9.67,1.31.91,1.42a24.6,24.6,0,0,0,2.32.82c7,2.37,7,2.37,7.38,10a15.19,15.19,0,0,0,.85,3.17c1.11-.52,2.65-.75,3.26-1.62,3.7-5.28,8.12-6.69,13.9-3.38.75.43,2.22,0,3.1-.48.31-.17.2-2-.31-2.61-4.77-5.46-4.7-10.52.78-15.46.56-.5.83-2.37.5-2.61a4.5,4.5,0,0,0-3.07-.75,17.45,17.45,0,0,0-5.7,1.65c-3.27,1.81-5.12.65-7-2.14-1.37-2.05-2.62-4.6-6.45-4.95,0,2.27-.05,4.21,0,6.14.19,6.55.6,5.83-5.78,8.63C490.82,149.54,489.28,150.27,487.64,151ZM196.69,80.07c.26-.09,1.46-.14,1.66-.61a3.85,3.85,0,0,0-.19-2.66,11.13,11.13,0,0,0-1.75-2.41c-4.11-5.2-4.07-5.64-.92-11.48.69-1.28.63-3,.91-4.46-1.41.13-2.82.24-4.24.4a2.07,2.07,0,0,0-.92.35c-4.3,3.06-7.61,1.59-10.43-2.23a2.9,2.9,0,0,0-.71-.69c-1.2-.76-2.42-1.49-3.64-2.23-.31,1.51-.65,3-.93,4.55a3.26,3.26,0,0,0,.21,1c.68,4.32-.09,7.93-4.64,9.83a15,15,0,0,0-3.38,2.09A13,13,0,0,0,166,73.61c.75.49,1.55,1.45,2.25,1.39,7.57-.68,11.07,2.83,11.21,10.28,0,.87,1.28,1.71,2,2.56a19.66,19.66,0,0,0,2.42-2.21,12,12,0,0,0,1-2.27c2.51-5,2.79-5.14,8.42-4.07C194.2,79.48,195.17,79.72,196.69,80.07ZM367.18,543.12c0-.41.07-.82.11-1.23a33.8,33.8,0,0,0-4.48-2.38c-4.81-1.74-5.71-3.24-5.52-8.46.09-2.31,1.84-5.49-1.07-6.67-1-.4-3.56,2.36-5,4-3.57,4-3.65,4.13-8.74,1.85-1.73-.77-3.46-2.1-5.83-.19.88,2,1.75,3.88,2.61,5.81,1.24,2.77,1.54,5.24-1.15,7.6-1.72,1.51-2.87,3.67-4.27,5.54a14.48,14.48,0,0,0,6.49.46c3.69-.49,6.47.5,8.21,4.07a51.58,51.58,0,0,0,3.58,5.57l1.33-.23a58.4,58.4,0,0,0,1.58-6.94c.43-4,2.24-6.25,6.38-6.79C363.37,544.87,365.25,543.82,367.18,543.12ZM219.49,72l1.22.34c1.4-1.57,2.9-3,4.16-4.71,3.43-4.52,3.52-4.59,9-2.72,1.78.6,3.59,1.84,5.67-.19-1.1-1.93-2.25-3.73-3.18-5.64-1.29-2.64-1.78-5.18.67-7.69,1.54-1.58,2.55-3.67,4.48-6.56-2.91.32-4.65.38-6.32.72-5.19,1.06-6.52.53-9.48-4a27,27,0,0,0-2.25-3.27c-1.41-1.57-2.66-1.32-3.14.72a21.52,21.52,0,0,0-.69,5.91c.2,3.71-1.55,5.33-5,6.13-2.28.53-4.41,1.78-6.6,2.7l0,1.22a27.63,27.63,0,0,0,4.18,2c6,1.76,6.54,2.49,6.67,8.55C219,67.62,219.3,69.78,219.49,72ZM466,102.48c.14,2,.12,3.93.45,5.83.94,5.49,1,5.45-3.74,8.5-1.71,1.1-4,1.78-4.09,4.5.54.31.95.74,1.37.75,6.4.25,11.7,1.52,11.46,9.79-.06,2.06,2.11,2.4,3.52.71a5.63,5.63,0,0,0,1.24-2.13c1.21-5.25,4.91-5.88,9.48-5.56,1.76.13,4.45,1.79,5.24-.75.35-1.1-1.71-3.18-3-4.5-3.23-3.33-3.5-4.4-1.67-8.81.85-2.06,1.57-4.17,2.35-6.25l-.81-.72c-1.74.78-3.52,1.47-5.21,2.36-3.7,2-7,2.44-10.25-1.15C470.94,103.49,469.16,101.58,466,102.48ZM156.58,80.31c-3.85-.29-3.81-.25-7,1.93-3.85,2.63-4.67,2.56-8.41-.15A35.67,35.67,0,0,0,138,79.66a3.45,3.45,0,0,0-2.71-.36c-.51.26-.74,1.69-.59,2.51a20.68,20.68,0,0,0,1.68,6.2c1.58,3,.46,4.5-1.91,6.15a64.64,64.64,0,0,0-5.74,5l.44,1.22c2.06.1,4.12.28,6.18.3,6.05,0,6,0,8.27,5.58.67,1.64,1.5,3.21,2.32,4.94.83-.63,1-.7,1.08-.83.36-1.08.69-2.18,1-3.27,1.94-6,2.32-6.31,8.67-6.42a22.94,22.94,0,0,0,2.49-.06c1.87-.22,2.28-1.33,1.24-2.73A14.25,14.25,0,0,0,157,94.36c-3.47-2.25-3.78-5-2.12-8.51A40.56,40.56,0,0,0,156.58,80.31Zm263.77,439.5c2.86,1.82,4.61.16,6.45-.81,5.16-2.73,5.58-2.69,10,1.24a18.22,18.22,0,0,0,2.67,2.24c1.92,1.12,3.37.21,3.07-2a31.64,31.64,0,0,0-1.52-6.77c-1-2.74-.14-4.34,2.16-5.8s4.09-3.11,6.13-4.68l-.33-1.29c-2.16-.31-4.32-.76-6.5-.9-5.8-.38-5.83-.39-7.46-5.92-.51-1.72-1.25-3.37-2.13-5.73-1,1.42-1.65,1.89-1.77,2.47-1.3,6.46-4.78,9.55-11.62,7.84a2.34,2.34,0,0,0-2.11.66,2.45,2.45,0,0,0,.36,2.2,35,35,0,0,0,4,4.44c2,1.81,2.55,3.67,1.24,6.18A71.41,71.41,0,0,0,420.35,519.81Zm62.59-48.47a52.12,52.12,0,0,0-7.26.74c-2.74.66-4.51,0-5.65-2.59a27.14,27.14,0,0,0-2.28-4.42,10.56,10.56,0,0,0-2.56-1.95,11.69,11.69,0,0,0-1.41,2.36,22.67,22.67,0,0,0-1.09,4.85c-.2,2.66-1.53,3.75-4.11,4-2.36.23-4.69.87-7,1.33l-.3,1.26a51.23,51.23,0,0,0,5,3.49c2.67,1.45,4,3.33,3.36,6.47a37.12,37.12,0,0,0-.67,5.95,2.61,2.61,0,0,0,.87,2.07c.52.27,1.56-.12,2.18-.51a16.12,16.12,0,0,0,2.23-2c3.59-3.31,4.74-3.44,9.29-1.19,1.85.91,3.75,1.73,5.63,2.58l.89-.88c-.79-2.09-1.54-4.19-2.37-6.26-1.28-3.2-1.29-5.91,1.7-8.48C481.09,476.7,483.37,475,482.94,471.34ZM101,134.54l.75,1.32c2.38-.41,4.87-.51,7.11-1.3,3.16-1.11,5.09.16,6.74,2.56a36.49,36.49,0,0,0,2.47,3.73c1.56,1.75,2.94,1.45,3.57-.77a22.06,22.06,0,0,0,1-5.37c.06-2.5,1.23-3.57,3.57-3.89s4.74-.85,7.29-1.32c-1.79-3.19-2.4-3.72-5.57-5.13-4.57-2-4.54-2.1-3.72-7.1a52.83,52.83,0,0,0,.31-6l-1.19-.5c-1.33,1.1-2.73,2.14-4,3.32-4.45,4.19-4.71,4.23-10.48,1.68-1.72-.76-3.52-1.35-5.28-2l-.87.94c.85,2,1.55,4.13,2.6,6.06,2.55,4.72,2.59,4.67-.59,8.73C103.4,131.08,102.22,132.83,101,134.54Z"/><path class="cls-1" d="M93.64,299.35C93.29,273,97.07,250.08,105.16,228A200.3,200.3,0,0,1,145,161.73a242.62,242.62,0,0,1,32.62-30,192.17,192.17,0,0,1,39.15-22.85c14.69-6.49,29.78-11.81,45.62-14.18,13.6-2,27.45-3.56,41.17-3.43a175.21,175.21,0,0,1,42.84,5.88c12.12,3.17,24.16,6.44,35.44,11.76,7.56,3.58,15.54,6.48,22.19,12,4.14,3.46,9.39,5.55,13.86,8.64,9.17,6.35,18,13.21,25.43,21.56,8.65,9.65,17.36,19.25,25.61,29.23,8.76,10.58,15.06,22.74,20.52,35.26a203.93,203.93,0,0,1,9.41,25.22,181.43,181.43,0,0,1,6.59,35.2c.95,11.78,2.42,23.52,1.41,35.34-.8,9.43-1.56,18.94-3.38,28.2-2.28,11.56-4.95,23.1-9.85,33.95-5.06,11.2-9.87,22.47-17.39,32.41-5.89,7.79-10.52,16.58-16.69,24.12-6.92,8.45-14.45,16.5-23.9,22.43a36.83,36.83,0,0,0-7.54,6.51c-5.64,6.27-13.05,9.89-20.07,14.15-2.37,1.43-4.32,3.61-6.78,4.81-5.5,2.69-11.21,4.94-16.8,7.45-2.11.95-4.1,2.17-6.2,3.17a44.77,44.77,0,0,1-14.7,4.51,26.53,26.53,0,0,0-7.43,2.39,65.48,65.48,0,0,1-25.12,5c-4.24.07-8.45,1.28-12.69,1.43-10.27.37-20.56.72-30.83.5-9.47-.2-19-.71-28.13-3.68-6.09-2-12.54-2.65-18.5-4.82a300.24,300.24,0,0,1-29.2-12.13,276.59,276.59,0,0,1-27.32-15.52c-5.71-3.64-10.61-8.54-16-12.69a162.74,162.74,0,0,1-33.64-34.39c-9.61-13.4-18.32-27.36-24.09-42.86-4.69-12.57-9.57-25.19-12.73-38.19C94.61,324.63,93,310.65,93.64,299.35Zm265.89,25.49a16.17,16.17,0,0,1-2.26-1.92c-2.48-3.27-5.63-4-9.68-3.64-6,.57-11.11,2.83-14.95,7.14-6.17,6.94-12,14.22-17.62,21.59-3.52,4.58-6.39,9.65-9.78,14.34a16.18,16.18,0,0,1-4.51,3.86c-1.41.89-3.77,2.29-4.59,1.75-2.23-1.46-.23-3.64.43-5.29,2.14-5.39,4.9-10.54,6.9-16,5-13.79,11.59-26.86,18.29-39.88q7.31-14.19,14.07-28.65c1.2-2.58,4.1-6.66,1.75-8.09-2.78-1.71-7.29-.79-11-.6a4.53,4.53,0,0,0-3,2.36c-3.77,7.41-7.12,15-11,22.36-6.21,11.56-12.65,23-19.21,34.38-3.23,5.61-7.43,10.7-10.33,16.46-4.61,9.16-12.78,15.26-18.76,23.2a2.34,2.34,0,0,1-2.2.42c-.49-.25-.74-1.33-.77-2a4.58,4.58,0,0,1,.66-1.87q7.51-16.28,15.08-32.55c1.41-3,3.19-5.86,4.48-8.91,1.21-2.88.34-4.07-2.79-4-2.81.08-5.62.79-8.42.75-3.24,0-5.27,1.33-6.9,4-4.76,7.8-9.4,15.7-14.56,23.24-3.84,5.6-8.37,10.74-12.71,16-.63.78-2.33,1.65-2.84,1.34a4.34,4.34,0,0,1-2-3.08c.13-5,0-10.1,1.13-14.88,1.95-8.05.54-15.45-2.69-22.68-1.15-2.59-1.1-4.15,1.48-5.78,7.07-4.47,12.05-10.87,15.8-18.26,2.85-5.62,5.48-11.36,8.35-17,3.41-6.68,7.82-12.35,15.4-14.72.93-.29,1.67-1.16,3.24-2.29-5-1.67-8.37.22-11.47,2.15a58,58,0,0,0-24,29.07,93,93,0,0,1-7.4,14.64c-2.26,3.69-5.12,7.08-10.53,4.69-1.06-.47-3,.29-4.13,1a3.31,3.31,0,0,0-1.1,2.91c.22.91,1.38,1.7,2.29,2.28.47.3,1.3.07,1.95,0,3.79-.34,4-.24,4.08,3.32a17.9,17.9,0,0,1-.76,5.89,116.89,116.89,0,0,1-4.71,11.49c-3.05,6.47-3.21,13.52-4.17,20.36-.78,5.58,4.94,10.61,10.57,9.92a20.25,20.25,0,0,0,11.59-5.34,68.72,68.72,0,0,0,13.52-17.18c1.35-2.42,2.55-5.12,5.2-6.6-1.27,5.72-3,11.1-3.49,16.6-.29,3.24,1,6.81,2.23,9.94a4.72,4.72,0,0,0,6.69,2.58c3-1.35,6.18-2.69,8.5-4.87,7.2-6.77,12.66-14.93,17.31-23.63a21.12,21.12,0,0,1,2.12-2.81l1,.49c0,3.27-1.79,6.21-2.26,9.38-.71,4.73-1.78,9.59-1.32,14.25.68,6.85,7.49,10.1,13.41,7a15,15,0,0,0,4.68-3.66c3.34-4.14,6.38-8.51,9.6-12.74,1-1.31,1.3-3.41,3.92-3.66a33.39,33.39,0,0,0,0,5.13,48.63,48.63,0,0,0,2.09,9.65c1.53,4,4.54,6.19,9.27,6.12,5.25-.07,8.57-3.16,12-6.35,1.48-1.37,2.86-2.84,4.87-4.84.45,2.23.65,3.33.89,4.43,1.26,5.71,7,9,12.19,6.4a23.71,23.71,0,0,0,8.43-6.75c4.77-6.54,8.84-13.59,13.27-20.39.42-.65,1.3-1,3-2.26-1,3.35-1.36,5.65-2.32,7.67-2.64,5.59-1.76,11.05.32,16.46,2.53,6.55,7.78,8.51,13.5,4.55,3.19-2.2,5.71-5.46,8.24-8.49,2.13-2.54,3.78-5.48,5.77-8.15A7.72,7.72,0,0,1,411,355.2c.39.84.82,1.67,1.16,2.54.1.28-.09.66-.05,1,.78,6,2.21,11.65,8.41,14.68,5.35,2.61,10.79,2.71,15.78-.11a103.27,103.27,0,0,0,15.53-10.71A10.36,10.36,0,0,0,455.46,352a16.12,16.12,0,0,0-4.34,3.82,56.61,56.61,0,0,1-19.41,15.31c-3,1.48-5.39,0-5.45-3.35a61.17,61.17,0,0,1,.62-6.45c.28-3.25,2-4.74,5.2-5.72,5.84-1.81,11.57-3.94,16.67-7.64,6.09-4.41,8.55-10.52,9.05-17.53.4-5.63-3.23-10.11-8-10.45a29.92,29.92,0,0,0-21.31,6.91c-11.07,9-19,20.85-26.93,32.52-2.77,4.05-5.51,8-10.54,10.24-.77-4.07.24-7.39,1.54-10.61,4-9.86,7.9-19.77,12.14-29.52,3.7-8.53,7.88-16.85,11.7-25.33,1.23-2.73,3.18-3.55,5.95-3.47a33,33,0,0,0,6-.37c.55-.09,1.14-1.1,1.32-1.79.08-.31-.74-1.14-1.26-1.26a20,20,0,0,0-3.47-.32c-4.62-.28-4.6-.35-2.8-4.43,1.95-4.39,3.85-8.81,5.49-13.32,1.06-2.93.09-4-3.07-3.77a39.92,39.92,0,0,0-6.93.72,5.73,5.73,0,0,0-3.38,2.42c-5,9.2-9.73,18.52-14.64,27.74-4.07,7.63-8.14,15.26-12.44,22.75-3.63,6.31-7.43,12.54-11.46,18.6s-8.2,11.69-12.51,17.39c-.76,1-2.42,1.31-3.66,1.94-.52-1.48-1.36-2.94-1.47-4.45a8.35,8.35,0,0,1,1.12-3.79c2.17-4.66,4.44-9.28,6.67-13.91,3-6.3,6.15-12.55,9-18.92,2.19-4.88,1.41-5.92-3.8-5.89C366.64,320.11,361.93,319.33,359.53,324.84Zm-154.37-27,1.4.88c-.77,1.88-1.51,3.76-2.32,5.62-2.9,6.69-5.9,13.33-8.72,20.05-4.56,10.88-8.59,22-13.61,32.65-5.42,11.51-18.19,15.05-29,8.62-1.57-.93-3.57-2.87-3.53-4.28s2.14-3.14,3.66-4.27,3.36-1.42,5-2.28c3.81-2,5.45-6.24,4.24-10.62-1.14-4.08-3.29-5.32-8.35-5.36-3.46,0-5.85,1.39-7,4.53a47.47,47.47,0,0,0-2.52,9.06c-1.77,12.08,4.6,18.09,14.18,20.59,11.88,3.09,22-.8,30.54-9.05a65.13,65.13,0,0,0,12-15.81c6.15-11.18,9.32-23.35,12.58-35.53s6-24.56,13.79-35c.86-1.13,1.09-2.73,1.61-4.11l-1-.61c-7.12,3.48-11.23,10.57-17.51,15.13s-11.6,10.39-18.63,14.12a28.93,28.93,0,0,1,2.14-5c1.32-3,3.14-6.08,3.48-9.25.29-2.7-.42-6.28-2.11-8.21-2.15-2.46-5.87-1.95-8.84-.4a15.94,15.94,0,0,0-4.78,3.49c-4.82,5.69-9.47,11.53-14.08,17.39a18,18,0,0,0-1.75,3.67l1.25.75c.87-1.21,1.7-2.45,2.6-3.64,3.62-4.74,7.07-9.63,11-14.11,1.91-2.19,4.68-3.67,7.17-5.31a2.31,2.31,0,0,1,2.2.13,2.4,2.4,0,0,1,.08,2.17,31.88,31.88,0,0,1-2.42,3.78,19.59,19.59,0,0,0-3.57,13.19c.44,4.57,3,6.28,7.21,4.78a55.12,55.12,0,0,0,8.39-4.26C201.71,300.3,203.4,299,205.16,297.8Zm103-93.32c3.22.93,5.06-.75,6.11-2.94a26.35,26.35,0,0,0,2.05-7.12c1.23-7.38-3.73-13-11.14-12.77-1.67,0-3.34-.05-5,.09a15,15,0,0,0-12.79,19.17c1.57,4.87,1.61,5.3-2.8,7.36-9,4.23-12.91,11.18-12.71,21.1a17.49,17.49,0,0,0,21.43,16.19c8.56-1.88,13.89-11.58,13.44-19.84-.22-4.13-2.72-7.06-6-7.69a9.1,9.1,0,0,0-9.69,4.54c-2.41,4-2.23,8.52-2.27,13,0,.71,1.11,1.42,1.71,2.14.59-.51,1.46-.9,1.72-1.55.42-1,.27-2.32.68-3.37,1-2.76,1.91-5.69,3.53-8.08.93-1.37,3.52-2.79,4.8-2.38s2.38,2.91,2.75,4.68c1.52,7.21-7.42,16.74-16,16a7.2,7.2,0,0,1-6.8-6.25,27.51,27.51,0,0,1,8.8-24.76c1.66-1.56,3.31-1.73,5.42-.6a13,13,0,0,0,5.68,1.62,4.52,4.52,0,0,0,3.24-2.32c.4-.79-.21-2.6-1-3.35a7.4,7.4,0,0,0-3.94-1.92c-3.19-.41-3.79-2.52-3.5-5,.7-6,2.71-11.26,8.56-14.25,3.22-1.64,5.69-.94,7.4,2.34,3,5.76,2.14,10-2.9,14.42A6.28,6.28,0,0,0,308.15,204.48Zm14.28,35.1-1.2-.9c1.25-3.22,2.39-6.49,3.77-9.65,2.91-6.68,5.87-13.34,9-19.94,2.24-4.79,4.76-9.46,7.08-14.22a50.75,50.75,0,0,0,2.75-6.4c.87-2.67.07-3.73-2.62-4.09-4.2-.57-5.94.56-7.66,4.53a116.18,116.18,0,0,1-6.06,13c-5.14,8.71-10.67,17.2-16.07,25.76-1.16,1.84-2.08,3.43.49,5,.64.39.81,1.83.89,2.81.11,1.46-.16,3-.07,4.41.38,6.19,5.35,8.88,10.16,4.88,3.31-2.74,5.38-7,7.9-10.61.25-.36,0-1.63-.27-1.7-.69-.19-1.78-.27-2.19.14-1.17,1.17-2,2.62-3.09,3.9C324.33,237.59,323.36,238.57,322.43,239.58ZM293,293.74a36.74,36.74,0,0,0-.37-3.94,4.06,4.06,0,0,0-4-3.62c-6.33-.75-10.64,4.12-9.52,11,.94,5.78,5.83,7.8,10.61,4.42C292.47,299.67,293,296.86,293,293.74Zm13.15-89.28c0-2.6-.06-5.2,0-7.8s3.83-4.23,2.13-7.48C301.75,192.8,300.48,198.81,306.14,204.46Z"/><path class="cls-1" d="M328.61,360.94a26.13,26.13,0,0,1,.94-4.9c4.09-10.78,9.21-21,16.79-29.83,1.68-1.95,3.51-3.78,6.3-2.77,2.58.94,4.18,4.23,3.58,7.55a47.8,47.8,0,0,1-8.36,19.59,167.35,167.35,0,0,1-12.66,14.76c-1.1,1.2-3,1.69-4.48,2.51-.63-1.47-1.31-2.93-1.85-4.43A12.14,12.14,0,0,1,328.61,360.94Z"/><path class="cls-1" d="M449.9,324.4c0,2.38.61,5-.12,7.09-1.55,4.52-3.43,8.95-8,11.63-2.24,1.3-3.85,3.62-5.89,5.32a24.49,24.49,0,0,1-6.16,3.8c1.92-12.51,9.68-20.83,18.46-28.44Z"/><path class="cls-2" d="M107.17,135.22c5.61-1.42,6.1-1.14,9.35,3.66a22.72,22.72,0,0,0,3.41,3.3c.71-1.34,1.5-2.64,2.08-4a7.11,7.11,0,0,0,.6-2.9c-.09-2.71,1.23-3.86,3.82-4.16,2.35-.28,4.67-.86,7.32-1.37-1.47-3.31-3.89-4.09-6.1-5.09-4.21-1.89-4.33-2.14-3.51-6.79.38-2.17,1.41-4.45-.52-6.5a5.45,5.45,0,0,0-1.54.55c-.91.71-1.77,1.5-2.61,2.3-4.67,4.45-4.76,4.43-10.87,1.75-1.68-.74-3.48-1.21-5.88-2a22.12,22.12,0,0,0,.71,3.31,38.16,38.16,0,0,0,1.95,4c2.5,4.46,2.5,4.44-.53,8.3-1.32,1.68-2.53,3.44-3.86,5.26C103.15,136.89,105.16,135.72,107.17,135.22Z"/><path class="cls-2" d="M54.9,205.77a52,52,0,0,0-1.07,7.09c3.17,1.21,5-1.36,6.9-2.85,2.58-2,4.66-2,7.17-.1,2,1.53,4.32,2.77,7.62,4.85-.39-3.11-.37-5-.9-6.81-1.42-4.85-1.35-5.27,2.93-8l5.8-3.73c-3-2.43-3-2.43-7.54-2.81s-5.14-.91-6.37-5.4c-.62-2.3-1.64-4.5-2.48-6.75a12.89,12.89,0,0,0-3.59,5.18c-1.48,3.86-3.93,5.79-8.31,5.43-2.51-.2-5.09.49-7.64.78l-.36,1.13c2,1.82,3.9,3.78,6,5.43C55.48,201,55.66,203.08,54.9,205.77Z"/><path class="cls-2" d="M40.26,242.35a2.73,2.73,0,0,0,.43.26c4.44,2.55,4.58,3,3.73,7.91-.37,2.16-.39,4.39-.62,7.14a14.76,14.76,0,0,0,8.32-5.7c1.51-1.88,3.12-2.3,5.22-1.19a22.55,22.55,0,0,0,3.14,1.5c1.64.55,3.89,1.81,4.9,1.19,2.19-1.34-.22-3.13-.6-4.75a6,6,0,0,0-.72-1.85c-1.79-2.84-.8-5,1.56-6.89a25.21,25.21,0,0,0,3.48-2.82,9.78,9.78,0,0,0,1.23-3,11.36,11.36,0,0,0-2.6-1,21.47,21.47,0,0,0-3.48.17c-6.88.45-6.83.43-9.36-5.81a41.53,41.53,0,0,0-2.76-4.77,14.15,14.15,0,0,0-1.68,2.2,22.6,22.6,0,0,0-1,3.31c-1.54,6.75-2.15,6.23-8,7.72-2.1.53-5.41-1-5.88,1.93C35.32,239.15,38.57,240.88,40.26,242.35Z"/><path class="cls-2" d="M135.9,101c5.45,0,5.44,0,7.57,5.18.71,1.74,1.52,3.44,2.29,5.15A18.92,18.92,0,0,0,149,105c1-2.84,2.7-4.4,6-4a48.43,48.43,0,0,0,5.78,0c.25-.51.49-1,.73-1.53-1.51-1.67-2.79-3.66-4.59-4.93-3.19-2.26-3.62-4.77-2-8.14a38.84,38.84,0,0,0,1.69-5.5c-3.15-1.52-4.86.34-6.76,1.58-4.13,2.69-4.89,2.67-8.87-.27a22.39,22.39,0,0,0-3.17-2.4,3.58,3.58,0,0,0-2.71,0c-.37.16-.46,1.48-.31,2.21.43,2.11.69,4.37,1.69,6.22,1.57,2.93.58,4.51-1.85,6.18a63.73,63.73,0,0,0-5.77,5c.15.41.31.81.46,1.21C131.45,100.84,133.67,101,135.9,101Z"/><path class="cls-2" d="M170.22,75.59c7,.57,7.66,1.14,8.87,8.1.09.49-.06,1.08.17,1.47.63,1.06,1.41,2,2.13,3A36.78,36.78,0,0,0,184,85.54a9.9,9.9,0,0,0,.79-1.81c2.51-5,2.79-5.13,8.43-4.06,1,.19,1.94.43,3.45.77.27-.08,1.48-.14,1.67-.61a3.86,3.86,0,0,0-.21-2.66,11.07,11.07,0,0,0-1.75-2.4c-4.09-5.17-4.05-5.64-.9-11.46.69-1.28.62-3,.89-4.45-1.41.13-2.83.25-4.24.41a1.92,1.92,0,0,0-.92.35c-4.31,3.06-7.61,1.56-10.43-2.24a2.9,2.9,0,0,0-.71-.69c-1.2-.76-2.42-1.48-3.64-2.22-.31,1.52-.74,3-.9,4.56a19.9,19.9,0,0,0,.33,2.94c.19,3.23-.67,5.86-3.94,7.31a22,22,0,0,0-4.23,2.61A11,11,0,0,0,166,74c.92.49,1.82,1,2.78,1.46A5.08,5.08,0,0,0,170.22,75.59Z"/><path class="cls-2" d="M76.18,157.39c3.28,4,3.2,3.91.85,8.37-1.08,2-3,4.06-1.66,6.84a5.06,5.06,0,0,0,1.61-.19c5.84-3,11.23-3.79,15.82,2.33.66.88,2.57.84,3.9,1.23-.09-1.22-.17-2.45-.29-3.67a5.74,5.74,0,0,0-.29-1c-1-3.5-.56-6.59,4-7.5,2.19-.44,4.22-1.71,6.32-2.61.07-.47.15-.94.22-1.42a46.78,46.78,0,0,0-6.18-2.33c-4.11-.94-5.58-3.59-5.8-7.47a43,43,0,0,0-1-5.45l-1.19-.26a51.27,51.27,0,0,0-4,4.7c-2.08,3.05-4.63,4-8.14,2.7-2.61-1-5.31-1.57-8-.21,0,.61,0,1,.13,1.23C73.67,154.31,74.91,155.87,76.18,157.39Z"/><path class="cls-2" d="M92.08,421.42a24.64,24.64,0,0,0,2.59-2.71,10.7,10.7,0,0,0-2.61-1.88c-7.75-2.56-6-2.4-6.12-9.1,0-1,.17-2,.15-3s-.17-1.79-.26-2.68a10,10,0,0,0-3.13.66,27.88,27.88,0,0,0-3.92,3.05c-3.9,3.33-3.89,3.34-8.27,1.16a23.49,23.49,0,0,0-3.58-1.72,13.35,13.35,0,0,0-3.3-.16,11.43,11.43,0,0,0,0,3.2,15.7,15.7,0,0,0,1.88,4.05c1.9,2.91,1.73,5.32-.7,8-1.87,2.09-3,4.82-4.51,7.27l.68,1c2.19-.42,4.42-.73,6.58-1.27,5.4-1.35,6.13-1,8.65,3.78a51.79,51.79,0,0,0,4.12,5.76l1.55-.52c.33-1.91.8-3.82,1-5.75.48-6.1,1.53-7.46,7.31-8.87C90.79,421.56,91.64,421.77,92.08,421.42Z"/><path class="cls-2" d="M29.87,286.91c1.08.7,2.52.79,3.75,1.28,3.87,1.55,6.32,4.1,6.32,8.59,0,2-.93,4.94,1.73,5.53,1.08.24,3.06-2.12,4.15-3.65,2.39-3.34,5-5.29,9.24-3.28a10.4,10.4,0,0,0,3.43.49c2.9.24,4.09-1.13,3-3.7a10.54,10.54,0,0,0-2.09-2.76c-3.34-3.74-3.33-4.52.1-8.24,1.27-1.38,2.46-2.81,4.09-4.68a13.33,13.33,0,0,0-9.06.12c-4.07,1.35-4.53,1.14-7-2.38A43.93,43.93,0,0,0,43.87,269c-1.41-1.51-2.67-1-3.06,1.09a16.26,16.26,0,0,0-.05,2c-.37,6.17-2.6,8.87-8.36,10-.63.13-1.49-.28-1.94,0-.86.57-2,1.41-2.08,2.25A3.37,3.37,0,0,0,29.87,286.91Z"/><path class="cls-2" d="M109.34,446.79c.31-2.51-.19-5.12-.33-7.73-.82.15-1.27.1-1.43.29-1.27,1.52-2.5,3.08-3.73,4.63-2.91,3.68-5.89,4.5-10.45,3.15a54.57,54.57,0,0,0-5.89-1.08l-.69,1.15c1.49,2.08,2.94,4.2,4.48,6.24,2.74,3.65,2.7,4.66.11,8.36a25.85,25.85,0,0,0-3.06,5.63c-.61,1.61.5,2.7,2.14,2.29a29.64,29.64,0,0,0,5-2.09c3-1.38,5.62-1.34,8.08,1.37,1.8,2,4.08,3.54,7,6,0-4,.44-6.77-.11-9.37-.61-2.93.13-4.69,2.54-6.27s4.47-3.46,7.35-5.73l-8.55-2.76C109.85,450.23,109.05,449.13,109.34,446.79Z"/><path class="cls-2" d="M148.93,482.86c-5.34-.19-5.75-.54-7.08-5.67-.53-2-1.15-4-2-6.82a38.44,38.44,0,0,0-2.37,3.37c-1,1.91-1.88,3.88-2.78,5.84-1.11,2.4-2.72,3.35-5.56,2.91-2.49-.38-5.11.12-8.47.27.83,1.62.94,2.18,1.28,2.45,5.2,4.11,6.13,9.08,3.11,14.89a3.89,3.89,0,0,0-.3.95c-.68,2.73.52,4.27,3.26,3.58a17.24,17.24,0,0,0,5.61-3c2.48-1.8,4.69-2.1,7.23-.13a20.24,20.24,0,0,0,5.14,3,3.59,3.59,0,0,0,3.1-.69c.41-.37,0-2.05-.45-2.87-3.49-5.93-3.15-7.59,2.68-11.77a3.68,3.68,0,0,0,1.14-.94c.73-1.37,1.36-2.79,2-4.19-1.37-.39-2.73-.81-4.11-1.15A7.4,7.4,0,0,0,148.93,482.86Z"/><path class="cls-2" d="M43.05,341.2c.46,3,1.08,6.12,3.21,8.68.6-.38,1.18-.55,1.38-.93,1-1.9,2-3.83,2.83-5.8,1.93-4.43,2.05-4.33,7-4.11,2.64.12,6.43,1.61,7.61-1.46.58-1.49-2-4.55-3.62-6.43-2-2.25-2.22-4.29-.77-6.74a22.94,22.94,0,0,0,2.38-4.33,3.43,3.43,0,0,0-.66-3c-.53-.47-2-.17-3,.2-1.2.47-2.18,1.46-3.34,2-5.65,2.75-6.37,2.6-10.88-1.71-1.24-1.19-2.56-2.3-4.18-3.75-1.83,3.35-1.44,6.24-.82,8.83.74,3-.22,4.76-2.74,6.07-2.06,1.07-4.14,2.1-6.15,3.27a29,29,0,0,0-3.24,2.75c3.89.64,6.75,1.21,9.64,1.57S42.54,337.93,43.05,341.2Z"/><path class="cls-2" d="M63,388.47c1.89-6.41,1.92-6.38,8.42-6.9a31.64,31.64,0,0,0,5.32-1.34l.43-1.4a36.23,36.23,0,0,0-5-4c-3.5-1.9-3.89-4.47-2.68-7.93a40.84,40.84,0,0,0,1.18-6.08l-1.28-.89A75.54,75.54,0,0,0,62.2,364c-1.67,1.18-2.9,1.89-4.76.32a27.17,27.17,0,0,0-5-3.15c-.94-.5-2.32-1.14-3-.79s-1.33,1.82-1.45,2.86a7.45,7.45,0,0,0,.63,3.38c2,5.29,0,8.87-4.56,11.63a29.29,29.29,0,0,0-3.84,3.32l.39,1.25c2.55.33,5.2,1.28,7.62.86,4.77-.82,6.55,1.74,8,5.44.78,2,1.95,3.83,3.22,6.28a21.37,21.37,0,0,0,2-2.76A32.08,32.08,0,0,0,63,388.47Z"/><path class="cls-2" d="M542.35,216.08a5.84,5.84,0,0,0-.52,1.9c-1.63,5.58-2.61,6.22-8.3,6.43-2.34.09-5-.95-7,1.16.07.44,0,.86.2,1.06a10.79,10.79,0,0,0,2.46,2.41c5.32,2.89,7.31,6.69,4,12.39-.47.82,0,2.17,0,3.28a19.64,19.64,0,0,0,3.16-.51,10.34,10.34,0,0,0,2.62-1.4c3.14-2.16,6-2.15,9,.48a47,47,0,0,0,5.47,3.66l1-.66c-.23-1.73-.37-3.47-.72-5.18-1.23-6.09-1.2-6.11,4-9.75,1.77-1.23,3.37-2.7,5.05-4.06-.16-.39-.31-.78-.46-1.17-3.25-.42-6.48-1-9.73-1.2-2.17-.13-3.34-.92-3.93-3a43.56,43.56,0,0,0-2.23-6.06,9.31,9.31,0,0,0-1.85-2.1A22.67,22.67,0,0,0,542.35,216.08Z"/><path class="cls-2" d="M513.6,184.94a10.2,10.2,0,0,0-2.56,2,20,20,0,0,0,2.16,2.42,11.6,11.6,0,0,0,2.25,1c4.92,2.53,5.11,2.92,4.09,8.38-.19,1-.44,1.94-.79,3.45.17.41.31,1.69,1,2a3.37,3.37,0,0,0,2.69-.48A34.25,34.25,0,0,0,525.9,201c2.75-2.21,5.58-2.77,8.64-.55a16.23,16.23,0,0,0,3.45,2c2.13.82,3.35-.13,2.83-2.33A25.54,25.54,0,0,0,538.6,194c-1.14-2.15-.87-3.65,1-5.2a37.31,37.31,0,0,0,4.54-4.61c1.59-1.89,1.12-3.11-1.27-3.25a42.5,42.5,0,0,0-6,.24c-2.93.21-5.17-.72-6.58-3.45a58.87,58.87,0,0,0-3.28-5.57c-.4-.59-1.33-1.35-1.8-1.23a2.54,2.54,0,0,0-1.35,1.79,36.78,36.78,0,0,0-.45,5.46c-.06,3.06-1.3,5-4.5,5.57A31.93,31.93,0,0,0,513.6,184.94Z"/><path class="cls-2" d="M487.87,152.42c2.12.76,4.23,1.56,6.37,2.27,2.88.95,4.45,2.68,4,5.91a17.65,17.65,0,0,0,0,4c.22,2.46,1.28,3,3.13,1.44a36,36,0,0,0,4.55-4.6,4.2,4.2,0,0,1,5.68-1.27,25.43,25.43,0,0,0,5.17,1.76c2.51.56,3.51-.66,2.48-3a18.11,18.11,0,0,0-2.57-4.24c-2.24-2.67-1.83-5.13.18-7.63a20.69,20.69,0,0,0,2.47-3.11,17.32,17.32,0,0,0,1-3.57,14.48,14.48,0,0,0-3.67-.4,34.25,34.25,0,0,0-4.78,1.31c-4.69,1.35-4.61,1.28-7.66-2.44-1.45-1.77-2.43-4.39-6.07-4.29a69.42,69.42,0,0,0,.05,7.52c.38,3.37-.88,5.29-4.1,6.33a58.26,58.26,0,0,0-6.41,2.89Z"/><path class="cls-2" d="M471.45,132.09c-.06,2.1,2.07,2.47,3.49.8a5.49,5.49,0,0,0,1.25-2.12c1.22-5.2,4.85-6,9.45-5.57,1.8.17,3.68-.42,5.51-.66A32.12,32.12,0,0,0,488,120c-3.26-3.34-3.54-4.4-1.73-8.78.86-2.06,1.59-4.17,2.38-6.25l-.82-.78-6.05,2.8c-3.25,1.51-6.14,1.81-9-1.21-1.55-1.63-3.36-3.8-6.81-2.95a61.74,61.74,0,0,0,.58,6.29c.95,5,1,4.92-3.35,7.75-1.84,1.19-4.29,1.9-4.63,4.71.58.35,1,.79,1.39.82C466.27,122.67,471.69,123.79,471.45,132.09Z"/><path class="cls-2" d="M212.12,57.31c6.32,1.87,6.7,2.36,6.83,8.89,0,2,.34,4,.52,6.07l1.14.38c1.1-1.12,2.56-2.05,3.23-3.39,2.61-5.17,6.24-6.28,11.34-3.58,1.08.57,2.62.27,4.94.44-1.62-2.87-2.7-4.69-3.67-6.55-1.39-2.65-1.85-5.15.52-7.69,1.52-1.62,2.58-3.68,4.59-6.63-3.05.35-4.9.45-6.7.8-4.64.9-6.16.29-8.81-3.58-1.24-1.8-2.62-3.5-3.94-5.24l-1.45.34a62.6,62.6,0,0,0-1.08,8.56c0,2.91-1.31,4.15-3.83,4.93s-5.12,1.87-7.67,2.82c0,.54.09,1.08.14,1.61A28.12,28.12,0,0,0,212.12,57.31Z"/><path class="cls-2" d="M303.68,57.46c-.34.54-.27,2,0,2.13a3.74,3.74,0,0,0,2.68.16A42.28,42.28,0,0,0,310.5,57c3.53-2.23,4.33-2.14,7.4.51,1.55,1.33,3.18,2.58,4.77,3.87l1.06-.52c0-2.41.53-5-.11-7.19-1.15-4,.7-5.91,3.8-7.53,2.13-1.12,4.17-2.42,6.9-4-1.62-.87-2.38-1.51-3.24-1.68-1.78-.36-3.62-.41-5.42-.68-4.43-.66-4.83-1-5.81-5.38a40.88,40.88,0,0,0-1.14-4.83c-.71-2-2.53-2.32-3.78-.61a15.29,15.29,0,0,0-1.67,3.59c-2.09,5.41-2.6,5.8-8.29,5.94-2.13,0-4.29-.09-5.71,1.88.21.48.26.91.49,1C306.53,45.45,308,50.71,303.68,57.46Z"/><path class="cls-2" d="M254.58,44.56c1.33,1,2.7,1.92,4.07,2.85,3.48,2.34,4,3.39,3.15,7.45a54.34,54.34,0,0,0-1.2,5.83c-.18,2.18,1.33,3,3.15,1.73a44.81,44.81,0,0,0,4.5-3.89c2.05-1.88,4.12-2.48,6.68-.83a63.37,63.37,0,0,0,6.14,3c-.49-4.67-2-8.66-1-11.88s4.46-5.83,7-8.85c-2.31-2-4.6-.62-6.8-.67-1.66,0-3.75-.23-4.86-1.23-1.52-1.36-2.23-3.58-3.4-5.36-1-1.56-2.2-3-3.31-4.51-.87,1.64-1.76,3.26-2.57,4.92a8.26,8.26,0,0,0-.54,1.9A7.55,7.55,0,0,1,259,41.4c-1.71.3-3.38.85-5.54,1.41C254.22,44,254.33,44.38,254.58,44.56Z"/><path class="cls-2" d="M348.63,56.73a15.27,15.27,0,0,0-1.56,3.1c-.59,1.89-3.54,3.8-1.14,5.58,1,.76,3.9-.57,5.72-1.4,3.93-1.8,4.43-1.75,7.51.85,1.89,1.6,3.08,5.61,6,4,1.47-.85,1.66-4.79,1.57-7.3-.11-3.1,1.1-4.51,3.84-5.44,2.57-.87,5-2.15,7.67-3.32-.66-1.11-.8-1.65-1.16-1.89a5.29,5.29,0,0,0-2.2-1.09c-6.87-.77-9.67-4.39-8.94-11.36.3-2.88-2.46-3.83-4.79-1.87a11.28,11.28,0,0,0-3.19,3.78c-1.5,3.48-3.87,4-7.28,3.26-2-.44-4.1-.08-7.47-.08,2.08,2.92,3.38,4.93,4.87,6.8A5.15,5.15,0,0,1,348.63,56.73Z"/><path class="cls-2" d="M389.17,78.49c7.44-1.93,7.53-1.93,11.61,4.42a9.55,9.55,0,0,0,.86,1.22c1.73,1.89,2.86,1.62,3.76-.94a18.68,18.68,0,0,0,1.13-3.81c.45-3.76,2.73-5.32,6.23-6a84.21,84.21,0,0,0,8.12-2.35,15.49,15.49,0,0,0-1.89-2c-5.26-3-10.36-6.16-7.37-13.64a1.38,1.38,0,0,0,0-.5c-.09-3-1.87-4.11-4.38-2.46a45.66,45.66,0,0,0-5.81,4.55c-1.5,1.39-2.93,2.07-4.91,1.22-1.22-.52-2.5-.91-3.76-1.33-4.32-1.45-5.5-.45-4.61,4a5,5,0,0,0,1,2.2c2,2.31,1.62,4.48-.05,6.77a26.61,26.61,0,0,0-2.83,4.65,18.55,18.55,0,0,0-.87,4A15.37,15.37,0,0,0,389.17,78.49Z"/><path class="cls-2" d="M427.16,99.15a27.92,27.92,0,0,0,4-.06c4.19,0,4.76.36,6.08,4.33.72,2.16,1.32,4.36,2,6.54l1.44.16a73.33,73.33,0,0,0,3.06-7.56c1-3.46,3-4.78,6.58-4.52,2.66.2,5.6.59,7.78-2a26.69,26.69,0,0,0-3.43-3.1c-4-2.55-4.11-6.09-2.92-10.07a30.82,30.82,0,0,0,1-3.85c.43-2.62-.83-3.87-3.33-3.09a11.62,11.62,0,0,0-4.27,2.39c-3.07,2.78-6.13,3.83-9.7,1a10.5,10.5,0,0,0-1.77-.9c-1.8-1-3.89-2-5.32-.06-.46.64.85,2.82,1.66,4.1,2.5,3.92,2.21,6.56-1.31,9.55a24.7,24.7,0,0,0-3.37,2.88c-.66.81-1.31,2.22-1,3C424.53,98.58,426.12,99,427.16,99.15Z"/><path class="cls-2" d="M227.06,278.41c1-1.3,1.45-3.07,2.16-4.63l-1.16-.86c-7.08,3.6-11.34,10.69-17.67,15.28s-11.48,10.36-18.52,13.92a39.12,39.12,0,0,1,2.5-5.53,40.83,40.83,0,0,0,3.15-8.33c.61-3.05.52-6.57-2.13-8.69-2.46-2-5.72-1.78-8.53-.35a16.67,16.67,0,0,0-5.18,3.76c-4.83,5.67-9.46,11.51-14.07,17.37A15.66,15.66,0,0,0,166,304l1.29.68c.86-1.27,1.68-2.58,2.61-3.8,3.62-4.73,7.08-9.61,11-14.07,1.93-2.18,4.71-3.63,7.22-5.24a2.66,2.66,0,0,1,2.2.32c.28.17.31,1.29.06,1.76-.79,1.46-1.78,2.8-2.67,4.2-2.75,4.34-4.34,9-3.2,14.17.84,3.79,3,5.06,6.64,3.73a63.66,63.66,0,0,0,8.84-4.46c1.84-1,3.53-2.31,5.41-3.55,1.62,2.81-.17,4.47-1,6.34-3,6.81-6,13.61-8.94,20.47-4.57,10.85-8.6,21.95-13.64,32.58-5.38,11.35-18.5,14.85-29.13,8.34-1.52-.93-3.46-3-3.34-4.33s2.23-3.06,3.78-4.17,3.38-1.39,5-2.26a9,9,0,0,0,4-10.71c-1.18-3.93-3.17-5-8-5.2-4-.14-6.37,1.66-7.63,5.13a38.7,38.7,0,0,0-2.15,7.63c-1.8,12,3.35,18.48,14.3,21.41,10,2.68,19.12.07,27.1-6.25,9.52-7.54,16-17.45,20-28.7s6.88-22.77,10.27-34.18C218.67,294.88,221.17,285.94,227.06,278.41Z"/><path class="cls-2" d="M185.89,506.67c-4.86.7-6.17.05-8.45-4.71a6.32,6.32,0,0,0-1-1.73,27.93,27.93,0,0,0-2.57-2.13,16.44,16.44,0,0,0-1.85,2.6,19.76,19.76,0,0,0-1.48,4.22c-.62,2.86-2.33,4-5.21,4.4a95.74,95.74,0,0,0-9.67,2.23c2.91,2.59,4.86,5,7.36,6.36s2.36,2.87,2,4.91c-.25,1.47-.47,3-.86,4.39-.62,2.3.09,3.87,2.51,4.9,2.12-1.33,4.77-2.35,6.5-4.22,2.7-2.92,5.3-2.88,8.41-1.17a18.52,18.52,0,0,0,2.28,1c3.14,1.2,4.28.47,4.09-2.91a7.75,7.75,0,0,0-1.17-3.68c-1.43-2.21-.77-4.11.47-6,.64-1,1.67-1.74,2.07-2.78.8-2,4.33-3.38,2.42-5.79C191.05,505.62,187.9,506.38,185.89,506.67Z"/><path class="cls-2" d="M522.31,452.31c-4.9-4.27-4.3-8.67-.78-13.41,1.15-1.55,1.54-3.55,0-5-1.88-1.76-2.85.39-4.08,1.32-4.1,3.11-7.08,2.79-10.25-1.24-1.62-2.07-2.91-4.48-6.08-4.33a55.8,55.8,0,0,0-.9,7.1c0,4.25-.43,5-4.68,6.35l-6.42,2c0,.52-.05,1.05-.08,1.57a75.54,75.54,0,0,0,7.23,2.88c3.79,1.1,5.4,3.28,5,7.31-.22,2.29-.83,5,2.05,6.81a7.71,7.71,0,0,0,1.89-1.53c3.41-5.39,8.17-5.55,13.52-3.59a8.74,8.74,0,0,0,1.44.39c2.79.51,4.19-.78,3.59-3.48A6,6,0,0,0,522.31,452.31Z"/><path class="cls-2" d="M542.71,407.51c-1.82-1.76-2.36-3.48-1.31-5.76a10.47,10.47,0,0,0,1-2.81c.22-1.54.84-3.92.14-4.49-1-.82-3.13-.54-4.74-.38-.9.09-1.71,1.19-2.61,1.29a15.74,15.74,0,0,1-5.13-.2c-1.22-.3-2.17-1.63-3.39-2-2-.62-3.52-4.32-5.85-1.93-.9.92.09,3.9.53,5.88,1,4.63.27,6.27-4,8.88-1.6,1-2.92,2.41-5.19,4.34,2.81.76,4.48,1.37,6.2,1.64,4.46.7,7.08,3,7.7,7.64a46.56,46.56,0,0,0,2,6.9l1.35-.08,1.78-2.85c2.74-4.41,5.41-8.92,11.89-6a3.22,3.22,0,0,0,1.49.07c3-.27,4-2,2.35-4.61A27.5,27.5,0,0,0,542.71,407.51Z"/><path class="cls-2" d="M292.81,291.27c-.4-3.94-1.36-4.86-5.22-5.11-5.62-.38-9.54,4.73-8.5,11.08,1,5.77,5.85,7.78,10.63,4.39,2.76-2,3.31-4.78,3.11-7.88A22.78,22.78,0,0,0,292.81,291.27Z"/><path class="cls-2" d="M449.63,320a29.92,29.92,0,0,0-20.89,6.72c-11.12,8.93-19,20.79-27,32.42-2.82,4.1-5.63,8-11,10.77.13-2.41-.09-4.23.38-5.86a94,94,0,0,1,3.34-9.32c4.27-10.45,8.49-20.93,13-31.29,2.83-6.54,6.14-12.87,9.09-19.36,1.14-2.54,3-3.35,5.55-3.27a28.6,28.6,0,0,0,5.48-.22c.79-.13,1.44-1.07,2.15-1.64-.66-.6-1.25-1.51-2-1.7a24.81,24.81,0,0,0-4-.25c-3.17-.3-3.3-.67-2-3.68,2.06-4.69,4.14-9.38,5.94-14.18,1-2.59-.07-3.74-2.84-3.6a47.14,47.14,0,0,0-7.43.76,5,5,0,0,0-3.05,2.15c-4.92,9-9.65,18.15-14.48,27.22-4.14,7.76-8.2,15.57-12.56,23.2-3.6,6.31-7.44,12.51-11.47,18.56s-8.39,12-12.79,17.77c-.71.94-2.43,1.11-3.68,1.64-.49-1.34-1.35-2.67-1.36-4a10.57,10.57,0,0,1,1.26-4.25c2.16-4.67,4.44-9.27,6.66-13.9,2.95-6.14,6-12.22,8.81-18.43,2.33-5.16,1.57-6.21-3.91-6.15-2.16,0-4.51-.39-6.44.32s-3.55,2.57-5.41,4a9.1,9.1,0,0,1-1.54-1.28c-2.55-3.44-5.83-4.25-10.08-3.83-6.57.64-11.59,3.78-16.05,8.22-9.6,9.53-16.86,20.89-24.39,32a25.88,25.88,0,0,1-8.92,8.24,2.3,2.3,0,0,1-2.08.1,2.62,2.62,0,0,1-.41-2.15,30,30,0,0,1,1.55-4.72c2.63-6.26,5.14-12.59,8-18.72,7.68-16.21,15.57-32.31,23.31-48.48,3.22-6.74,6.4-13.51,9.3-20.38,1.37-3.24.52-4.21-2.94-4.36-2.16-.09-4.33,0-6.49.08a5.61,5.61,0,0,0-5.11,3.38c-3.2,6.58-6.44,13.13-9.8,19.62-4.81,9.29-9.47,18.66-14.68,27.72-4.13,7.18-9.74,13.58-13.37,21-5.1,10.42-13.38,18.11-20.57,26.76-.57.69-2,.69-3,1a14.11,14.11,0,0,1-.28-2.72,7.23,7.23,0,0,1,.78-2.35q7.5-16,15.05-32c1.28-2.7,2.88-5.26,4-8,1.37-3.24.57-4.38-2.89-4.24-2.82.11-5.62.77-8.42.77a7.06,7.06,0,0,0-6.54,3.73c-4.72,7.62-9.26,15.37-14.35,22.74-4,5.86-8.71,11.29-13.22,16.8-.61.74-2.42,1.47-2.88,1.13a4.63,4.63,0,0,1-1.87-3.22c.12-4.81-.08-9.77,1.08-14.37,2.05-8.19.7-15.75-2.7-23.11-1.26-2.73-.67-4.14,1.74-5.69a35.3,35.3,0,0,0,12.09-12.38c3.78-6.8,7.49-13.65,10.88-20.65,3.74-7.71,8.35-14.34,17.07-17,.69-.21,1.24-.91,2.77-2.09-2.16-.35-3.47-1-4.51-.66a29.34,29.34,0,0,0-7.32,3c-11.51,7.22-19.39,17.25-24.29,30-2.27,5.92-6.41,11.12-9.69,16.66-1.45,2.44-3.56,2.51-6.06,2a8.89,8.89,0,0,0-4.77,0,4.32,4.32,0,0,0-2.26,3.27c0,1.78,1.5,2.72,3.52,2.66,4.93-.15,5.14.06,4.86,4.89a16.66,16.66,0,0,1-.91,4.87c-1.52,4-3.16,8-4.94,11.92-2.52,5.56-2.49,11.59-3.58,17.42-1.27,6.81,4.23,12.77,11.06,11.59a21.33,21.33,0,0,0,11.06-5.38,68.58,68.58,0,0,0,13.21-16.77c1.42-2.5,3.21-4.79,4.83-7.17l.91.49a14.77,14.77,0,0,1-.26,1.75c-1.27,4.95-2.82,9.85-3.77,14.86a13,13,0,0,0,2.38,9.94c1.59,2.26,3.7,3.62,6.4,2.44,3-1.31,6.3-2.55,8.56-4.75,5.46-5.32,10.5-11.09,14.1-17.94,1.58-3,3.45-5.83,5.19-8.74l1.36.52c-.39,1.94-.79,3.88-1.17,5.83-1,5-2.38,10-2.8,15.08-.35,4.1,1.22,8.08,5.33,10,4.44,2,8.64.89,11.8-2.68,3.51-4,6.68-8.25,9.91-12.45,1.35-1.74,2.49-3.64,3.72-5.47l1.23.46a31.08,31.08,0,0,0,0,4.73,51.69,51.69,0,0,0,2,9.64c1.55,4.25,4.64,6.54,9.59,6.39s8-2.86,11.2-5.79c1.65-1.51,3.14-3.18,5.14-5.22a24.85,24.85,0,0,1,1.08,3c1.55,8,7.29,10.68,14.33,6.8,5.18-2.85,8.12-7.79,11.33-12.35s5.81-9.64,8.74-14.46c.28-.47,1-.69,2.49-1.7-.9,3.17-1.24,5.42-2.16,7.4-2.09,4.49-2.05,9-.82,13.62,1.06,4,2.57,7.91,6.75,9.24,4.68,1.5,8.25-1.51,11.61-4.33a8.65,8.65,0,0,0,1.2-1.58c3-4.17,6-8.36,9.1-12.49a7,7,0,0,1,1.91-1.32,19.49,19.49,0,0,1,1.41,2.35c.17.41-.12,1-.06,1.48.77,5.88,2.33,11.25,8.18,14.33a16.1,16.1,0,0,0,15.78.14,127.49,127.49,0,0,0,16-10.9,9.82,9.82,0,0,0,2.93-11c-1.38,1.49-2.67,2.69-3.73,4.07A55.36,55.36,0,0,1,432,370.92c-3.27,1.66-5.66.16-5.71-3.44,0-2,.4-4,.55-5.94.28-3.44,2.1-5,5.47-6.06,5.66-1.76,11.24-3.82,16.23-7.38,6.12-4.37,8.67-10.4,9.28-17.4C458.3,324.89,454.58,320.28,449.63,320Zm-93.37,10.52a45.47,45.47,0,0,1-8.14,19.63c-3.91,5.54-8.76,10.41-13.23,15.56a8.52,8.52,0,0,1-1.85,1.65c-1.55,1-2.92.86-3.49-1.12-.45-1.59-.7-3.23-1-4.85a31.07,31.07,0,0,1,1.05-5.43c4.09-10.76,9.22-21,16.8-29.77,1.68-2,3.5-3.76,6.3-2.73C355.12,324.33,356.71,327.39,356.26,330.49Zm88.29,10.37c-3.26,3.47-7.2,6.33-10.93,9.34a25,25,0,0,1-3.86,2.15l-1.05-1c1.85-4.14,3.15-8.67,5.68-12.35,3.38-4.88,7.66-9.14,11.69-13.54.65-.71,2.31-1.32,2.95-1s1.2,1.91,1.22,3C450.38,332.74,448,337.21,444.55,340.86Z"/><path class="cls-2" d="M557.65,262.3c-.06-1-.82-2-1.65-3.9-1.59,2.13-2.8,3.61-3.85,5.18-3,4.46-3.13,4.55-8.56,3.56a35.65,35.65,0,0,0-5.37-.91c-2-.05-2.75,1.22-1.65,2.94a27.32,27.32,0,0,0,3.23,3.76c2.49,2.67,3.61,5.39,1.11,8.77-1,1.33-1.41,3.05-2.36,5.17,4.66-.44,8.65-1.86,11.87-.85s5.83,4.43,8.87,6.94c2.08-2.12,1.15-4.36,1-6.6-.12-1.66-.21-3.95.75-4.94,1.64-1.69,4.11-2.57,6.23-3.8,1.48-.86,2.94-1.74,5.36-3.16-2.4-1.22-3.73-2.37-5.18-2.55C561.62,271.18,558,268.53,557.65,262.3Z"/><path class="cls-2" d="M559.52,364.07c-4-1.74-4.7-4.55-3.67-8.46.43-1.65.07-3.5.07-6.38a48.9,48.9,0,0,0-5.63,3.56c-2.85,2.46-5.68,3.35-8.95.85a5.69,5.69,0,0,0-1.8-.83c-1.92-.6-3.8-3.34-5.76-1.24-1.81,1.93.46,4,1.36,5.77,2,4,1.91,4.55-1,7.85-1.54,1.76-5.26,3.1-3.71,5.61.95,1.54,4.81,2.07,7.2,1.77,3.67-.46,4.63,1.42,5.64,4.12,1,2.54,1.31,5.51,4.34,7.29.65-1.09,1.59-2,1.72-3,.9-6.94,4.44-10,11.69-9.18,2.83.33,3.79-2.52,1.84-4.82A10.4,10.4,0,0,0,559.52,364.07Z"/><path class="cls-2" d="M590,270.57c-.41-10.67-2.39-21.08-4.69-31.42a282.38,282.38,0,0,0-14.85-47c-5.42-13-11.33-25.81-18.7-37.87-6.41-10.48-12.56-21.12-20.67-30.48-5.44-6.27-10.21-13.11-15.73-19.3-7.18-8.05-14.64-15.89-23.48-22.25-6.87-4.94-13.67-10-20.48-15-7.35-5.43-14.28-11.56-22.1-16.19C435,42.62,420.72,34.22,405.05,28.3a328.79,328.79,0,0,0-37-11.74c-22.66-5.62-45.52-9.5-68.95-9-5.34,0-10.71-.42-16,.08a388.94,388.94,0,0,0-49.69,7.8A240.91,240.91,0,0,0,180.84,34C164,42.22,147.59,51.47,132.45,62.73c-10.81,8.05-21.57,16.18-31,25.82-9.88,10.1-19.3,20.63-29,30.94-6,6.43-10.94,13.67-15.75,21a306,306,0,0,0-22.09,40.15c-4.34,9.49-8.41,19.14-12.05,28.92-2.71,7.28-4.57,14.88-6.75,22.35A100.28,100.28,0,0,0,13,242.46c-1.73,9.8-4.22,19.46-4.33,29.54-.07,7.38-1.43,14.75-1.55,22.13-.13,7.78.54,15.56.83,23.34.26,6.78-.07,13.62.83,20.31a294.51,294.51,0,0,0,18.8,70.13,274.93,274.93,0,0,0,33.46,61C70,481.09,79.12,493,89.83,503.75c9.4,9.41,18.7,18.9,29.71,26.51,9.81,6.78,19.25,14.14,29.42,20.32,11.06,6.71,22.29,13.28,34.54,17.79,5.74,2.12,11.31,4.71,17.08,6.73,8.16,2.84,16.29,6,24.7,7.85,13.27,2.88,26.73,4.92,40.17,7,7.55,1.16,15.21,1.78,22.84,2.38,15.63,1.23,31.24.37,46.8-1.3a169.72,169.72,0,0,0,21.13-3.55c12.13-2.86,24.21-6,36.16-9.49,9.35-2.76,18.56-6.08,27.64-9.62,5.55-2.15,10.71-5.27,16.12-7.8A203.63,203.63,0,0,0,481.45,531c3-2.57,6.39-4.78,9.35-7.43,8-7.19,15.93-14.51,22.88-22.84,8.72-10.46,18-20.48,26.75-30.89,2.54-3,4.21-6.73,6.33-10.09,3.91-6.17,8.4-12,11.67-18.52,6.71-13.33,13.18-26.81,17.64-41.13,4.29-13.78,8.56-27.55,11.24-41.79a262.37,262.37,0,0,0,4.4-37c.4-8.93.4-17.9.09-26.84C591.53,286.46,590.3,278.53,590,270.57ZM577.59,372c-2.31,8.8-5.59,17.36-8.78,25.9-2.89,7.74-6,15.42-9.48,22.92-3.19,6.92-7.05,13.54-10.44,20.38-2.62,5.28-6.9,9.57-8.57,15.48-.71,2.52-3.13,4.59-4.89,6.78-3.38,4.24-6.86,8.39-10.24,12.62-1.24,1.55-2.18,3.35-3.47,4.84-3.78,4.37-7.56,8.75-11.55,12.91-3.41,3.55-7.13,6.63-10.13,10.74-3.8,5.22-9,9.51-14,13.78-4,3.44-8.57,6.2-12.82,9.35a73.29,73.29,0,0,1-13.34,8.37c-6.85,3.12-13.07,7.62-19.58,11.5-3.94,2.35-7.84,4.78-11.9,6.9-6.64,3.49-13.3,7-20.16,10-3.55,1.57-7.53,2.18-11.32,3.17-2.54.67-5.17,1.06-7.65,1.92-5.29,1.82-10.38,4.83-15.8,5.54-5.08.67-9.45,2.74-14.16,4.1-3,.85-6.2.77-9.21,1.5-6.26,1.54-12.72,1.65-19,2.65-9.88,1.58-19.68,2.64-29.62,2.16-17.91-.86-35.92-.89-53.53-5-5.16-1.2-10.18-3-15.33-4.25-2.53-.63-5.26-.48-7.8-1.09a95,95,0,0,1-11.47-3.41c-9.15-3.49-18.34-7-27.29-10.93a258,258,0,0,1-23.57-11.82c-7.91-4.52-15.51-9.62-23.05-14.75-6.83-4.65-13.54-9.51-20-14.62-3.72-2.94-6.83-6.64-10.34-9.88-2.66-2.46-5.58-4.65-8.25-7.11-1.69-1.56-3.14-3.39-4.69-5.11-.22-.24-.29-.68-.55-.82-5.12-2.69-7.52-8.07-11.59-11.82-1.91-1.75-3.16-4.21-4.8-6.27-5.66-7.13-11.87-13.89-16.91-21.43s-9-15.86-13.33-23.87c-2-3.63-3.45-7.58-5.77-11-5-7.37-8.08-15.63-11.17-23.85Q27.72,387,24.22,375.05a251.52,251.52,0,0,1-9.17-44.8c-1.46-13.95-1.08-27.88,0-41.81.74-9.75,1.22-19.53,2.23-29.25a128.2,128.2,0,0,1,3.17-18.14,307.38,307.38,0,0,1,29.16-74.39c7.82-14.11,16.19-27.81,26.43-40.38,9.56-11.73,19.15-23.48,30.25-33.74,11.34-10.47,22.76-21,36.26-28.82,8-4.69,15.72-10,23.72-14.7,17.13-10.14,35.59-17.24,54.6-22.9,15.31-4.55,30.75-8.59,46.79-9.8,8.12-.6,16.22-1.5,26.93-2.51,8.74.58,20,1.1,31.28,2.14a256.42,256.42,0,0,1,49.44,9.57,313.36,313.36,0,0,1,36.07,13,312.84,312.84,0,0,1,32.59,17c8.74,5.1,16.9,11.19,25.27,16.91a242.48,242.48,0,0,1,38.46,33.17c7.19,7.55,13.45,16,19.91,24.23,17.22,21.89,29.93,46.36,39.67,72.27,5.66,15,9.54,30.69,12.63,46.53,3.26,16.68,4.19,33.55,5.4,50.42C587.06,323.81,583.87,348.11,577.59,372Z"/><path class="cls-2" d="M309.25,189.07c-6.31,2.92-8.68,9.4-5.85,13.9.43.69,1.46,1,2.22,1.5.26-.86.95-1.86.72-2.55-1.11-3.34-.15-6.14,1.69-8.9C308.59,192.17,308.67,191,309.25,189.07Z"/><path class="cls-2" d="M570,320.05a17.8,17.8,0,0,0-3.67-1.51c-4.7-1.81-5.32-2.71-5.48-7.68-.07-2.25.5-4.73-1.93-6.23-.4.12-.87.11-1,.32-4,6.65-9.14,8.59-16.07,4.3-.56-.35-2-.35-2.19,0a3.52,3.52,0,0,0-.33,2.69,32.09,32.09,0,0,0,2.62,4.22c2.48,3.91,2.44,4.24-.57,7.74-1.25,1.45-2.45,2.94-3.68,4.41.24.43.48.85.71,1.28,2.61,0,5.28.35,7.82-.09,3.24-.55,5.06.67,6.38,3.39a28,28,0,0,0,2.54,4.29,13.3,13.3,0,0,0,2.4,2.06,10.53,10.53,0,0,0,1.63-2.83,21.49,21.49,0,0,0,.58-5.42c-.08-2.87,1.4-4.28,4-4.89a56.62,56.62,0,0,0,5.82-1.38c1-.33,2.29-1.31,2.33-2.05S570.85,320.64,570,320.05Z"/><path class="cls-2" d="M503.76,365.06c3.88-11.18,6.12-22.77,8.1-34.42a158.47,158.47,0,0,0,1.71-39.26,262.86,262.86,0,0,0-7.65-45.61c-4.37-16.65-10.23-32.61-18.56-47.66a183.64,183.64,0,0,0-9.57-15.73c-5-7.23-9.85-14.69-15.76-21.14A360.73,360.73,0,0,0,436,135.88a164.48,164.48,0,0,0-21.34-16.33,235.36,235.36,0,0,0-37.21-19.11A217.33,217.33,0,0,0,319,85.81c-20.5-2.24-41-.62-61.15,3.29-16.21,3.14-31.64,8.9-46.73,15.56-13.78,6.08-25.74,15.09-37.95,23.63-16.61,11.62-30.57,26.05-42.89,42.09-16.26,21.2-28.4,44.49-35.6,70.25a198,198,0,0,0-7.57,57.2,167.82,167.82,0,0,0,3.21,34.06c3.55,18.49,8.42,36.57,17.27,53.35,3.17,6,6.38,12,9.87,17.87,5.53,9.26,10.77,18.76,18,26.84,6.31,7.05,12.8,14,19.59,20.55a192.92,192.92,0,0,0,18,15.64c11.42,8.61,23.41,16.37,36.74,21.87,7.07,2.92,14,6.08,21,9.16,14,6.18,29.14,7.73,44,10.19a124.23,124.23,0,0,0,17.89,1.27c14.45.27,28.94,1,43.28-1.82,9-1.76,18-3.1,26.93-5.15a84.79,84.79,0,0,0,15.05-5.27c7.59-3.35,15-7.11,22.46-10.81a184.17,184.17,0,0,0,26.94-16.06c13.18-9.66,24.82-21,35.92-32.92a108.65,108.65,0,0,0,10-12.33,264,264,0,0,0,23.46-42.16C499.38,376.52,501.75,370.85,503.76,365.06Zm-44.11,64.75c-6.74,8.56-14.42,16.5-23.88,22.4A32.2,32.2,0,0,0,428.9,458c-5.95,6.63-13.53,10.84-21.2,15-2.71,1.48-4.87,4-7.64,5.35-9.27,4.41-18.71,8.48-28.09,12.67a12.66,12.66,0,0,1-1.88.65c-4.11,1.11-8.23,2.23-12.35,3.3q-9.83,2.55-19.67,5.06a8.23,8.23,0,0,1-1.46.3c-14.32.83-28.54,2.84-43,1.93-11.63-.73-23.34-.5-34.57-3.94-6-1.82-12.23-2.54-18-4.66a306.34,306.34,0,0,1-29.21-12.1A286.32,286.32,0,0,1,184,465.82c-5.58-3.54-10.32-8.37-15.6-12.4a163.45,163.45,0,0,1-34-34.71c-9.6-13.38-18.23-27.37-24-42.83-4.53-12.08-8.7-24.32-12.32-36.7-1.95-6.63-2.73-13.65-3.46-20.56-.78-7.43-.88-14.92-1.28-22.38a195.41,195.41,0,0,1,11.73-68A200.46,200.46,0,0,1,145,162.06a241.11,241.11,0,0,1,32.61-29.94,168.38,168.38,0,0,1,39.18-22.71c9.55-3.85,19.22-7.49,29-10.52,16.47-5.08,33.53-7.07,50.69-7.28a188.17,188.17,0,0,1,48.86,5.66c11.16,2.84,22.28,5.69,32.75,10.38,9,4,18.36,7.5,26.23,13.91,4.19,3.4,9.46,5.45,13.92,8.56,9,6.27,17.67,13,25.05,21.21,8.55,9.49,17.24,18.89,25.3,28.79,10.68,13.13,17.85,28.31,24.44,43.81a164.93,164.93,0,0,1,11.76,44.65c2,16.58,4,33.35,1.46,50.13-1.64,10.66-2.83,21.43-5.22,31.92-2.28,10-6.06,19.55-10.24,29C482.74,397.93,471.86,414.31,459.65,429.81Z"/><path class="cls-2" d="M313.53,538.67a22.13,22.13,0,0,0,1.21-3.78,45.6,45.6,0,0,0,.05-5.44c-1.68.74-2.63.88-3.12,1.42-4.38,4.88-8.94,6.28-14.5,1.6-1.7-1.43-3.11-.26-2.83,2a10.59,10.59,0,0,0,.74,2.36c1.83,4.84-.05,8.28-4,11-1.31.91-2.42,2.08-4.11,3.55a10.75,10.75,0,0,0,2.27,1.12,22.78,22.78,0,0,0,3,.12c6.43,0,7.2.48,9.44,6.3.78,2,.33,5.42,3.41,5.24,2.83-.16,2.55-3.41,3.25-5.54,1.19-3.64,2.9-6.61,7.47-6.61,1.69,0,3.38-.72,6.24-1.39-2.68-2.21-4.35-3.75-6.18-5.06A5.61,5.61,0,0,1,313.53,538.67Z"/><path class="cls-2" d="M357.31,531.3a38.73,38.73,0,0,0,.29-5.47c-.17-2.28-1.59-2.78-3.32-1.22a36.54,36.54,0,0,0-3.37,3.66c-3.09,3.71-3.52,3.79-7.9,1.88-1.87-.82-3.7-2.44-6.35-.58.75,1.79,1.4,3.63,2.28,5.35,1.59,3.1,1.94,5.81-1.11,8.42-1.64,1.4-2.71,3.45-4.56,5.89,2.87,0,4.67.17,6.42,0,5.3-.62,6.48,0,9.21,4.7,1,1.74,1.47,4.08,4.56,4.56a81.91,81.91,0,0,0,2.19-9.2c.3-2.49,1.52-3.33,3.71-3.86,2.65-.65,5.21-1.68,7.81-2.55.06-.45.12-.91.17-1.37a51.6,51.6,0,0,0-4.9-2.4C358.3,537.54,357,535.68,357.31,531.3Z"/><path class="cls-2" d="M404.83,523.7c-4.38-.7-5.3-1.42-6.17-5.75a31.21,31.21,0,0,0-.59-3.91,23.77,23.77,0,0,0-2-3.63,24.74,24.74,0,0,0-2.72,2.59,38.12,38.12,0,0,0-2.74,4.11c-1.24,2-2.75,2.57-5,1.48a16.92,16.92,0,0,0-4.75-1.36,3.51,3.51,0,0,0-2.56.77c-.35.31-.16,1.59.18,2.22a44.46,44.46,0,0,0,2.5,3.7c2.7,4,2.7,5.49,0,9.44a26.43,26.43,0,0,0-2.23,3.29c-.78,1.68.23,3.08,2.06,2.75a22.55,22.55,0,0,0,5.7-1.75c2.66-1.27,4.53-1.11,6.29,1.58,1.41,2.16,3.47,3.89,5.23,5.81l1.46-.31a28.25,28.25,0,0,0,.54-5.6c-.5-4.94,1.22-8.18,6-10.14,1.69-.7,5.06-.74,4.43-3.55C410.23,524.47,406.83,524,404.83,523.7Z"/><path class="cls-2" d="M269.42,539.08a49.6,49.6,0,0,0,2.35-5.46,15.66,15.66,0,0,0,.44-3.09,17.45,17.45,0,0,0-3.57.3,13,13,0,0,0-2.52,1.58c-4.51,2.65-4.88,2.57-8.51-1-1.34-1.32-2.82-2.52-5.2-4.65-.26,3.53-.75,5.79-.51,8,.5,4.35-1.28,6.87-5.3,8.29a47,47,0,0,0-5.53,2.79c0,.4,0,.79,0,1.19a21.46,21.46,0,0,0,4.22,1.54c9.24,1.33,8.33,1.81,9.49,9.21a31.75,31.75,0,0,0,1.48,4.57c3-2.08,3-2.08,5-5.94,2.38-4.78,2.84-4.93,8.08-4.56a34.38,34.38,0,0,0,6-.58l.87-2.15c-1.83-1.41-3.71-2.78-5.5-4.24A4.24,4.24,0,0,1,269.42,539.08Z"/><path class="cls-2" d="M292.62,245.84c9.71-1.81,14.73-12.18,14.06-20.27-.35-4.21-2.84-7.22-6.18-7.4-4.73-.26-7.64,1.09-9.55,4.78a20,20,0,0,0-2,11.49,12.67,12.67,0,0,0,1.36,3.29,17.49,17.49,0,0,0,2.33-2.72c.38-.65,0-1.7.29-2.44a43.53,43.53,0,0,1,3.69-8,5.84,5.84,0,0,1,4.49-2.29c2.22.19,2.62,2.5,3,4.58,1.36,7.56-7.73,17.16-16.35,16.19a7.24,7.24,0,0,1-6.56-6.49,27.48,27.48,0,0,1,8.69-24.3c1.59-1.52,3.21-2,5.39-.84a13.55,13.55,0,0,0,5.66,1.69,4.23,4.23,0,0,0,3.35-2.08c.4-1-.29-2.8-1.1-3.75a5.82,5.82,0,0,0-3.52-1.66c-3.46-.36-4.09-2.67-3.69-5.32.84-5.51,2.44-10.62,7.95-13.55,4.08-2.17,6.94-1.26,8.5,3.13,2.3,6.5,1.67,8.82-3.6,13.41-.22.18-.25.57-.65,1.55,3.35.64,5.2-1.09,6.26-3.35,2.41-5.16,3.13-10.53-.22-15.59-1-1.55-2.79-3.42-4.41-3.63-5.57-.73-11.27-1.36-16.39,2.12a15.06,15.06,0,0,0-6,17c1.5,4.65,1.54,5-3.13,7.2-8.81,4.2-12.55,11-12.46,20.73A17.49,17.49,0,0,0,292.62,245.84Z"/><path class="cls-2" d="M435.23,495.36c-.59-1.89-1.33-3.74-2-5.6l-1.14.1c-.9,2.09-1.84,4.16-2.69,6.27-1.07,2.64-2.79,3.69-5.79,3.56-2.09-.08-5.24-1.86-6.16.77-.45,1.27,2.23,3.65,3.52,5.51a4,4,0,0,0,.74.67c2.05,1.69,2.68,3.58,1.34,6.13a71.88,71.88,0,0,0-2.71,6.66c3,2,4.86,0,6.83-1,4.65-2.41,5.28-2.37,9.25,1.06a24.61,24.61,0,0,0,3,2.59c1.92,1.18,3.4.31,3.15-1.88a22.43,22.43,0,0,0-1.31-6.3c-1.35-3.11-.46-4.91,2.29-6.56,2.15-1.28,4.71-2.4,5.57-5.88-2.54-.28-4.79-.63-7-.77C436.87,500.37,436.78,500.3,435.23,495.36Z"/><path class="cls-2" d="M230,525.81c.7-.91.34-2.63.47-4-1.24,0-2.49.06-3.72.19a5.34,5.34,0,0,0-1.35.64c-5.07,2.29-5.55,2.18-9.18-2.13-.54-.63-.95-1.37-1.52-2-2.44-2.59-3.76-2.32-4.66,1a18.86,18.86,0,0,0-.87,5.33c.11,2.91-1.26,4.12-3.88,4.81s-5.18,1.83-7.76,2.77l-.12,1.24a40.22,40.22,0,0,0,4.38,2.55c6.71,2.83,6.73,2.79,6.89,9.75a2.2,2.2,0,0,0,0,.5c.39,1.3.64,3.61,1.22,3.69a8.58,8.58,0,0,0,4.38-1.11,4.8,4.8,0,0,0,2.11-2.07c2-4,5.34-3.86,8.92-3.2a20.15,20.15,0,0,0,2.92.59c2.44.08,3.67-1.79,2-3.41C224.81,535.86,226,531,230,525.81Z"/><path class="cls-2" d="M475.6,471.83c-2.79.66-4.47-.2-5.61-2.68a34.32,34.32,0,0,0-2.55-4.84,3.68,3.68,0,0,0-2.35-1.31c-.32-.05-1,1.1-1.23,1.8a18.08,18.08,0,0,0-1.12,4.84c-.07,3.24-1.86,4.24-4.73,4.53-2.19.22-4.33.82-6.72,1.29.5,1.13.58,1.74.92,2a42.53,42.53,0,0,0,4.55,3c2.33,1.27,3.38,3,2.91,5.72a42.52,42.52,0,0,0-.67,5.94,8.3,8.3,0,0,0,.86,2.62c.87-.33,1.77-.6,2.61-1a5.46,5.46,0,0,0,1.11-1c4.62-4.19,5.05-4.23,10.92-1.37,1.55.76,3.18,1.36,4.77,2,.26-.28.51-.56.77-.83-.84-2.26-1.63-4.53-2.51-6.77-1.16-2.89-1-5.25,1.54-7.61,1.76-1.67,4.32-3.28,3.85-7A49.28,49.28,0,0,0,475.6,471.83Z"/><path class="cls-2" d="M312.06,232.91c.55.3.75,1.58.79,2.42.07,1.63-.25,3.28-.15,4.9.35,5.79,4.47,8.07,9.6,5.23A13.24,13.24,0,0,0,326,242.2a39.57,39.57,0,0,0,3.27-5c.87-1.47,2.93-3.37,1-4.68-2.11-1.45-2.79,1.52-3.95,2.7-1.39,1.4-2.6,3-3.89,4.47l-1.15-.78a212.23,212.23,0,0,1,10-24c4.06-7.95,7.9-16,11.65-24.11.69-1.51,1.15-4.64.61-4.92a12.69,12.69,0,0,0-6-1.07c-2.65.08-3.11,2.57-4.05,4.49-3.07,6.23-5.93,12.57-9.38,18.58-3.88,6.75-8.29,13.18-12.51,19.73C310.29,229.53,309.09,231.3,312.06,232.91Z"/></g></g></svg>